<svg width="135" height="135" viewBox="0 0 135 135" fill="none" xmlns="http://www.w3.org/2000/svg">
<mask id="mask0" mask-type="alpha" maskUnits="userSpaceOnUse" x="0" y="0" width="135" height="135">
<g opacity="0.8">
<g opacity="0.8">
<g opacity="0.8">
<path opacity="0.8" d="M119.767 109.199C96.8912 137.939 55.0481 142.694 26.3074 119.818C-2.43344 96.9416 -7.18784 55.098 15.6879 26.3573C38.5636 -2.38352 80.4072 -7.13791 109.148 15.7378C137.889 38.6135 142.643 80.4576 119.767 109.199Z" fill="white" stroke="url(#paint0_linear)"/>
</g>
</g>
</g>
</mask>
<g mask="url(#mask0)">
<path d="M52.7175 -28.1769L-29.3479 74.9286Z" fill="url(#paint1_linear)"/>
<path d="M110.387 17.7243L28.3209 120.83L29.8857 122.076L111.951 18.9698L110.387 17.7243ZM29.8857 122.076L111.951 18.9698L110.387 17.7243L28.3209 120.83L29.8857 122.076Z" fill="url(#paint2_linear)"/>
<path d="M111.169 18.347L29.1033 121.453Z" fill="url(#paint3_linear)"/>
<path d="M81.2872 -5.43777L-0.778711 97.6676L0.786089 98.9136L82.8512 -4.19227L81.2872 -5.43777ZM0.786089 98.9136L82.8512 -4.19227L81.2872 -5.43777L-0.778711 97.6676L0.786089 98.9136Z" fill="url(#paint4_linear)"/>
<path d="M82.0692 -4.81507L0.00368881 98.2906Z" fill="url(#paint5_linear)"/>
<path d="M139.738 41.0855L57.6724 144.192L59.2373 145.438L141.302 42.331L139.738 41.0855ZM59.2373 145.438L141.302 42.331L139.738 41.0855L57.6724 144.192L59.2373 145.438Z" fill="url(#paint6_linear)"/>
<path d="M140.52 41.7083L58.4548 144.815Z" fill="url(#paint7_linear)"/>
<path d="M66.7359 -17.019L-15.3295 86.0866L-13.7647 87.3326L68.3007 -15.7735L66.7359 -17.019ZM-13.7647 87.3326L68.3007 -15.7735L66.7359 -17.019L-15.3295 86.0866L-13.7647 87.3326Z" fill="url(#paint8_linear)"/>
<path d="M67.5183 -16.3962L-14.5471 86.7096Z" fill="url(#paint9_linear)"/>
<path d="M125.188 29.5045L43.1226 132.611L44.6875 133.857L126.752 30.75L125.188 29.5045ZM44.6875 133.857L126.752 30.75L125.188 29.5045L43.1226 132.611L44.6875 133.857Z" fill="url(#paint10_linear)"/>
<path d="M125.97 30.1273L43.905 133.234Z" fill="url(#paint11_linear)"/>
<path d="M96.0882 6.34253L14.022 109.449L15.5869 110.695L97.6522 7.58803L96.0882 6.34253ZM15.5869 110.695L97.6522 7.58803L96.0882 6.34253L14.022 109.449L15.5869 110.695Z" fill="url(#paint12_linear)"/>
<path d="M96.8702 6.96523L14.8044 110.072Z" fill="url(#paint13_linear)"/>
<path d="M154.539 52.8664L72.4732 155.973L74.0382 157.219L156.103 54.1119L154.539 52.8664ZM74.0382 157.219L156.103 54.1119L154.539 52.8664L72.4732 155.973L74.0382 157.219Z" fill="url(#paint14_linear)"/>
<path d="M155.321 53.4891L73.2556 156.596Z" fill="url(#paint15_linear)"/>
<path d="M56.7017 -25.0057L-25.3637 78.0996L-23.7989 79.3456L58.2665 -23.7602L56.7017 -25.0057ZM-23.7989 79.3456L58.2665 -23.7602L56.7017 -25.0057L-25.3637 78.0996L-23.7989 79.3456Z" fill="url(#paint16_linear)"/>
<path d="M57.4841 -24.3829L-24.5813 78.7226Z" fill="url(#paint17_linear)"/>
<path d="M115.153 21.5177L33.0875 124.624L34.6523 125.87L116.717 22.7633L115.153 21.5177ZM34.6523 125.87L116.717 22.7633L115.153 21.5177L33.0875 124.624L34.6523 125.87Z" fill="url(#paint18_linear)"/>
<path d="M115.935 22.1405L33.8699 125.247Z" fill="url(#paint19_linear)"/>
<path d="M86.0542 -1.64437L3.98789 101.462L5.55269 102.708L87.6182 -0.398869L86.0542 -1.64437ZM5.55269 102.708L87.6182 -0.398869L86.0542 -1.64437L3.98789 101.462L5.55269 102.708Z" fill="url(#paint20_linear)"/>
<path d="M86.8362 -1.02157L4.77029 102.085Z" fill="url(#paint21_linear)"/>
<path d="M144.505 44.8795L62.439 147.986L64.0039 149.232L146.069 46.125L144.505 44.8795ZM64.0039 149.232L146.069 46.125L144.505 44.8795L62.439 147.986L64.0039 149.232Z" fill="url(#paint22_linear)"/>
<path d="M145.287 45.5023L63.2214 148.609Z" fill="url(#paint23_linear)"/>
<path d="M71.5025 -13.225L-10.5629 89.8806L-8.99811 91.1266L73.0673 -11.9795L71.5025 -13.225ZM-8.99811 91.1266L73.0673 -11.9795L71.5025 -13.225L-10.5629 89.8806L-8.99811 91.1266Z" fill="url(#paint24_linear)"/>
<path d="M72.2849 -12.6022L-9.78051 90.5036Z" fill="url(#paint25_linear)"/>
<path d="M129.955 33.2985L47.8892 136.405L49.4541 137.651L131.519 34.544L129.955 33.2985ZM49.4541 137.651L131.519 34.544L129.955 33.2985L47.8892 136.405L49.4541 137.651Z" fill="url(#paint26_linear)"/>
<path d="M130.737 33.9212L48.6716 137.028Z" fill="url(#paint27_linear)"/>
<path d="M100.854 10.1363L18.7886 113.243L20.3535 114.489L102.418 11.3818L100.854 10.1363ZM20.3535 114.489L102.418 11.3818L100.854 10.1363L18.7886 113.243L20.3535 114.489Z" fill="url(#paint28_linear)"/>
<path d="M101.636 10.7591L19.5711 113.866Z" fill="url(#paint29_linear)"/>
<path d="M159.305 56.6602L77.2402 159.766L78.8042 161.012L160.869 57.9057L159.305 56.6602ZM78.8042 161.012L160.869 57.9057L159.305 56.6602L77.2402 159.766L78.8042 161.012Z" fill="url(#paint30_linear)"/>
<path d="M160.087 57.283L78.0222 160.389Z" fill="url(#paint31_linear)"/>
<path d="M61.7193 -21.0125L-20.3461 82.0936L-18.7813 83.3396L63.2841 -19.767L61.7193 -21.0125ZM-18.7813 83.3396L63.2841 -19.767L61.7193 -21.0125L-20.3461 82.0936L-18.7813 83.3396Z" fill="url(#paint32_linear)"/>
<path d="M62.5017 -20.3898L-19.5637 82.7166Z" fill="url(#paint33_linear)"/>
<path d="M120.171 25.5113L38.105 128.617L39.6699 129.863L121.735 26.7568L120.171 25.5113ZM39.6699 129.863L121.735 26.7568L120.171 25.5113L38.105 128.617L39.6699 129.863Z" fill="url(#paint34_linear)"/>
<path d="M120.953 26.1341L38.8875 129.24Z" fill="url(#paint35_linear)"/>
<path d="M91.0702 2.34933L9.00449 105.455L10.5693 106.701L92.6342 3.59483L91.0702 2.34933ZM10.5693 106.701L92.6342 3.59483L91.0702 2.34933L9.00449 105.455L10.5693 106.701Z" fill="url(#paint36_linear)"/>
<path d="M91.8522 2.97203L9.78689 106.078Z" fill="url(#paint37_linear)"/>
<path d="M149.522 48.8728L67.4566 151.979L69.0214 153.225L151.086 50.1183L149.522 48.8728ZM69.0214 153.225L151.086 50.1183L149.522 48.8728L67.4566 151.979L69.0214 153.225Z" fill="url(#paint38_linear)"/>
<path d="M150.304 49.4955L68.239 152.602Z" fill="url(#paint39_linear)"/>
<path d="M76.5202 -9.23177L-5.54541 93.8736L-3.98051 95.1196L78.0842 -7.98627L76.5202 -9.23177ZM-3.98051 95.1196L78.0842 -7.98627L76.5202 -9.23177L-5.54541 93.8736L-3.98051 95.1196Z" fill="url(#paint40_linear)"/>
<path d="M77.3022 -8.60897L-4.76291 94.4966Z" fill="url(#paint41_linear)"/>
<path d="M134.971 37.2921L52.9058 140.398L54.4707 141.644L136.535 38.5376L134.971 37.2921ZM54.4707 141.644L136.535 38.5376L134.971 37.2921L52.9058 140.398L54.4707 141.644Z" fill="url(#paint42_linear)"/>
<path d="M135.753 37.9149L53.6882 141.021Z" fill="url(#paint43_linear)"/>
<path d="M105.872 14.1301L23.8062 117.236L25.371 118.482L107.436 15.3756L105.872 14.1301ZM25.371 118.482L107.436 15.3756L105.872 14.1301L23.8062 117.236L25.371 118.482Z" fill="url(#paint44_linear)"/>
<path d="M106.654 14.7528L24.5886 117.859Z" fill="url(#paint45_linear)"/>
<path d="M164.322 60.654L82.2572 163.76L83.8222 165.006L165.887 61.8995L164.322 60.654ZM83.8222 165.006L165.887 61.8995L164.322 60.654L82.2572 163.76L83.8222 165.006Z" fill="url(#paint46_linear)"/>
<path d="M165.105 61.2767L83.0402 164.383Z" fill="url(#paint47_linear)"/>
</g>
<defs>
<linearGradient id="paint0_linear" x1="54.9657" y1="-144.15" x2="186.972" y2="-129.68" gradientUnits="userSpaceOnUse">
<stop stop-color="#FCBB03"/>
<stop offset="1" stop-color="#DF871B"/>
</linearGradient>
<linearGradient id="paint1_linear" x1="68.2696" y1="-28.1769" x2="68.2696" y2="165.006" gradientUnits="userSpaceOnUse">
<stop stop-color="#FCBB03"/>
<stop offset="1" stop-color="#DF871B"/>
</linearGradient>
<linearGradient id="paint2_linear" x1="68.2696" y1="-28.1769" x2="68.2696" y2="165.006" gradientUnits="userSpaceOnUse">
<stop stop-color="#FCBB03"/>
<stop offset="1" stop-color="#DF871B"/>
</linearGradient>
<linearGradient id="paint3_linear" x1="68.2696" y1="-28.1769" x2="68.2696" y2="165.006" gradientUnits="userSpaceOnUse">
<stop stop-color="#FCBB03"/>
<stop offset="1" stop-color="#DF871B"/>
</linearGradient>
<linearGradient id="paint4_linear" x1="68.2696" y1="-28.1769" x2="68.2696" y2="165.006" gradientUnits="userSpaceOnUse">
<stop stop-color="#FCBB03"/>
<stop offset="1" stop-color="#DF871B"/>
</linearGradient>
<linearGradient id="paint5_linear" x1="68.2696" y1="-28.1769" x2="68.2696" y2="165.006" gradientUnits="userSpaceOnUse">
<stop stop-color="#FCBB03"/>
<stop offset="1" stop-color="#DF871B"/>
</linearGradient>
<linearGradient id="paint6_linear" x1="68.2696" y1="-28.1769" x2="68.2696" y2="165.006" gradientUnits="userSpaceOnUse">
<stop stop-color="#FCBB03"/>
<stop offset="1" stop-color="#DF871B"/>
</linearGradient>
<linearGradient id="paint7_linear" x1="68.2696" y1="-28.1769" x2="68.2696" y2="165.006" gradientUnits="userSpaceOnUse">
<stop stop-color="#FCBB03"/>
<stop offset="1" stop-color="#DF871B"/>
</linearGradient>
<linearGradient id="paint8_linear" x1="68.2696" y1="-28.1769" x2="68.2696" y2="165.006" gradientUnits="userSpaceOnUse">
<stop stop-color="#FCBB03"/>
<stop offset="1" stop-color="#DF871B"/>
</linearGradient>
<linearGradient id="paint9_linear" x1="68.2696" y1="-28.1769" x2="68.2696" y2="165.006" gradientUnits="userSpaceOnUse">
<stop stop-color="#FCBB03"/>
<stop offset="1" stop-color="#DF871B"/>
</linearGradient>
<linearGradient id="paint10_linear" x1="68.2696" y1="-28.1769" x2="68.2696" y2="165.006" gradientUnits="userSpaceOnUse">
<stop stop-color="#FCBB03"/>
<stop offset="1" stop-color="#DF871B"/>
</linearGradient>
<linearGradient id="paint11_linear" x1="68.2696" y1="-28.1769" x2="68.2696" y2="165.006" gradientUnits="userSpaceOnUse">
<stop stop-color="#FCBB03"/>
<stop offset="1" stop-color="#DF871B"/>
</linearGradient>
<linearGradient id="paint12_linear" x1="68.2696" y1="-28.1769" x2="68.2696" y2="165.006" gradientUnits="userSpaceOnUse">
<stop stop-color="#FCBB03"/>
<stop offset="1" stop-color="#DF871B"/>
</linearGradient>
<linearGradient id="paint13_linear" x1="68.2696" y1="-28.1769" x2="68.2696" y2="165.006" gradientUnits="userSpaceOnUse">
<stop stop-color="#FCBB03"/>
<stop offset="1" stop-color="#DF871B"/>
</linearGradient>
<linearGradient id="paint14_linear" x1="68.2696" y1="-28.1769" x2="68.2696" y2="165.006" gradientUnits="userSpaceOnUse">
<stop stop-color="#FCBB03"/>
<stop offset="1" stop-color="#DF871B"/>
</linearGradient>
<linearGradient id="paint15_linear" x1="68.2696" y1="-28.1769" x2="68.2696" y2="165.006" gradientUnits="userSpaceOnUse">
<stop stop-color="#FCBB03"/>
<stop offset="1" stop-color="#DF871B"/>
</linearGradient>
<linearGradient id="paint16_linear" x1="68.2696" y1="-28.1769" x2="68.2696" y2="165.006" gradientUnits="userSpaceOnUse">
<stop stop-color="#FCBB03"/>
<stop offset="1" stop-color="#DF871B"/>
</linearGradient>
<linearGradient id="paint17_linear" x1="68.2696" y1="-28.1769" x2="68.2696" y2="165.006" gradientUnits="userSpaceOnUse">
<stop stop-color="#FCBB03"/>
<stop offset="1" stop-color="#DF871B"/>
</linearGradient>
<linearGradient id="paint18_linear" x1="68.2696" y1="-28.1769" x2="68.2696" y2="165.006" gradientUnits="userSpaceOnUse">
<stop stop-color="#FCBB03"/>
<stop offset="1" stop-color="#DF871B"/>
</linearGradient>
<linearGradient id="paint19_linear" x1="68.2696" y1="-28.1769" x2="68.2696" y2="165.006" gradientUnits="userSpaceOnUse">
<stop stop-color="#FCBB03"/>
<stop offset="1" stop-color="#DF871B"/>
</linearGradient>
<linearGradient id="paint20_linear" x1="68.2696" y1="-28.1769" x2="68.2696" y2="165.006" gradientUnits="userSpaceOnUse">
<stop stop-color="#FCBB03"/>
<stop offset="1" stop-color="#DF871B"/>
</linearGradient>
<linearGradient id="paint21_linear" x1="68.2696" y1="-28.1769" x2="68.2696" y2="165.006" gradientUnits="userSpaceOnUse">
<stop stop-color="#FCBB03"/>
<stop offset="1" stop-color="#DF871B"/>
</linearGradient>
<linearGradient id="paint22_linear" x1="68.2696" y1="-28.1769" x2="68.2696" y2="165.006" gradientUnits="userSpaceOnUse">
<stop stop-color="#FCBB03"/>
<stop offset="1" stop-color="#DF871B"/>
</linearGradient>
<linearGradient id="paint23_linear" x1="68.2696" y1="-28.1769" x2="68.2696" y2="165.006" gradientUnits="userSpaceOnUse">
<stop stop-color="#FCBB03"/>
<stop offset="1" stop-color="#DF871B"/>
</linearGradient>
<linearGradient id="paint24_linear" x1="68.2696" y1="-28.1769" x2="68.2696" y2="165.006" gradientUnits="userSpaceOnUse">
<stop stop-color="#FCBB03"/>
<stop offset="1" stop-color="#DF871B"/>
</linearGradient>
<linearGradient id="paint25_linear" x1="68.2696" y1="-28.1769" x2="68.2696" y2="165.006" gradientUnits="userSpaceOnUse">
<stop stop-color="#FCBB03"/>
<stop offset="1" stop-color="#DF871B"/>
</linearGradient>
<linearGradient id="paint26_linear" x1="68.2696" y1="-28.1769" x2="68.2696" y2="165.006" gradientUnits="userSpaceOnUse">
<stop stop-color="#FCBB03"/>
<stop offset="1" stop-color="#DF871B"/>
</linearGradient>
<linearGradient id="paint27_linear" x1="68.2696" y1="-28.1769" x2="68.2696" y2="165.006" gradientUnits="userSpaceOnUse">
<stop stop-color="#FCBB03"/>
<stop offset="1" stop-color="#DF871B"/>
</linearGradient>
<linearGradient id="paint28_linear" x1="68.2696" y1="-28.1769" x2="68.2696" y2="165.006" gradientUnits="userSpaceOnUse">
<stop stop-color="#FCBB03"/>
<stop offset="1" stop-color="#DF871B"/>
</linearGradient>
<linearGradient id="paint29_linear" x1="68.2696" y1="-28.1769" x2="68.2696" y2="165.006" gradientUnits="userSpaceOnUse">
<stop stop-color="#FCBB03"/>
<stop offset="1" stop-color="#DF871B"/>
</linearGradient>
<linearGradient id="paint30_linear" x1="68.2696" y1="-28.1769" x2="68.2696" y2="165.006" gradientUnits="userSpaceOnUse">
<stop stop-color="#FCBB03"/>
<stop offset="1" stop-color="#DF871B"/>
</linearGradient>
<linearGradient id="paint31_linear" x1="68.2696" y1="-28.1769" x2="68.2696" y2="165.006" gradientUnits="userSpaceOnUse">
<stop stop-color="#FCBB03"/>
<stop offset="1" stop-color="#DF871B"/>
</linearGradient>
<linearGradient id="paint32_linear" x1="68.2696" y1="-28.1769" x2="68.2696" y2="165.006" gradientUnits="userSpaceOnUse">
<stop stop-color="#FCBB03"/>
<stop offset="1" stop-color="#DF871B"/>
</linearGradient>
<linearGradient id="paint33_linear" x1="68.2696" y1="-28.1769" x2="68.2696" y2="165.006" gradientUnits="userSpaceOnUse">
<stop stop-color="#FCBB03"/>
<stop offset="1" stop-color="#DF871B"/>
</linearGradient>
<linearGradient id="paint34_linear" x1="68.2696" y1="-28.1769" x2="68.2696" y2="165.006" gradientUnits="userSpaceOnUse">
<stop stop-color="#FCBB03"/>
<stop offset="1" stop-color="#DF871B"/>
</linearGradient>
<linearGradient id="paint35_linear" x1="68.2696" y1="-28.1769" x2="68.2696" y2="165.006" gradientUnits="userSpaceOnUse">
<stop stop-color="#FCBB03"/>
<stop offset="1" stop-color="#DF871B"/>
</linearGradient>
<linearGradient id="paint36_linear" x1="68.2696" y1="-28.1769" x2="68.2696" y2="165.006" gradientUnits="userSpaceOnUse">
<stop stop-color="#FCBB03"/>
<stop offset="1" stop-color="#DF871B"/>
</linearGradient>
<linearGradient id="paint37_linear" x1="68.2696" y1="-28.1769" x2="68.2696" y2="165.006" gradientUnits="userSpaceOnUse">
<stop stop-color="#FCBB03"/>
<stop offset="1" stop-color="#DF871B"/>
</linearGradient>
<linearGradient id="paint38_linear" x1="68.2696" y1="-28.1769" x2="68.2696" y2="165.006" gradientUnits="userSpaceOnUse">
<stop stop-color="#FCBB03"/>
<stop offset="1" stop-color="#DF871B"/>
</linearGradient>
<linearGradient id="paint39_linear" x1="68.2696" y1="-28.1769" x2="68.2696" y2="165.006" gradientUnits="userSpaceOnUse">
<stop stop-color="#FCBB03"/>
<stop offset="1" stop-color="#DF871B"/>
</linearGradient>
<linearGradient id="paint40_linear" x1="68.2696" y1="-28.1769" x2="68.2696" y2="165.006" gradientUnits="userSpaceOnUse">
<stop stop-color="#FCBB03"/>
<stop offset="1" stop-color="#DF871B"/>
</linearGradient>
<linearGradient id="paint41_linear" x1="68.2696" y1="-28.1769" x2="68.2696" y2="165.006" gradientUnits="userSpaceOnUse">
<stop stop-color="#FCBB03"/>
<stop offset="1" stop-color="#DF871B"/>
</linearGradient>
<linearGradient id="paint42_linear" x1="68.2696" y1="-28.1769" x2="68.2696" y2="165.006" gradientUnits="userSpaceOnUse">
<stop stop-color="#FCBB03"/>
<stop offset="1" stop-color="#DF871B"/>
</linearGradient>
<linearGradient id="paint43_linear" x1="68.2696" y1="-28.1769" x2="68.2696" y2="165.006" gradientUnits="userSpaceOnUse">
<stop stop-color="#FCBB03"/>
<stop offset="1" stop-color="#DF871B"/>
</linearGradient>
<linearGradient id="paint44_linear" x1="68.2696" y1="-28.1769" x2="68.2696" y2="165.006" gradientUnits="userSpaceOnUse">
<stop stop-color="#FCBB03"/>
<stop offset="1" stop-color="#DF871B"/>
</linearGradient>
<linearGradient id="paint45_linear" x1="68.2696" y1="-28.1769" x2="68.2696" y2="165.006" gradientUnits="userSpaceOnUse">
<stop stop-color="#FCBB03"/>
<stop offset="1" stop-color="#DF871B"/>
</linearGradient>
<linearGradient id="paint46_linear" x1="68.2696" y1="-28.1769" x2="68.2696" y2="165.006" gradientUnits="userSpaceOnUse">
<stop stop-color="#FCBB03"/>
<stop offset="1" stop-color="#DF871B"/>
</linearGradient>
<linearGradient id="paint47_linear" x1="68.2696" y1="-28.1769" x2="68.2696" y2="165.006" gradientUnits="userSpaceOnUse">
<stop stop-color="#FCBB03"/>
<stop offset="1" stop-color="#DF871B"/>
</linearGradient>
</defs>
</svg>
