<svg width="112" height="105" viewBox="0 0 112 105" fill="none" xmlns="http://www.w3.org/2000/svg">
<g opacity="0.7">
<path opacity="0.8" fill-rule="evenodd" clip-rule="evenodd" d="M3.85401 6.48977C5.44912 6.48977 6.74221 5.19668 6.74221 3.60157C6.74221 2.00647 5.44912 0.713379 3.85401 0.713379C2.25891 0.713379 0.96582 2.00647 0.96582 3.60157C0.96582 5.19668 2.25891 6.48977 3.85401 6.48977ZM18.6304 6.48977C20.2255 6.48977 21.5186 5.19668 21.5186 3.60157C21.5186 2.00647 20.2255 0.713379 18.6304 0.713379C17.0353 0.713379 15.7422 2.00647 15.7422 3.60157C15.7422 5.19668 17.0353 6.48977 18.6304 6.48977ZM36.4907 3.60157C36.4907 5.19668 35.1977 6.48977 33.6026 6.48977C32.0074 6.48977 30.7144 5.19668 30.7144 3.60157C30.7144 2.00647 32.0074 0.713379 33.6026 0.713379C35.1977 0.713379 36.4907 2.00647 36.4907 3.60157ZM48.1831 6.48977C49.7782 6.48977 51.0713 5.19668 51.0713 3.60157C51.0713 2.00647 49.7782 0.713379 48.1831 0.713379C46.588 0.713379 45.2949 2.00647 45.2949 3.60157C45.2949 5.19668 46.588 6.48977 48.1831 6.48977ZM65.8477 3.60157C65.8477 5.19668 64.5546 6.48977 62.9595 6.48977C61.3644 6.48977 60.0713 5.19668 60.0713 3.60157C60.0713 2.00647 61.3644 0.713379 62.9595 0.713379C64.5546 0.713379 65.8477 2.00647 65.8477 3.60157ZM77.7358 6.48977C79.331 6.48977 80.624 5.19668 80.624 3.60157C80.624 2.00647 79.331 0.713379 77.7358 0.713379C76.1407 0.713379 74.8477 2.00647 74.8477 3.60157C74.8477 5.19668 76.1407 6.48977 77.7358 6.48977ZM95.4004 3.60157C95.4004 5.19668 94.1073 6.48977 92.5122 6.48977C90.9171 6.48977 89.624 5.19668 89.624 3.60157C89.624 2.00647 90.9171 0.713379 92.5122 0.713379C94.1073 0.713379 95.4004 2.00647 95.4004 3.60157ZM108.119 6.48977C109.714 6.48977 111.007 5.19668 111.007 3.60157C111.007 2.00647 109.714 0.713379 108.119 0.713379C106.524 0.713379 105.231 2.00647 105.231 3.60157C105.231 5.19668 106.524 6.48977 108.119 6.48977ZM6.74221 14.378C6.74221 15.9731 5.44912 17.2662 3.85401 17.2662C2.25891 17.2662 0.96582 15.9731 0.96582 14.378C0.96582 12.7829 2.25891 11.4898 3.85401 11.4898C5.44912 11.4898 6.74221 12.7829 6.74221 14.378ZM18.6304 17.2662C20.2255 17.2662 21.5186 15.9731 21.5186 14.378C21.5186 12.7829 20.2255 11.4898 18.6304 11.4898C17.0353 11.4898 15.7422 12.7829 15.7422 14.378C15.7422 15.9731 17.0353 17.2662 18.6304 17.2662ZM36.4907 14.378C36.4907 15.9731 35.1977 17.2662 33.6026 17.2662C32.0074 17.2662 30.7144 15.9731 30.7144 14.378C30.7144 12.7829 32.0074 11.4898 33.6026 11.4898C35.1977 11.4898 36.4907 12.7829 36.4907 14.378ZM48.1831 17.2662C49.7782 17.2662 51.0713 15.9731 51.0713 14.378C51.0713 12.7829 49.7782 11.4898 48.1831 11.4898C46.588 11.4898 45.2949 12.7829 45.2949 14.378C45.2949 15.9731 46.588 17.2662 48.1831 17.2662ZM65.8477 14.378C65.8477 15.9731 64.5546 17.2662 62.9595 17.2662C61.3644 17.2662 60.0713 15.9731 60.0713 14.378C60.0713 12.7829 61.3644 11.4898 62.9595 11.4898C64.5546 11.4898 65.8477 12.7829 65.8477 14.378ZM77.7358 17.2662C79.331 17.2662 80.624 15.9731 80.624 14.378C80.624 12.7829 79.331 11.4898 77.7358 11.4898C76.1407 11.4898 74.8477 12.7829 74.8477 14.378C74.8477 15.9731 76.1407 17.2662 77.7358 17.2662ZM95.4004 14.378C95.4004 15.9731 94.1073 17.2662 92.5122 17.2662C90.9171 17.2662 89.624 15.9731 89.624 14.378C89.624 12.7829 90.9171 11.4898 92.5122 11.4898C94.1073 11.4898 95.4004 12.7829 95.4004 14.378ZM108.119 17.2662C109.714 17.2662 111.007 15.9731 111.007 14.378C111.007 12.7829 109.714 11.4898 108.119 11.4898C106.524 11.4898 105.231 12.7829 105.231 14.378C105.231 15.9731 106.524 17.2662 108.119 17.2662ZM6.74221 25.1543C6.74221 26.7495 5.44912 28.0425 3.85401 28.0425C2.25891 28.0425 0.96582 26.7495 0.96582 25.1543C0.96582 23.5592 2.25891 22.2662 3.85401 22.2662C5.44912 22.2662 6.74221 23.5592 6.74221 25.1543ZM18.6304 28.0425C20.2255 28.0425 21.5186 26.7495 21.5186 25.1543C21.5186 23.5592 20.2255 22.2662 18.6304 22.2662C17.0353 22.2662 15.7422 23.5592 15.7422 25.1543C15.7422 26.7495 17.0353 28.0425 18.6304 28.0425ZM36.4907 25.1543C36.4907 26.7495 35.1977 28.0425 33.6026 28.0425C32.0074 28.0425 30.7144 26.7495 30.7144 25.1543C30.7144 23.5592 32.0074 22.2662 33.6026 22.2662C35.1977 22.2662 36.4907 23.5592 36.4907 25.1543ZM48.1831 28.0425C49.7782 28.0425 51.0713 26.7495 51.0713 25.1543C51.0713 23.5592 49.7782 22.2662 48.1831 22.2662C46.588 22.2662 45.2949 23.5592 45.2949 25.1543C45.2949 26.7495 46.588 28.0425 48.1831 28.0425ZM65.8477 25.1543C65.8477 26.7495 64.5546 28.0425 62.9595 28.0425C61.3644 28.0425 60.0713 26.7495 60.0713 25.1543C60.0713 23.5592 61.3644 22.2662 62.9595 22.2662C64.5546 22.2662 65.8477 23.5592 65.8477 25.1543ZM77.7358 28.0425C79.331 28.0425 80.624 26.7495 80.624 25.1543C80.624 23.5592 79.331 22.2662 77.7358 22.2662C76.1407 22.2662 74.8477 23.5592 74.8477 25.1543C74.8477 26.7495 76.1407 28.0425 77.7358 28.0425ZM95.4004 25.1543C95.4004 26.7495 94.1073 28.0425 92.5122 28.0425C90.9171 28.0425 89.624 26.7495 89.624 25.1543C89.624 23.5592 90.9171 22.2662 92.5122 22.2662C94.1073 22.2662 95.4004 23.5592 95.4004 25.1543ZM108.119 28.0425C109.714 28.0425 111.007 26.7495 111.007 25.1543C111.007 23.5592 109.714 22.2662 108.119 22.2662C106.524 22.2662 105.231 23.5592 105.231 25.1543C105.231 26.7495 106.524 28.0425 108.119 28.0425ZM6.74221 35.9307C6.74221 37.5258 5.44912 38.8189 3.85401 38.8189C2.25891 38.8189 0.96582 37.5258 0.96582 35.9307C0.96582 34.3356 2.25891 33.0425 3.85401 33.0425C5.44912 33.0425 6.74221 34.3356 6.74221 35.9307ZM18.6304 38.8189C20.2255 38.8189 21.5186 37.5258 21.5186 35.9307C21.5186 34.3356 20.2255 33.0425 18.6304 33.0425C17.0353 33.0425 15.7422 34.3356 15.7422 35.9307C15.7422 37.5258 17.0353 38.8189 18.6304 38.8189ZM36.4907 35.9307C36.4907 37.5258 35.1977 38.8189 33.6026 38.8189C32.0074 38.8189 30.7144 37.5258 30.7144 35.9307C30.7144 34.3356 32.0074 33.0425 33.6026 33.0425C35.1977 33.0425 36.4907 34.3356 36.4907 35.9307ZM48.1831 38.8189C49.7782 38.8189 51.0713 37.5258 51.0713 35.9307C51.0713 34.3356 49.7782 33.0425 48.1831 33.0425C46.588 33.0425 45.2949 34.3356 45.2949 35.9307C45.2949 37.5258 46.588 38.8189 48.1831 38.8189ZM65.8477 35.9307C65.8477 37.5258 64.5546 38.8189 62.9595 38.8189C61.3644 38.8189 60.0713 37.5258 60.0713 35.9307C60.0713 34.3356 61.3644 33.0425 62.9595 33.0425C64.5546 33.0425 65.8477 34.3356 65.8477 35.9307ZM77.7358 38.8189C79.331 38.8189 80.624 37.5258 80.624 35.9307C80.624 34.3356 79.331 33.0425 77.7358 33.0425C76.1407 33.0425 74.8477 34.3356 74.8477 35.9307C74.8477 37.5258 76.1407 38.8189 77.7358 38.8189ZM95.4004 35.9307C95.4004 37.5258 94.1073 38.8189 92.5122 38.8189C90.9171 38.8189 89.624 37.5258 89.624 35.9307C89.624 34.3356 90.9171 33.0425 92.5122 33.0425C94.1073 33.0425 95.4004 34.3356 95.4004 35.9307ZM108.119 38.8189C109.714 38.8189 111.007 37.5258 111.007 35.9307C111.007 34.3356 109.714 33.0425 108.119 33.0425C106.524 33.0425 105.231 34.3356 105.231 35.9307C105.231 37.5258 106.524 38.8189 108.119 38.8189ZM6.74221 46.7071C6.74221 48.3022 5.44912 49.5953 3.85401 49.5953C2.25891 49.5953 0.96582 48.3022 0.96582 46.7071C0.96582 45.112 2.25891 43.8189 3.85401 43.8189C5.44912 43.8189 6.74221 45.112 6.74221 46.7071ZM18.6304 49.5953C20.2255 49.5953 21.5186 48.3022 21.5186 46.7071C21.5186 45.112 20.2255 43.8189 18.6304 43.8189C17.0353 43.8189 15.7422 45.112 15.7422 46.7071C15.7422 48.3022 17.0353 49.5953 18.6304 49.5953ZM36.4907 46.7071C36.4907 48.3022 35.1977 49.5953 33.6026 49.5953C32.0074 49.5953 30.7144 48.3022 30.7144 46.7071C30.7144 45.112 32.0074 43.8189 33.6026 43.8189C35.1977 43.8189 36.4907 45.112 36.4907 46.7071ZM48.1831 49.5953C49.7782 49.5953 51.0713 48.3022 51.0713 46.7071C51.0713 45.112 49.7782 43.8189 48.1831 43.8189C46.588 43.8189 45.2949 45.112 45.2949 46.7071C45.2949 48.3022 46.588 49.5953 48.1831 49.5953ZM65.8477 46.7071C65.8477 48.3022 64.5546 49.5953 62.9595 49.5953C61.3644 49.5953 60.0713 48.3022 60.0713 46.7071C60.0713 45.112 61.3644 43.8189 62.9595 43.8189C64.5546 43.8189 65.8477 45.112 65.8477 46.7071ZM77.7358 49.5953C79.331 49.5953 80.624 48.3022 80.624 46.7071C80.624 45.112 79.331 43.8189 77.7358 43.8189C76.1407 43.8189 74.8477 45.112 74.8477 46.7071C74.8477 48.3022 76.1407 49.5953 77.7358 49.5953ZM95.4004 46.7071C95.4004 48.3022 94.1073 49.5953 92.5122 49.5953C90.9171 49.5953 89.624 48.3022 89.624 46.7071C89.624 45.112 90.9171 43.8189 92.5122 43.8189C94.1073 43.8189 95.4004 45.112 95.4004 46.7071ZM108.119 49.5953C109.714 49.5953 111.007 48.3022 111.007 46.7071C111.007 45.112 109.714 43.8189 108.119 43.8189C106.524 43.8189 105.231 45.112 105.231 46.7071C105.231 48.3022 106.524 49.5953 108.119 49.5953ZM6.74221 57.4835C6.74221 59.0786 5.44912 60.3716 3.85401 60.3716C2.25891 60.3716 0.96582 59.0786 0.96582 57.4835C0.96582 55.8883 2.25891 54.5953 3.85401 54.5953C5.44912 54.5953 6.74221 55.8883 6.74221 57.4835ZM18.6304 60.3716C20.2255 60.3716 21.5186 59.0786 21.5186 57.4835C21.5186 55.8883 20.2255 54.5953 18.6304 54.5953C17.0353 54.5953 15.7422 55.8883 15.7422 57.4835C15.7422 59.0786 17.0353 60.3716 18.6304 60.3716ZM36.4907 57.4835C36.4907 59.0786 35.1977 60.3716 33.6026 60.3716C32.0074 60.3716 30.7144 59.0786 30.7144 57.4835C30.7144 55.8883 32.0074 54.5953 33.6026 54.5953C35.1977 54.5953 36.4907 55.8883 36.4907 57.4835ZM48.1831 60.3716C49.7782 60.3716 51.0713 59.0786 51.0713 57.4835C51.0713 55.8883 49.7782 54.5953 48.1831 54.5953C46.588 54.5953 45.2949 55.8883 45.2949 57.4835C45.2949 59.0786 46.588 60.3716 48.1831 60.3716ZM65.8477 57.4835C65.8477 59.0786 64.5546 60.3716 62.9595 60.3716C61.3644 60.3716 60.0713 59.0786 60.0713 57.4835C60.0713 55.8883 61.3644 54.5953 62.9595 54.5953C64.5546 54.5953 65.8477 55.8883 65.8477 57.4835ZM77.7358 60.3716C79.331 60.3716 80.624 59.0786 80.624 57.4835C80.624 55.8883 79.331 54.5953 77.7358 54.5953C76.1407 54.5953 74.8477 55.8883 74.8477 57.4835C74.8477 59.0786 76.1407 60.3716 77.7358 60.3716ZM95.4004 57.4835C95.4004 59.0786 94.1073 60.3716 92.5122 60.3716C90.9171 60.3716 89.624 59.0786 89.624 57.4835C89.624 55.8883 90.9171 54.5953 92.5122 54.5953C94.1073 54.5953 95.4004 55.8883 95.4004 57.4835ZM108.119 60.3716C109.714 60.3716 111.007 59.0786 111.007 57.4835C111.007 55.8883 109.714 54.5953 108.119 54.5953C106.524 54.5953 105.231 55.8883 105.231 57.4835C105.231 59.0786 106.524 60.3716 108.119 60.3716ZM6.74221 68.2598C6.74221 69.8549 5.44912 71.148 3.85401 71.148C2.25891 71.148 0.96582 69.8549 0.96582 68.2598C0.96582 66.6647 2.25891 65.3716 3.85401 65.3716C5.44912 65.3716 6.74221 66.6647 6.74221 68.2598ZM18.6304 71.148C20.2255 71.148 21.5186 69.8549 21.5186 68.2598C21.5186 66.6647 20.2255 65.3716 18.6304 65.3716C17.0353 65.3716 15.7422 66.6647 15.7422 68.2598C15.7422 69.8549 17.0353 71.148 18.6304 71.148ZM36.4907 68.2598C36.4907 69.8549 35.1977 71.148 33.6026 71.148C32.0074 71.148 30.7144 69.8549 30.7144 68.2598C30.7144 66.6647 32.0074 65.3716 33.6026 65.3716C35.1977 65.3716 36.4907 66.6647 36.4907 68.2598ZM48.1831 71.148C49.7782 71.148 51.0713 69.8549 51.0713 68.2598C51.0713 66.6647 49.7782 65.3716 48.1831 65.3716C46.588 65.3716 45.2949 66.6647 45.2949 68.2598C45.2949 69.8549 46.588 71.148 48.1831 71.148ZM65.8477 68.2598C65.8477 69.8549 64.5546 71.148 62.9595 71.148C61.3644 71.148 60.0713 69.8549 60.0713 68.2598C60.0713 66.6647 61.3644 65.3716 62.9595 65.3716C64.5546 65.3716 65.8477 66.6647 65.8477 68.2598ZM77.7358 71.148C79.331 71.148 80.624 69.8549 80.624 68.2598C80.624 66.6647 79.331 65.3716 77.7358 65.3716C76.1407 65.3716 74.8477 66.6647 74.8477 68.2598C74.8477 69.8549 76.1407 71.148 77.7358 71.148ZM95.4004 68.2598C95.4004 69.8549 94.1073 71.148 92.5122 71.148C90.9171 71.148 89.624 69.8549 89.624 68.2598C89.624 66.6647 90.9171 65.3716 92.5122 65.3716C94.1073 65.3716 95.4004 66.6647 95.4004 68.2598ZM108.119 71.148C109.714 71.148 111.007 69.8549 111.007 68.2598C111.007 66.6647 109.714 65.3716 108.119 65.3716C106.524 65.3716 105.231 66.6647 105.231 68.2598C105.231 69.8549 106.524 71.148 108.119 71.148ZM6.74221 79.0362C6.74221 80.6313 5.44912 81.9244 3.85401 81.9244C2.25891 81.9244 0.96582 80.6313 0.96582 79.0362C0.96582 77.4411 2.25891 76.148 3.85401 76.148C5.44912 76.148 6.74221 77.4411 6.74221 79.0362ZM18.6304 81.9244C20.2255 81.9244 21.5186 80.6313 21.5186 79.0362C21.5186 77.4411 20.2255 76.148 18.6304 76.148C17.0353 76.148 15.7422 77.4411 15.7422 79.0362C15.7422 80.6313 17.0353 81.9244 18.6304 81.9244ZM36.4907 79.0362C36.4907 80.6313 35.1977 81.9244 33.6026 81.9244C32.0074 81.9244 30.7144 80.6313 30.7144 79.0362C30.7144 77.4411 32.0074 76.148 33.6026 76.148C35.1977 76.148 36.4907 77.4411 36.4907 79.0362ZM48.1831 81.9244C49.7782 81.9244 51.0713 80.6313 51.0713 79.0362C51.0713 77.4411 49.7782 76.148 48.1831 76.148C46.588 76.148 45.2949 77.4411 45.2949 79.0362C45.2949 80.6313 46.588 81.9244 48.1831 81.9244ZM65.8477 79.0362C65.8477 80.6313 64.5546 81.9244 62.9595 81.9244C61.3644 81.9244 60.0713 80.6313 60.0713 79.0362C60.0713 77.4411 61.3644 76.148 62.9595 76.148C64.5546 76.148 65.8477 77.4411 65.8477 79.0362ZM77.7358 81.9244C79.331 81.9244 80.624 80.6313 80.624 79.0362C80.624 77.4411 79.331 76.148 77.7358 76.148C76.1407 76.148 74.8477 77.4411 74.8477 79.0362C74.8477 80.6313 76.1407 81.9244 77.7358 81.9244ZM95.4004 79.0362C95.4004 80.6313 94.1073 81.9244 92.5122 81.9244C90.9171 81.9244 89.624 80.6313 89.624 79.0362C89.624 77.4411 90.9171 76.148 92.5122 76.148C94.1073 76.148 95.4004 77.4411 95.4004 79.0362ZM108.119 81.9244C109.714 81.9244 111.007 80.6313 111.007 79.0362C111.007 77.4411 109.714 76.148 108.119 76.148C106.524 76.148 105.231 77.4411 105.231 79.0362C105.231 80.6313 106.524 81.9244 108.119 81.9244ZM6.74221 89.8125C6.74221 91.4077 5.44912 92.7007 3.85401 92.7007C2.25891 92.7007 0.96582 91.4077 0.96582 89.8125C0.96582 88.2174 2.25891 86.9244 3.85401 86.9244C5.44912 86.9244 6.74221 88.2174 6.74221 89.8125ZM18.6304 92.7007C20.2255 92.7007 21.5186 91.4077 21.5186 89.8125C21.5186 88.2174 20.2255 86.9244 18.6304 86.9244C17.0353 86.9244 15.7422 88.2174 15.7422 89.8125C15.7422 91.4077 17.0353 92.7007 18.6304 92.7007ZM36.4907 89.8125C36.4907 91.4077 35.1977 92.7007 33.6026 92.7007C32.0074 92.7007 30.7144 91.4077 30.7144 89.8125C30.7144 88.2174 32.0074 86.9244 33.6026 86.9244C35.1977 86.9244 36.4907 88.2174 36.4907 89.8125ZM48.1831 92.7007C49.7782 92.7007 51.0713 91.4077 51.0713 89.8125C51.0713 88.2174 49.7782 86.9244 48.1831 86.9244C46.588 86.9244 45.2949 88.2174 45.2949 89.8125C45.2949 91.4077 46.588 92.7007 48.1831 92.7007ZM65.8477 89.8125C65.8477 91.4077 64.5546 92.7007 62.9595 92.7007C61.3644 92.7007 60.0713 91.4077 60.0713 89.8125C60.0713 88.2174 61.3644 86.9244 62.9595 86.9244C64.5546 86.9244 65.8477 88.2174 65.8477 89.8125ZM77.7358 92.7007C79.331 92.7007 80.624 91.4077 80.624 89.8125C80.624 88.2174 79.331 86.9244 77.7358 86.9244C76.1407 86.9244 74.8477 88.2174 74.8477 89.8125C74.8477 91.4077 76.1407 92.7007 77.7358 92.7007ZM95.4004 89.8125C95.4004 91.4077 94.1073 92.7007 92.5122 92.7007C90.9171 92.7007 89.624 91.4077 89.624 89.8125C89.624 88.2174 90.9171 86.9244 92.5122 86.9244C94.1073 86.9244 95.4004 88.2174 95.4004 89.8125ZM108.119 92.7007C109.714 92.7007 111.007 91.4077 111.007 89.8125C111.007 88.2174 109.714 86.9244 108.119 86.9244C106.524 86.9244 105.231 88.2174 105.231 89.8125C105.231 91.4077 106.524 92.7007 108.119 92.7007ZM6.74221 100.589C6.74221 102.184 5.44912 103.477 3.85401 103.477C2.25891 103.477 0.96582 102.184 0.96582 100.589C0.96582 98.9938 2.25891 97.7007 3.85401 97.7007C5.44912 97.7007 6.74221 98.9938 6.74221 100.589ZM18.6304 103.477C20.2255 103.477 21.5186 102.184 21.5186 100.589C21.5186 98.9938 20.2255 97.7007 18.6304 97.7007C17.0353 97.7007 15.7422 98.9938 15.7422 100.589C15.7422 102.184 17.0353 103.477 18.6304 103.477ZM36.4907 100.589C36.4907 102.184 35.1977 103.477 33.6026 103.477C32.0074 103.477 30.7144 102.184 30.7144 100.589C30.7144 98.9938 32.0074 97.7007 33.6026 97.7007C35.1977 97.7007 36.4907 98.9938 36.4907 100.589ZM48.1831 103.477C49.7782 103.477 51.0713 102.184 51.0713 100.589C51.0713 98.9938 49.7782 97.7007 48.1831 97.7007C46.588 97.7007 45.2949 98.9938 45.2949 100.589C45.2949 102.184 46.588 103.477 48.1831 103.477ZM65.8477 100.589C65.8477 102.184 64.5546 103.477 62.9595 103.477C61.3644 103.477 60.0713 102.184 60.0713 100.589C60.0713 98.9938 61.3644 97.7007 62.9595 97.7007C64.5546 97.7007 65.8477 98.9938 65.8477 100.589ZM77.7358 103.477C79.331 103.477 80.624 102.184 80.624 100.589C80.624 98.9938 79.331 97.7007 77.7358 97.7007C76.1407 97.7007 74.8477 98.9938 74.8477 100.589C74.8477 102.184 76.1407 103.477 77.7358 103.477ZM95.4004 100.589C95.4004 102.184 94.1073 103.477 92.5122 103.477C90.9171 103.477 89.624 102.184 89.624 100.589C89.624 98.9938 90.9171 97.7007 92.5122 97.7007C94.1073 97.7007 95.4004 98.9938 95.4004 100.589ZM108.119 103.477C109.714 103.477 111.007 102.184 111.007 100.589C111.007 98.9938 109.714 97.7007 108.119 97.7007C106.524 97.7007 105.231 98.9938 105.231 100.589C105.231 102.184 106.524 103.477 108.119 103.477Z" fill="url(#paint0_linear)"/>
</g>
<defs>
<linearGradient id="paint0_linear" x1="45.5083" y1="-110.397" x2="153.701" y2="-97.6975" gradientUnits="userSpaceOnUse">
<stop stop-color="#FCBB03"/>
<stop offset="0.9875" stop-color="#DF871B"/>
</linearGradient>
</defs>
</svg>
