<svg width="23" height="30" viewBox="0 0 23 30" fill="none" xmlns="http://www.w3.org/2000/svg">
<path d="M12.5412 9.97382C11.3012 9.97382 10.2879 8.94715 10.2879 7.70715C10.2879 7.10953 10.5253 6.53639 10.9479 6.11381C11.3705 5.69122 11.9436 5.45382 12.5412 5.45382C13.7946 5.45382 14.8079 6.46715 14.8079 7.70715C14.8079 8.94715 13.7946 9.97382 12.5412 9.97382ZM8.48789 25.6538L0.581224 24.0804L1.03456 21.8138L6.56789 22.9471L8.36789 13.8004L6.34122 14.6004V18.4138H4.08789V13.1338L9.95456 10.6404L10.8479 10.5338C11.6479 10.5338 12.3146 10.9871 12.7546 11.6671L13.9012 13.4671C14.8079 15.0804 16.6079 16.1738 18.7546 16.1738V18.4138C16.2746 18.4138 14.0079 17.3071 12.5412 15.6138L11.8746 19.0004L14.2346 21.2538V29.7471H11.9812V22.9471L9.60789 20.6938L8.48789 25.6538ZM22.7546 29.7471H20.0879V3.08049H2.75456V20.5604L0.0878906 20.0004V0.413818H22.7546V29.7471ZM2.75456 29.7471H0.0878906V25.4538L2.75456 26.0138V29.7471Z" fill="url(#paint0_linear)"/>
<defs>
<linearGradient id="paint0_linear" x1="0.0878903" y1="2.94764" x2="24.7544" y2="3.50655" gradientUnits="userSpaceOnUse">
<stop offset="0.0001" stop-color="#FCBB03"/>
<stop offset="1" stop-color="#DF871B"/>
</linearGradient>
</defs>
</svg>
