<svg width="31" height="29" viewBox="0 0 31 29" fill="none" xmlns="http://www.w3.org/2000/svg">
<path d="M30.2747 14.0163L27.0214 10.2963L27.4747 5.37633L22.6614 4.283L20.1414 0.0296631L15.6081 1.97633L11.0747 0.0296631L8.55474 4.283L3.74141 5.363L4.19474 10.2963L0.941406 14.0163L4.19474 17.7363L3.74141 22.6696L8.55474 23.763L11.0747 28.0296L15.6081 26.0696L20.1414 28.0163L22.6614 23.763L27.4747 22.6696L27.0214 17.7496L30.2747 14.0163ZM25.0081 15.9896L24.2614 16.8563L24.3681 17.9896L24.6081 20.5896L22.0747 21.163L20.9547 21.4163L20.3681 22.403L19.0481 24.643L16.6747 23.6163L15.6081 23.163L14.5547 23.6163L12.1814 24.643L10.8614 22.4163L10.2747 21.4296L9.15474 21.1763L6.62141 20.603L6.86141 17.9896L6.96807 16.8563L6.22141 15.9896L4.50141 14.0296L6.22141 12.0563L6.96807 11.1896L6.84807 10.043L6.60807 7.45633L9.14141 6.883L10.2614 6.62966L10.8481 5.643L12.1681 3.403L14.5414 4.42966L15.6081 4.883L16.6614 4.42966L19.0347 3.403L20.3547 5.643L20.9414 6.62966L22.0614 6.883L24.5947 7.45633L24.3547 10.0563L24.2481 11.1896L24.9947 12.0563L26.7147 14.0163L25.0081 15.9896Z" fill="url(#paint0_linear)"/>
<path d="M13.0613 16.3631L9.96796 13.2564L7.99463 15.2431L13.0613 20.3231L22.848 10.5097L20.8746 8.52307L13.0613 16.3631Z" fill="url(#paint1_linear)"/>
<defs>
<linearGradient id="paint0_linear" x1="0.941406" y1="2.44831" x2="32.849" y2="3.4285" gradientUnits="userSpaceOnUse">
<stop offset="0.0001" stop-color="#FCBB03"/>
<stop offset="1" stop-color="#DF871B"/>
</linearGradient>
<linearGradient id="paint1_linear" x1="7.99463" y1="9.54236" x2="24.1447" y2="10.1385" gradientUnits="userSpaceOnUse">
<stop offset="0.0001" stop-color="#FCBB03"/>
<stop offset="1" stop-color="#FC8C4A"/>
<stop offset="1" stop-color="#DF871B"/>
</linearGradient>
</defs>
</svg>
