<svg width="220" height="130" viewBox="0 0 220 130" fill="none" xmlns="http://www.w3.org/2000/svg">
<path d="M0.759521 20.7279C0.759521 9.6822 9.71383 0.727905 20.7595 0.727905H199.473C210.519 0.727905 219.473 9.68221 219.473 20.7279V109.837C219.473 120.883 210.519 129.837 199.473 129.837H20.7595C9.7138 129.837 0.759521 120.883 0.759521 109.837V20.7279Z" fill="#222222"/>
<path d="M54.3921 69.3498L54.7071 64.9398H64.1221V60.4248H50.2271L49.2471 74.0398H56.6671C59.0121 74.0398 60.4471 75.3698 60.4471 77.3648C60.4471 79.4298 59.0121 80.6898 56.5271 80.6898C54.1821 80.6898 52.7121 79.7098 52.1171 77.7498L47.9871 80.1648C49.3521 83.6298 52.5721 85.4148 56.5271 85.4148C58.9771 85.4148 61.0421 84.7148 62.7221 83.2798C64.4371 81.8448 65.2771 79.8848 65.2771 77.3648C65.2771 74.8448 64.4721 72.8848 62.8621 71.4848C61.2521 70.0498 59.2571 69.3498 56.9121 69.3498H54.3921Z" fill="url(#paint0_linear)"/>
<path d="M76.9017 85.4148C79.9817 85.4148 82.3967 84.2598 84.1117 81.9498C85.8267 79.6048 86.7017 76.5248 86.7017 72.6748C86.7017 68.8248 85.8267 65.7448 84.1117 63.4348C82.3967 61.0898 79.9817 59.9348 76.9017 59.9348C73.8567 59.9348 71.4417 61.0898 69.6917 63.4348C67.9767 65.7448 67.1017 68.8248 67.1017 72.6748C67.1017 76.5248 67.9767 79.6048 69.6917 81.9498C71.4417 84.2598 73.8567 85.4148 76.9017 85.4148ZM81.9067 72.6748C81.9067 77.8548 80.1567 80.6898 76.9017 80.6898C73.6467 80.6898 71.9317 77.8898 71.9317 72.6748C71.9317 67.4598 73.6467 64.6248 76.9017 64.6248C80.1567 64.6248 81.9067 67.4598 81.9067 72.6748Z" fill="url(#paint1_linear)"/>
<path d="M89.978 80.0948L88.578 89.8248H92.253L94.878 80.0948H89.978Z" fill="url(#paint2_linear)"/>
<path d="M106.57 85.4148C109.65 85.4148 112.065 84.2598 113.78 81.9498C115.495 79.6048 116.37 76.5248 116.37 72.6748C116.37 68.8248 115.495 65.7448 113.78 63.4348C112.065 61.0898 109.65 59.9348 106.57 59.9348C103.525 59.9348 101.11 61.0898 99.3597 63.4348C97.6447 65.7448 96.7697 68.8248 96.7697 72.6748C96.7697 76.5248 97.6447 79.6048 99.3597 81.9498C101.11 84.2598 103.525 85.4148 106.57 85.4148ZM111.575 72.6748C111.575 77.8548 109.825 80.6898 106.57 80.6898C103.315 80.6898 101.6 77.8898 101.6 72.6748C101.6 67.4598 103.315 64.6248 106.57 64.6248C109.825 64.6248 111.575 67.4598 111.575 72.6748Z" fill="url(#paint3_linear)"/>
<path d="M128.616 85.4148C131.696 85.4148 134.111 84.2598 135.826 81.9498C137.541 79.6048 138.416 76.5248 138.416 72.6748C138.416 68.8248 137.541 65.7448 135.826 63.4348C134.111 61.0898 131.696 59.9348 128.616 59.9348C125.571 59.9348 123.156 61.0898 121.406 63.4348C119.691 65.7448 118.816 68.8248 118.816 72.6748C118.816 76.5248 119.691 79.6048 121.406 81.9498C123.156 84.2598 125.571 85.4148 128.616 85.4148ZM133.621 72.6748C133.621 77.8548 131.871 80.6898 128.616 80.6898C125.361 80.6898 123.646 77.8898 123.646 72.6748C123.646 67.4598 125.361 64.6248 128.616 64.6248C131.871 64.6248 133.621 67.4598 133.621 72.6748Z" fill="url(#paint4_linear)"/>
<path d="M150.661 85.4148C153.741 85.4148 156.156 84.2598 157.871 81.9498C159.586 79.6048 160.461 76.5248 160.461 72.6748C160.461 68.8248 159.586 65.7448 157.871 63.4348C156.156 61.0898 153.741 59.9348 150.661 59.9348C147.616 59.9348 145.201 61.0898 143.451 63.4348C141.736 65.7448 140.861 68.8248 140.861 72.6748C140.861 76.5248 141.736 79.6048 143.451 81.9498C145.201 84.2598 147.616 85.4148 150.661 85.4148ZM155.666 72.6748C155.666 77.8548 153.916 80.6898 150.661 80.6898C147.406 80.6898 145.691 77.8898 145.691 72.6748C145.691 67.4598 147.406 64.6248 150.661 64.6248C153.916 64.6248 155.666 67.4598 155.666 72.6748Z" fill="url(#paint5_linear)"/>
<path d="M173.512 70.5398V64.7998H169.277V70.5398H163.537V74.7748H169.277V80.5498H173.512V74.7748H179.287V70.5398H173.512Z" fill="url(#paint6_linear)"/>
<path d="M126.76 25.4797L111.404 20.762C110.568 20.5049 109.665 20.5049 108.829 20.762L93.4731 25.4797C92.1773 25.8776 92.1773 27.5913 93.4731 27.9893L96.1501 28.8117C95.5627 29.5378 95.2016 30.4235 95.1658 31.3935C94.6357 31.6973 94.2625 32.2456 94.2625 32.9001C94.2625 33.4936 94.5752 33.9929 95.0255 34.3121L93.6201 40.6361C93.4979 41.186 93.9162 41.7079 94.4794 41.7079H97.5681C98.1318 41.7079 98.5502 41.186 98.428 40.6361L97.0226 34.3121C97.4729 33.9929 97.7856 33.4936 97.7856 32.9001C97.7856 32.2632 97.4294 31.7304 96.9235 31.421C96.9654 30.5942 97.3881 29.8631 98.0625 29.3996L108.828 32.7075C109.327 32.8605 110.284 33.0515 111.404 32.7075L126.76 27.9899C128.056 27.5913 128.056 25.8782 126.76 25.4797V25.4797ZM111.921 34.3914C110.351 34.8736 109.013 34.6072 108.311 34.3914L100.328 31.939L99.5471 38.1848C99.5471 40.1307 104.279 41.7079 110.116 41.7079C115.954 41.7079 120.686 40.1307 120.686 38.1848L119.905 31.9385L111.921 34.3914V34.3914Z" fill="white"/>
<path d="M60.7434 107.107C61.7514 107.107 62.5634 106.855 63.1934 106.351C63.8234 105.833 64.1314 105.147 64.1314 104.293C64.1314 103.677 63.9914 103.173 63.6414 102.823C63.4034 102.543 63.2774 102.389 62.8854 102.179C62.5074 101.969 62.3954 101.899 61.9054 101.717C61.6674 101.619 61.4994 101.563 61.3874 101.521L60.8134 101.339C60.0574 101.101 59.5254 100.863 59.2174 100.639C58.9094 100.415 58.7554 100.093 58.7554 99.6589C58.7554 98.7629 59.4694 98.2029 60.5334 98.2029C61.5974 98.2029 62.3394 98.7069 62.7594 99.7149L63.8514 99.0849C63.2774 97.7969 62.0874 96.9429 60.5334 96.9429C59.6794 96.9429 58.9514 97.1949 58.3494 97.6989C57.7474 98.1889 57.4534 98.8609 57.4534 99.7149C57.4534 100.429 57.7474 101.003 58.0694 101.353C58.2234 101.521 58.4614 101.689 58.7834 101.857C59.1054 102.011 59.3854 102.137 59.5954 102.221L60.5334 102.529C61.3594 102.795 61.9614 103.033 62.3114 103.271C62.6614 103.509 62.8434 103.859 62.8434 104.321C62.8434 105.231 62.1154 105.833 60.7714 105.833C59.4134 105.833 58.5314 105.245 58.1534 104.055L57.0334 104.699C57.5514 106.197 58.9094 107.107 60.7434 107.107Z" fill="white"/>
<path d="M69.1501 99.9249H67.2881V97.9649L66.0701 98.3289V99.9249H64.6841V101.101H66.0701V104.895C66.0701 106.631 67.0221 107.205 69.1501 106.925V105.833C67.9041 105.889 67.2881 105.973 67.2881 104.895V101.101H69.1501V99.9249Z" fill="white"/>
<path d="M75.4631 103.635C75.4631 105.203 74.6511 105.945 73.4331 105.945C72.3551 105.945 71.6971 105.287 71.6971 104.153V99.9249H70.4791V104.223C70.4791 106.001 71.5571 107.107 73.1951 107.107C74.2171 107.107 74.9731 106.715 75.4631 105.917V106.925H76.6811V99.9249H75.4631V103.635Z" fill="white"/>
<path d="M84.3315 101.129C83.7295 100.205 82.8475 99.7429 81.6855 99.7429C80.7055 99.7429 79.8655 100.107 79.1795 100.821C78.4935 101.535 78.1435 102.403 78.1435 103.425C78.1435 104.447 78.4935 105.329 79.1795 106.043C79.8655 106.757 80.7055 107.107 81.6855 107.107C82.8475 107.107 83.7295 106.645 84.3315 105.721V106.925H85.5495V97.1249H84.3315V101.129ZM81.8395 105.931C81.1395 105.931 80.5515 105.693 80.0755 105.217C79.5995 104.727 79.3615 104.139 79.3615 103.425C79.3615 102.711 79.5995 102.123 80.0755 101.647C80.5515 101.157 81.1395 100.919 81.8395 100.919C82.5535 100.919 83.1415 101.157 83.6175 101.647C84.0935 102.123 84.3315 102.711 84.3315 103.425C84.3315 104.139 84.0935 104.727 83.6175 105.217C83.1415 105.693 82.5535 105.931 81.8395 105.931Z" fill="white"/>
<path d="M94.1149 103.985C94.1429 103.803 94.1569 103.621 94.1569 103.439C94.1569 102.417 93.8349 101.549 93.1769 100.835C92.5329 100.107 91.6929 99.7429 90.6709 99.7429C89.5929 99.7429 88.7109 100.093 88.0249 100.793C87.3389 101.493 87.0029 102.375 87.0029 103.425C87.0029 104.489 87.3529 105.371 88.0389 106.071C88.7389 106.757 89.6489 107.107 90.7549 107.107C92.1269 107.107 93.1489 106.575 93.8349 105.525L92.7989 104.937C92.3789 105.623 91.7069 105.959 90.7829 105.959C89.4529 105.959 88.4869 105.231 88.2489 103.985H94.1149ZM90.6709 100.891C91.7909 100.891 92.7149 101.591 92.9249 102.921H88.2489C88.4589 101.689 89.3689 100.891 90.6709 100.891Z" fill="white"/>
<path d="M99.043 99.7429C98.021 99.7429 97.265 100.135 96.775 100.933V99.9249H95.557V106.925H96.775V103.215C96.775 101.647 97.587 100.905 98.805 100.905C99.883 100.905 100.541 101.563 100.541 102.697V106.925H101.759V102.627C101.759 100.849 100.681 99.7429 99.043 99.7429Z" fill="white"/>
<path d="M107.267 99.9249H105.405V97.9649L104.187 98.3289V99.9249H102.801V101.101H104.187V104.895C104.187 106.631 105.139 107.205 107.267 106.925V105.833C106.021 105.889 105.405 105.973 105.405 104.895V101.101H107.267V99.9249Z" fill="white"/>
<path d="M109.418 101.815C109.418 101.213 109.978 100.877 110.664 100.877C111.406 100.877 111.91 101.171 112.162 101.773L113.184 101.199C112.736 100.289 111.798 99.7429 110.664 99.7429C109.95 99.7429 109.362 99.9389 108.886 100.331C108.424 100.723 108.186 101.227 108.186 101.829C108.186 103.313 109.614 103.677 110.72 103.971C111.49 104.153 112.106 104.461 112.106 105.007C112.106 105.665 111.518 105.959 110.72 105.959C109.866 105.959 109.208 105.539 108.984 104.867L107.934 105.469C108.34 106.463 109.362 107.107 110.72 107.107C111.49 107.107 112.106 106.911 112.596 106.533C113.086 106.155 113.338 105.637 113.338 105.007C113.352 103.509 111.896 103.103 110.804 102.865C110.034 102.655 109.418 102.361 109.418 101.815Z" fill="white"/>
<path d="M122.088 99.9249H120.226V97.9649L119.008 98.3289V99.9249H117.622V101.101H119.008V104.895C119.008 106.631 119.96 107.205 122.088 106.925V105.833C120.842 105.889 120.226 105.973 120.226 104.895V101.101H122.088V99.9249Z" fill="white"/>
<path d="M124.789 99.9249H123.571V106.925H124.789V103.215C124.789 102.445 124.999 101.899 125.433 101.549C125.867 101.199 126.371 101.045 126.973 101.073V99.7989C125.923 99.7989 125.195 100.233 124.789 101.101V99.9249Z" fill="white"/>
<path d="M133.578 101.129C132.976 100.205 132.094 99.7429 130.932 99.7429C129.952 99.7429 129.112 100.107 128.426 100.821C127.74 101.535 127.39 102.403 127.39 103.425C127.39 104.447 127.74 105.329 128.426 106.043C129.112 106.757 129.952 107.107 130.932 107.107C132.094 107.107 132.976 106.645 133.578 105.721V106.925H134.796V99.9249H133.578V101.129ZM131.086 105.931C130.386 105.931 129.798 105.693 129.322 105.217C128.846 104.727 128.608 104.139 128.608 103.425C128.608 102.711 128.846 102.123 129.322 101.647C129.798 101.157 130.386 100.919 131.086 100.919C131.8 100.919 132.388 101.157 132.864 101.647C133.34 102.123 133.578 102.711 133.578 103.425C133.578 104.139 133.34 104.727 132.864 105.217C132.388 105.693 131.8 105.931 131.086 105.931Z" fill="white"/>
<path d="M137.257 98.6509C137.705 98.6509 138.069 98.2869 138.069 97.8389C138.069 97.3909 137.705 97.0129 137.257 97.0129C136.795 97.0129 136.431 97.3909 136.431 97.8389C136.431 98.2869 136.795 98.6509 137.257 98.6509ZM137.859 106.925V99.9249H136.641V106.925H137.859Z" fill="white"/>
<path d="M143.203 99.7429C142.181 99.7429 141.425 100.135 140.935 100.933V99.9249H139.717V106.925H140.935V103.215C140.935 101.647 141.747 100.905 142.965 100.905C144.043 100.905 144.701 101.563 144.701 102.697V106.925H145.919V102.627C145.919 100.849 144.841 99.7429 143.203 99.7429Z" fill="white"/>
<path d="M154.339 103.985C154.367 103.803 154.381 103.621 154.381 103.439C154.381 102.417 154.059 101.549 153.401 100.835C152.757 100.107 151.917 99.7429 150.895 99.7429C149.817 99.7429 148.935 100.093 148.249 100.793C147.563 101.493 147.227 102.375 147.227 103.425C147.227 104.489 147.577 105.371 148.263 106.071C148.963 106.757 149.873 107.107 150.979 107.107C152.351 107.107 153.373 106.575 154.059 105.525L153.023 104.937C152.603 105.623 151.931 105.959 151.007 105.959C149.677 105.959 148.711 105.231 148.473 103.985H154.339ZM150.895 100.891C152.015 100.891 152.939 101.591 153.149 102.921H148.473C148.683 101.689 149.593 100.891 150.895 100.891Z" fill="white"/>
<path d="M161.564 101.129C160.962 100.205 160.08 99.7429 158.918 99.7429C157.938 99.7429 157.098 100.107 156.412 100.821C155.726 101.535 155.376 102.403 155.376 103.425C155.376 104.447 155.726 105.329 156.412 106.043C157.098 106.757 157.938 107.107 158.918 107.107C160.08 107.107 160.962 106.645 161.564 105.721V106.925H162.782V97.1249H161.564V101.129ZM159.072 105.931C158.372 105.931 157.784 105.693 157.308 105.217C156.832 104.727 156.594 104.139 156.594 103.425C156.594 102.711 156.832 102.123 157.308 101.647C157.784 101.157 158.372 100.919 159.072 100.919C159.786 100.919 160.374 101.157 160.85 101.647C161.326 102.123 161.564 102.711 161.564 103.425C161.564 104.139 161.326 104.727 160.85 105.217C160.374 105.693 159.786 105.931 159.072 105.931Z" fill="white"/>
<defs>
<linearGradient id="paint0_linear" x1="96.1128" y1="20.0821" x2="214.836" y2="73.2519" gradientUnits="userSpaceOnUse">
<stop stop-color="#FCBB03"/>
<stop offset="1" stop-color="#DF871B"/>
</linearGradient>
<linearGradient id="paint1_linear" x1="96.1128" y1="20.0821" x2="214.836" y2="73.2519" gradientUnits="userSpaceOnUse">
<stop stop-color="#FCBB03"/>
<stop offset="1" stop-color="#DF871B"/>
</linearGradient>
<linearGradient id="paint2_linear" x1="96.1128" y1="20.0821" x2="214.836" y2="73.2519" gradientUnits="userSpaceOnUse">
<stop stop-color="#FCBB03"/>
<stop offset="1" stop-color="#DF871B"/>
</linearGradient>
<linearGradient id="paint3_linear" x1="96.1128" y1="20.0821" x2="214.836" y2="73.2519" gradientUnits="userSpaceOnUse">
<stop stop-color="#FCBB03"/>
<stop offset="1" stop-color="#DF871B"/>
</linearGradient>
<linearGradient id="paint4_linear" x1="96.1128" y1="20.0821" x2="214.836" y2="73.2519" gradientUnits="userSpaceOnUse">
<stop stop-color="#FCBB03"/>
<stop offset="1" stop-color="#DF871B"/>
</linearGradient>
<linearGradient id="paint5_linear" x1="96.1128" y1="20.0821" x2="214.836" y2="73.2519" gradientUnits="userSpaceOnUse">
<stop stop-color="#FCBB03"/>
<stop offset="1" stop-color="#DF871B"/>
</linearGradient>
<linearGradient id="paint6_linear" x1="96.1128" y1="20.0821" x2="214.836" y2="73.2519" gradientUnits="userSpaceOnUse">
<stop stop-color="#FCBB03"/>
<stop offset="1" stop-color="#DF871B"/>
</linearGradient>
</defs>
</svg>
