<svg width="219" height="130" viewBox="0 0 219 130" fill="none" xmlns="http://www.w3.org/2000/svg">
<path d="M0.0571289 20.7279C0.0571289 9.6822 9.01143 0.727905 20.0571 0.727905H198.771C209.816 0.727905 218.771 9.68221 218.771 20.7279V109.837C218.771 120.883 209.816 129.837 198.771 129.837H20.0571C9.01141 129.837 0.0571289 120.883 0.0571289 109.837V20.7279Z" fill="#222222"/>
<path d="M109.326 25.8833C106.23 25.8833 103.733 28.3803 103.733 31.476C103.733 34.5718 106.23 37.0688 109.326 37.0688C112.421 37.0688 114.919 34.5718 114.919 31.476C114.919 28.3803 112.421 25.8833 109.326 25.8833ZM109.326 35.1121C107.325 35.1121 105.69 33.4815 105.69 31.476C105.69 29.4706 107.32 27.84 109.326 27.84C111.331 27.84 112.962 29.4706 112.962 31.476C112.962 33.4815 111.326 35.1121 109.326 35.1121V35.1121ZM116.452 25.6545C116.452 26.3798 115.868 26.959 115.147 26.959C114.422 26.959 113.843 26.3749 113.843 25.6545C113.843 24.9341 114.427 24.35 115.147 24.35C115.868 24.35 116.452 24.9341 116.452 25.6545ZM120.156 26.9785C120.073 25.2311 119.674 23.6832 118.394 22.4079C117.119 21.1326 115.571 20.7335 113.823 20.6459C112.022 20.5437 106.624 20.5437 104.823 20.6459C103.081 20.7286 101.533 21.1278 100.253 22.403C98.9726 23.6783 98.5783 25.2262 98.4907 26.9736C98.3885 28.7746 98.3885 34.1726 98.4907 35.9736C98.5735 37.721 98.9726 39.2689 100.253 40.5442C101.533 41.8195 103.076 42.2186 104.823 42.3062C106.624 42.4084 112.022 42.4084 113.823 42.3062C115.571 42.2235 117.119 41.8243 118.394 40.5442C119.669 39.2689 120.068 37.721 120.156 35.9736C120.258 34.1726 120.258 28.7795 120.156 26.9785V26.9785ZM117.829 37.906C117.45 38.86 116.715 39.595 115.756 39.9796C114.32 40.5491 110.913 40.4176 109.326 40.4176C107.739 40.4176 104.327 40.5442 102.896 39.9796C101.942 39.5999 101.207 38.8649 100.822 37.906C100.253 36.4701 100.384 33.0629 100.384 31.476C100.384 29.8892 100.258 26.4771 100.822 25.0461C101.202 24.0921 101.937 23.3571 102.896 22.9725C104.332 22.403 107.739 22.5345 109.326 22.5345C110.913 22.5345 114.325 22.4079 115.756 22.9725C116.71 23.3522 117.445 24.0872 117.829 25.0461C118.399 26.482 118.267 29.8892 118.267 31.476C118.267 33.0629 118.399 36.475 117.829 37.906Z" fill="white"/>
<path d="M81.9048 64.4148V60.4248H66.5048V64.9398H76.0948L71.2648 71.2398L73.1198 74.0398H74.1698C76.6548 74.0398 78.0898 75.3698 78.0898 77.3648C78.0898 79.4298 76.6548 80.6898 74.1698 80.6898C71.9298 80.6898 70.4948 79.7448 69.8998 77.8548L65.7698 80.2348C67.1348 83.6298 70.3548 85.4148 74.1698 85.4148C76.6198 85.4148 78.6848 84.7148 80.3648 83.2798C82.0798 81.8448 82.9198 79.8848 82.9198 77.3648C82.9198 73.8998 80.6448 71.3448 77.3198 70.3648L81.9048 64.4148Z" fill="url(#paint0_linear)"/>
<path d="M83.1916 62.6998L84.3816 66.8298L89.0016 65.5348V84.9248H93.8316V60.4248H89.6316L83.1916 62.6998Z" fill="url(#paint1_linear)"/>
<path d="M111.742 60.4248H106.212L98.5817 71.9398C97.6367 73.3748 97.1467 75.0198 97.1467 76.8748C97.1467 79.3948 97.9517 81.4598 99.5967 83.0348C101.242 84.6098 103.377 85.4148 106.002 85.4148C108.627 85.4148 110.762 84.6098 112.407 83.0348C114.052 81.4248 114.892 79.3598 114.892 76.8748C114.892 74.4248 114.087 72.4298 112.512 70.8548C110.937 69.2798 108.872 68.4398 106.317 68.3698L111.742 60.4248ZM110.097 76.8748C110.097 79.2898 108.347 80.8648 106.002 80.8648C103.657 80.8648 101.942 79.2898 101.942 76.8748C101.942 74.4598 103.657 72.9198 106.002 72.9198C108.347 72.9198 110.097 74.4948 110.097 76.8748Z" fill="url(#paint2_linear)"/>
<path d="M126.642 76.0698L133.677 67.4248H128.287L122.267 75.1248V60.4248H117.752V84.9248H122.267V76.9798L128.637 84.9248H133.887L126.642 76.0698Z" fill="url(#paint3_linear)"/>
<path d="M144.505 70.5398V64.7998H140.27V70.5398H134.53V74.7748H140.27V80.5498H144.505V74.7748H150.28V70.5398H144.505Z" fill="url(#paint4_linear)"/>
<path d="M46.5344 106.925H47.8364V97.1248H46.5344V106.925Z" fill="white"/>
<path d="M53.2987 99.7428C52.2767 99.7428 51.5207 100.135 51.0307 100.933V99.9248H49.8127V106.925H51.0307V103.215C51.0307 101.647 51.8427 100.905 53.0607 100.905C54.1387 100.905 54.7967 101.563 54.7967 102.697V106.925H56.0147V102.627C56.0147 100.849 54.9367 99.7428 53.2987 99.7428Z" fill="white"/>
<path d="M58.7651 101.815C58.7651 101.213 59.3251 100.877 60.0111 100.877C60.7531 100.877 61.2571 101.171 61.5091 101.773L62.5311 101.199C62.0831 100.289 61.1451 99.7428 60.0111 99.7428C59.2971 99.7428 58.7091 99.9388 58.2331 100.331C57.7711 100.723 57.5331 101.227 57.5331 101.829C57.5331 103.313 58.9611 103.677 60.0671 103.971C60.8371 104.153 61.4531 104.461 61.4531 105.007C61.4531 105.665 60.8651 105.959 60.0671 105.959C59.2131 105.959 58.5551 105.539 58.3311 104.867L57.2811 105.469C57.6871 106.463 58.7091 107.107 60.0671 107.107C60.8371 107.107 61.4531 106.911 61.9431 106.533C62.4331 106.155 62.6851 105.637 62.6851 105.007C62.6991 103.509 61.2431 103.103 60.1511 102.865C59.3811 102.655 58.7651 102.361 58.7651 101.815Z" fill="white"/>
<path d="M67.6617 99.9248H65.7997V97.9648L64.5817 98.3288V99.9248H63.1957V101.101H64.5817V104.895C64.5817 106.631 65.5337 107.205 67.6617 106.925V105.833C66.4157 105.889 65.7997 105.973 65.7997 104.895V101.101H67.6617V99.9248Z" fill="white"/>
<path d="M74.5443 101.129C73.9423 100.205 73.0603 99.7428 71.8983 99.7428C70.9183 99.7428 70.0783 100.107 69.3923 100.821C68.7063 101.535 68.3563 102.403 68.3563 103.425C68.3563 104.447 68.7063 105.329 69.3923 106.043C70.0783 106.757 70.9183 107.107 71.8983 107.107C73.0603 107.107 73.9423 106.645 74.5443 105.721V106.925H75.7623V99.9248H74.5443V101.129ZM72.0523 105.931C71.3523 105.931 70.7643 105.693 70.2883 105.217C69.8123 104.727 69.5743 104.139 69.5743 103.425C69.5743 102.711 69.8123 102.123 70.2883 101.647C70.7643 101.157 71.3523 100.919 72.0523 100.919C72.7663 100.919 73.3543 101.157 73.8303 101.647C74.3063 102.123 74.5443 102.711 74.5443 103.425C74.5443 104.139 74.3063 104.727 73.8303 105.217C73.3543 105.693 72.7663 105.931 72.0523 105.931Z" fill="white"/>
<path d="M83.4176 101.129C82.8156 100.205 81.9336 99.7428 80.7856 99.7428C79.7916 99.7428 78.9376 100.093 78.2516 100.807C77.5656 101.507 77.2156 102.361 77.2156 103.383C77.2156 104.405 77.5656 105.259 78.2516 105.973C78.9376 106.687 79.7916 107.037 80.7856 107.037C81.9196 107.037 82.8016 106.575 83.4176 105.637V106.631C83.4176 107.961 82.5356 108.773 81.0796 108.773C79.9456 108.773 79.1756 108.381 78.7976 107.597L77.7336 108.199C78.3076 109.305 79.4836 109.907 81.0516 109.907C82.0316 109.907 82.8716 109.613 83.5716 109.039C84.2716 108.465 84.6216 107.667 84.6216 106.631V99.9248H83.4176V101.129ZM83.4176 103.383C83.4176 104.097 83.1796 104.685 82.7036 105.161C82.2276 105.637 81.6396 105.875 80.9256 105.875C80.2116 105.875 79.6236 105.637 79.1476 105.161C78.6716 104.685 78.4336 104.097 78.4336 103.383C78.4336 102.683 78.6716 102.095 79.1476 101.619C79.6236 101.143 80.2116 100.905 80.9256 100.905C81.6396 100.905 82.2276 101.143 82.7036 101.619C83.1796 102.095 83.4176 102.683 83.4176 103.383Z" fill="white"/>
<path d="M87.685 99.9248H86.467V106.925H87.685V103.215C87.685 102.445 87.895 101.899 88.329 101.549C88.763 101.199 89.267 101.045 89.869 101.073V99.7988C88.819 99.7988 88.091 100.233 87.685 101.101V99.9248Z" fill="white"/>
<path d="M96.474 101.129C95.872 100.205 94.99 99.7428 93.828 99.7428C92.848 99.7428 92.008 100.107 91.322 100.821C90.636 101.535 90.286 102.403 90.286 103.425C90.286 104.447 90.636 105.329 91.322 106.043C92.008 106.757 92.848 107.107 93.828 107.107C94.99 107.107 95.872 106.645 96.474 105.721V106.925H97.692V99.9248H96.474V101.129ZM93.982 105.931C93.282 105.931 92.694 105.693 92.218 105.217C91.742 104.727 91.504 104.139 91.504 103.425C91.504 102.711 91.742 102.123 92.218 101.647C92.694 101.157 93.282 100.919 93.982 100.919C94.696 100.919 95.284 101.157 95.76 101.647C96.236 102.123 96.474 102.711 96.474 103.425C96.474 104.139 96.236 104.727 95.76 105.217C95.284 105.693 94.696 105.931 93.982 105.931Z" fill="white"/>
<path d="M107.097 99.7428C106.117 99.7428 105.389 100.135 104.899 100.933C104.465 100.135 103.779 99.7428 102.841 99.7428C101.931 99.7428 101.231 100.121 100.755 100.863V99.9248H99.5373V106.925H100.755V103.033C100.755 101.619 101.525 100.905 102.547 100.905C103.457 100.905 104.031 101.535 104.031 102.613V106.925H105.249V103.033C105.249 101.591 105.921 100.905 106.971 100.905C107.909 100.905 108.511 101.535 108.511 102.613V106.925H109.729V102.571C109.729 100.835 108.665 99.7428 107.097 99.7428Z" fill="white"/>
<path d="M120.686 97.1248H115.044V106.925H116.346V102.767H120.504V101.535H116.346V98.3568H120.686V97.1248Z" fill="white"/>
<path d="M128.045 106.043C128.759 105.329 129.123 104.461 129.123 103.425C129.123 102.389 128.759 101.521 128.045 100.807C127.331 100.093 126.449 99.7428 125.427 99.7428C124.405 99.7428 123.523 100.093 122.809 100.807C122.095 101.521 121.745 102.389 121.745 103.425C121.745 104.461 122.095 105.329 122.809 106.043C123.523 106.757 124.405 107.107 125.427 107.107C126.449 107.107 127.331 106.757 128.045 106.043ZM125.427 105.917C124.741 105.917 124.153 105.679 123.677 105.203C123.201 104.727 122.963 104.139 122.963 103.425C122.963 102.711 123.201 102.123 123.677 101.647C124.153 101.171 124.741 100.933 125.427 100.933C126.127 100.933 126.715 101.171 127.191 101.647C127.667 102.123 127.905 102.711 127.905 103.425C127.905 104.139 127.667 104.727 127.191 105.203C126.715 105.679 126.127 105.917 125.427 105.917Z" fill="white"/>
<path d="M131.777 106.925V96.7048H130.559V106.925H131.777Z" fill="white"/>
<path d="M134.853 106.925V96.7048H133.635V106.925H134.853Z" fill="white"/>
<path d="M142.619 106.043C143.333 105.329 143.697 104.461 143.697 103.425C143.697 102.389 143.333 101.521 142.619 100.807C141.905 100.093 141.023 99.7428 140.001 99.7428C138.979 99.7428 138.097 100.093 137.383 100.807C136.669 101.521 136.319 102.389 136.319 103.425C136.319 104.461 136.669 105.329 137.383 106.043C138.097 106.757 138.979 107.107 140.001 107.107C141.023 107.107 141.905 106.757 142.619 106.043ZM140.001 105.917C139.315 105.917 138.727 105.679 138.251 105.203C137.775 104.727 137.537 104.139 137.537 103.425C137.537 102.711 137.775 102.123 138.251 101.647C138.727 101.171 139.315 100.933 140.001 100.933C140.701 100.933 141.289 101.171 141.765 101.647C142.241 102.123 142.479 102.711 142.479 103.425C142.479 104.139 142.241 104.727 141.765 105.203C141.289 105.679 140.701 105.917 140.001 105.917Z" fill="white"/>
<path d="M151.566 105.259L149.914 99.9248H148.738L147.086 105.245L145.546 99.9248H144.272L146.442 106.925H147.688L149.326 101.745L150.964 106.925H152.21L154.38 99.9248H153.106L151.566 105.259Z" fill="white"/>
<path d="M162.08 103.985C162.108 103.803 162.122 103.621 162.122 103.439C162.122 102.417 161.8 101.549 161.142 100.835C160.498 100.107 159.658 99.7428 158.636 99.7428C157.558 99.7428 156.676 100.093 155.99 100.793C155.304 101.493 154.968 102.375 154.968 103.425C154.968 104.489 155.318 105.371 156.004 106.071C156.704 106.757 157.614 107.107 158.72 107.107C160.092 107.107 161.114 106.575 161.8 105.525L160.764 104.937C160.344 105.623 159.672 105.959 158.748 105.959C157.418 105.959 156.452 105.231 156.214 103.985H162.08ZM158.636 100.891C159.756 100.891 160.68 101.591 160.89 102.921H156.214C156.424 101.689 157.334 100.891 158.636 100.891Z" fill="white"/>
<path d="M164.74 99.9248H163.522V106.925H164.74V103.215C164.74 102.445 164.95 101.899 165.384 101.549C165.818 101.199 166.322 101.045 166.924 101.073V99.7988C165.874 99.7988 165.146 100.233 164.74 101.101V99.9248Z" fill="white"/>
<path d="M168.906 101.815C168.906 101.213 169.466 100.877 170.152 100.877C170.894 100.877 171.398 101.171 171.65 101.773L172.672 101.199C172.224 100.289 171.286 99.7428 170.152 99.7428C169.438 99.7428 168.85 99.9388 168.374 100.331C167.912 100.723 167.674 101.227 167.674 101.829C167.674 103.313 169.102 103.677 170.208 103.971C170.978 104.153 171.594 104.461 171.594 105.007C171.594 105.665 171.006 105.959 170.208 105.959C169.354 105.959 168.696 105.539 168.472 104.867L167.422 105.469C167.828 106.463 168.85 107.107 170.208 107.107C170.978 107.107 171.594 106.911 172.084 106.533C172.574 106.155 172.826 105.637 172.826 105.007C172.84 103.509 171.384 103.103 170.292 102.865C169.522 102.655 168.906 102.361 168.906 101.815Z" fill="white"/>
<defs>
<linearGradient id="paint0_linear" x1="100.148" y1="20.0821" x2="181.67" y2="42.5494" gradientUnits="userSpaceOnUse">
<stop stop-color="#FCBB03"/>
<stop offset="1" stop-color="#DF871B"/>
</linearGradient>
<linearGradient id="paint1_linear" x1="100.148" y1="20.0821" x2="181.67" y2="42.5494" gradientUnits="userSpaceOnUse">
<stop stop-color="#FCBB03"/>
<stop offset="1" stop-color="#DF871B"/>
</linearGradient>
<linearGradient id="paint2_linear" x1="100.148" y1="20.0821" x2="181.67" y2="42.5494" gradientUnits="userSpaceOnUse">
<stop stop-color="#FCBB03"/>
<stop offset="1" stop-color="#DF871B"/>
</linearGradient>
<linearGradient id="paint3_linear" x1="100.148" y1="20.0821" x2="181.67" y2="42.5494" gradientUnits="userSpaceOnUse">
<stop stop-color="#FCBB03"/>
<stop offset="1" stop-color="#DF871B"/>
</linearGradient>
<linearGradient id="paint4_linear" x1="100.148" y1="20.0821" x2="181.67" y2="42.5494" gradientUnits="userSpaceOnUse">
<stop stop-color="#FCBB03"/>
<stop offset="1" stop-color="#DF871B"/>
</linearGradient>
</defs>
</svg>
