<svg width="220" height="130" viewBox="0 0 220 130" fill="none" xmlns="http://www.w3.org/2000/svg">
<path d="M0.461426 20.7279C0.461426 9.6822 9.41573 0.727905 20.4614 0.727905H199.175C210.221 0.727905 219.175 9.68221 219.175 20.7279V109.837C219.175 120.883 210.221 129.837 199.175 129.837H20.4614C9.41571 129.837 0.461426 120.883 0.461426 109.837V20.7279Z" fill="#222222"/>
<path d="M37.7493 62.5622L38.4633 65.0402L41.2353 64.2632V75.8972H44.1333V61.1972H41.6133L37.7493 62.5622Z" fill="url(#paint0_linear)"/>
<path d="M52.2544 76.1912C54.1024 76.1912 55.5514 75.4982 56.5804 74.1122C57.6094 72.7052 58.1344 70.8572 58.1344 68.5472C58.1344 66.2372 57.6094 64.3892 56.5804 63.0032C55.5514 61.5962 54.1024 60.9032 52.2544 60.9032C50.4274 60.9032 48.9784 61.5962 47.9284 63.0032C46.8994 64.3892 46.3744 66.2372 46.3744 68.5472C46.3744 70.8572 46.8994 72.7052 47.9284 74.1122C48.9784 75.4982 50.4274 76.1912 52.2544 76.1912ZM55.2574 68.5472C55.2574 71.6552 54.2074 73.3562 52.2544 73.3562C50.3014 73.3562 49.2724 71.6762 49.2724 68.5472C49.2724 65.4182 50.3014 63.7172 52.2544 63.7172C54.2074 63.7172 55.2574 65.4182 55.2574 68.5472Z" fill="url(#paint1_linear)"/>
<path d="M65.4819 76.1912C67.3299 76.1912 68.7789 75.4982 69.8079 74.1122C70.8369 72.7052 71.3619 70.8572 71.3619 68.5472C71.3619 66.2372 70.8369 64.3892 69.8079 63.0032C68.7789 61.5962 67.3299 60.9032 65.4819 60.9032C63.6549 60.9032 62.2059 61.5962 61.1559 63.0032C60.1269 64.3892 59.6019 66.2372 59.6019 68.5472C59.6019 70.8572 60.1269 72.7052 61.1559 74.1122C62.2059 75.4982 63.6549 76.1912 65.4819 76.1912ZM68.4849 68.5472C68.4849 71.6552 67.4349 73.3562 65.4819 73.3562C63.5289 73.3562 62.4999 71.6762 62.4999 68.5472C62.4999 65.4182 63.5289 63.7172 65.4819 63.7172C67.4349 63.7172 68.4849 65.4182 68.4849 68.5472Z" fill="url(#paint2_linear)"/>
<path d="M78.7094 76.1912C80.5574 76.1912 82.0064 75.4982 83.0354 74.1122C84.0644 72.7052 84.5894 70.8572 84.5894 68.5472C84.5894 66.2372 84.0644 64.3892 83.0354 63.0032C82.0064 61.5962 80.5574 60.9032 78.7094 60.9032C76.8824 60.9032 75.4334 61.5962 74.3834 63.0032C73.3544 64.3892 72.8294 66.2372 72.8294 68.5472C72.8294 70.8572 73.3544 72.7052 74.3834 74.1122C75.4334 75.4982 76.8824 76.1912 78.7094 76.1912ZM81.7124 68.5472C81.7124 71.6552 80.6624 73.3562 78.7094 73.3562C76.7564 73.3562 75.7274 71.6762 75.7274 68.5472C75.7274 65.4182 76.7564 63.7172 78.7094 63.7172C80.6624 63.7172 81.7124 65.4182 81.7124 68.5472Z" fill="url(#paint3_linear)"/>
<path d="M92.42 67.2662V63.8222H89.879V67.2662H86.435V69.8072H89.879V73.2722H92.42V69.8072H95.885V67.2662H92.42Z" fill="url(#paint4_linear)"/>
<path d="M114.778 75.8972L111.523 70.3532C113.224 69.5762 114.358 67.8962 114.358 66.0692C114.358 64.7252 113.875 63.5702 112.93 62.6252C111.985 61.6802 110.83 61.1972 109.465 61.1972H103.585V75.8972H106.483V70.7942H108.688L111.649 75.8972H114.778ZM109.465 63.9062C110.557 63.9062 111.46 64.8722 111.46 66.0692C111.46 67.2662 110.557 68.2532 109.465 68.2532H106.483V63.9062H109.465Z" fill="url(#paint5_linear)"/>
<path d="M126.032 71.7602C126.095 71.3612 126.137 71.0042 126.137 70.6472C126.137 69.0722 125.633 67.7702 124.625 66.6992C123.638 65.6282 122.357 65.1032 120.824 65.1032C119.207 65.1032 117.863 65.6282 116.834 66.6992C115.805 67.7492 115.28 69.0722 115.28 70.6472C115.28 72.2432 115.805 73.5662 116.855 74.6162C117.905 75.6662 119.291 76.1912 121.034 76.1912C123.05 76.1912 124.583 75.4352 125.612 73.9442L123.428 72.6842C122.903 73.3772 122.105 73.7342 121.076 73.7342C119.459 73.7342 118.472 73.0832 118.115 71.7602H126.032ZM118.073 69.6602C118.388 68.3162 119.375 67.5392 120.824 67.5392C122.063 67.5392 123.113 68.2322 123.428 69.6602H118.073Z" fill="url(#paint6_linear)"/>
<path d="M135.926 66.6362C135.107 65.6072 133.973 65.1032 132.503 65.1032C131.096 65.1032 129.899 65.6492 128.891 66.7202C127.904 67.7912 127.4 69.0932 127.4 70.6472C127.4 72.2012 127.904 73.5242 128.891 74.5952C129.899 75.6662 131.096 76.1912 132.503 76.1912C133.973 76.1912 135.107 75.6872 135.926 74.6582V75.8972H138.635V65.3972H135.926V66.6362ZM130.928 72.7892C130.382 72.2222 130.109 71.5082 130.109 70.6472C130.109 69.7862 130.382 69.0722 130.928 68.5262C131.474 67.9592 132.167 67.6862 133.007 67.6862C133.847 67.6862 134.54 67.9592 135.086 68.5262C135.653 69.0722 135.926 69.7862 135.926 70.6472C135.926 71.5082 135.653 72.2222 135.086 72.7892C134.54 73.3352 133.847 73.6082 133.007 73.6082C132.167 73.6082 131.474 73.3352 130.928 72.7892Z" fill="url(#paint7_linear)"/>
<path d="M149.05 66.6362C148.252 65.6072 147.118 65.1032 145.648 65.1032C144.241 65.1032 143.023 65.6492 142.015 66.7202C141.028 67.7912 140.524 69.0932 140.524 70.6472C140.524 72.2012 141.028 73.5242 142.015 74.5952C143.023 75.6662 144.241 76.1912 145.648 76.1912C147.118 76.1912 148.252 75.6872 149.05 74.6582V75.8972H151.759V61.1972H149.05V66.6362ZM144.052 72.7892C143.506 72.2222 143.233 71.5082 143.233 70.6472C143.233 69.7862 143.506 69.0722 144.052 68.5262C144.619 67.9592 145.312 67.6862 146.152 67.6862C146.992 67.6862 147.685 67.9592 148.231 68.5262C148.777 69.0722 149.05 69.7862 149.05 70.6472C149.05 71.5082 148.777 72.2222 148.231 72.7892C147.685 73.3352 146.992 73.6082 146.152 73.6082C145.312 73.6082 144.619 73.3352 144.052 72.7892Z" fill="url(#paint8_linear)"/>
<path d="M164.443 71.7602C164.506 71.3612 164.548 71.0042 164.548 70.6472C164.548 69.0722 164.044 67.7702 163.036 66.6992C162.049 65.6282 160.768 65.1032 159.235 65.1032C157.618 65.1032 156.274 65.6282 155.245 66.6992C154.216 67.7492 153.691 69.0722 153.691 70.6472C153.691 72.2432 154.216 73.5662 155.266 74.6162C156.316 75.6662 157.702 76.1912 159.445 76.1912C161.461 76.1912 162.994 75.4352 164.023 73.9442L161.839 72.6842C161.314 73.3772 160.516 73.7342 159.487 73.7342C157.87 73.7342 156.883 73.0832 156.526 71.7602H164.443ZM156.484 69.6602C156.799 68.3162 157.786 67.5392 159.235 67.5392C160.474 67.5392 161.524 68.2322 161.839 69.6602H156.484Z" fill="url(#paint9_linear)"/>
<path d="M169.148 65.3972H166.439V75.8972H169.148V70.8782C169.148 69.8702 169.463 69.1562 170.114 68.7152C170.765 68.2742 171.521 68.1062 172.34 68.2112V65.1872C170.912 65.1872 169.652 65.8592 169.148 67.2032V65.3972Z" fill="url(#paint10_linear)"/>
<path d="M176.095 68.3792C176.095 67.8542 176.62 67.5182 177.313 67.5182C178.09 67.5182 178.657 67.8752 178.993 68.5892L181.303 67.3292C180.484 65.9012 179.014 65.1032 177.313 65.1032C176.179 65.1032 175.234 65.3972 174.457 66.0062C173.701 66.5942 173.323 67.4132 173.323 68.4422C173.323 70.6262 175.276 71.2772 176.83 71.6762C177.901 71.9492 178.741 72.2642 178.741 72.8312C178.741 73.4402 178.258 73.7342 177.292 73.7342C176.221 73.7342 175.549 73.2722 175.234 72.3692L172.882 73.6922C173.659 75.3512 175.129 76.1912 177.292 76.1912C178.489 76.1912 179.497 75.8972 180.295 75.3302C181.114 74.7422 181.513 73.9022 181.513 72.8312C181.534 70.5842 179.539 69.8492 178.006 69.5342C176.935 69.2612 176.095 68.9462 176.095 68.3792Z" fill="url(#paint11_linear)"/>
<path d="M61.0093 86.2249V93.9249H62.0323V91.1749H63.8033C64.5183 91.1749 65.1013 90.9329 65.5743 90.4599C66.0473 89.9869 66.2893 89.3929 66.2893 88.6999C66.2893 87.9959 66.0473 87.4129 65.5743 86.9399C65.1013 86.4669 64.5183 86.2249 63.8033 86.2249H61.0093ZM62.0323 90.2179V87.1819H63.8033C64.6503 87.1819 65.2773 87.8199 65.2773 88.6999C65.2773 89.1289 65.1343 89.4919 64.8593 89.7889C64.5843 90.0749 64.2323 90.2179 63.8033 90.2179H62.0323Z" fill="white"/>
<path d="M68.2374 88.4249H67.2804V93.9249H68.2374V91.0099C68.2374 90.4049 68.4024 89.9759 68.7434 89.7009C69.0844 89.4259 69.4804 89.3049 69.9534 89.3269V88.3259C69.1284 88.3259 68.5564 88.6669 68.2374 89.3489V88.4249Z" fill="white"/>
<path d="M75.869 91.6149C75.891 91.4719 75.902 91.3289 75.902 91.1859C75.902 90.3829 75.649 89.7009 75.132 89.1399C74.626 88.5679 73.966 88.2819 73.163 88.2819C72.316 88.2819 71.623 88.5569 71.084 89.1069C70.545 89.6569 70.281 90.3499 70.281 91.1749C70.281 92.0109 70.556 92.7039 71.095 93.2539C71.645 93.7929 72.36 94.0679 73.229 94.0679C74.307 94.0679 75.11 93.6499 75.649 92.8249L74.835 92.3629C74.505 92.9019 73.977 93.1659 73.251 93.1659C72.206 93.1659 71.447 92.5939 71.26 91.6149H75.869ZM73.163 89.1839C74.043 89.1839 74.769 89.7339 74.934 90.7789H71.26C71.425 89.8109 72.14 89.1839 73.163 89.1839Z" fill="white"/>
<path d="M82.9421 88.2819C82.1721 88.2819 81.6001 88.5899 81.2151 89.2169C80.8741 88.5899 80.3351 88.2819 79.5981 88.2819C78.8831 88.2819 78.3331 88.5789 77.9591 89.1619V88.4249H77.0021V93.9249H77.9591V90.8669C77.9591 89.7559 78.5641 89.1949 79.3671 89.1949C80.0821 89.1949 80.5331 89.6899 80.5331 90.5369V93.9249H81.4901V90.8669C81.4901 89.7339 82.0181 89.1949 82.8431 89.1949C83.5801 89.1949 84.0531 89.6899 84.0531 90.5369V93.9249H85.0101V90.5039C85.0101 89.1399 84.1741 88.2819 82.9421 88.2819Z" fill="white"/>
<path d="M86.821 87.4239C87.173 87.4239 87.459 87.1379 87.459 86.7859C87.459 86.4339 87.173 86.1369 86.821 86.1369C86.458 86.1369 86.172 86.4339 86.172 86.7859C86.172 87.1379 86.458 87.4239 86.821 87.4239ZM87.294 93.9249V88.4249H86.337V93.9249H87.294Z" fill="white"/>
<path d="M92.549 91.3399C92.549 92.5719 91.911 93.1549 90.954 93.1549C90.107 93.1549 89.59 92.6379 89.59 91.7469V88.4249H88.633V91.8019C88.633 93.1989 89.48 94.0679 90.767 94.0679C91.57 94.0679 92.164 93.7599 92.549 93.1329V93.9249H93.506V88.4249H92.549V91.3399Z" fill="white"/>
<path d="M100.903 88.2819C100.133 88.2819 99.561 88.5899 99.176 89.2169C98.835 88.5899 98.296 88.2819 97.559 88.2819C96.844 88.2819 96.294 88.5789 95.92 89.1619V88.4249H94.963V93.9249H95.92V90.8669C95.92 89.7559 96.525 89.1949 97.328 89.1949C98.043 89.1949 98.494 89.6899 98.494 90.5369V93.9249H99.451V90.8669C99.451 89.7339 99.979 89.1949 100.804 89.1949C101.541 89.1949 102.014 89.6899 102.014 90.5369V93.9249H102.971V90.5039C102.971 89.1399 102.135 88.2819 100.903 88.2819Z" fill="white"/>
<path d="M111.932 91.9669L107.972 86.2249H107.147V93.9249H108.17V88.1719L112.13 93.9249H112.955V86.2249H111.932V91.9669Z" fill="white"/>
<path d="M119.783 91.6149C119.805 91.4719 119.816 91.3289 119.816 91.1859C119.816 90.3829 119.563 89.7009 119.046 89.1399C118.54 88.5679 117.88 88.2819 117.077 88.2819C116.23 88.2819 115.537 88.5569 114.998 89.1069C114.459 89.6569 114.195 90.3499 114.195 91.1749C114.195 92.0109 114.47 92.7039 115.009 93.2539C115.559 93.7929 116.274 94.0679 117.143 94.0679C118.221 94.0679 119.024 93.6499 119.563 92.8249L118.749 92.3629C118.419 92.9019 117.891 93.1659 117.165 93.1659C116.12 93.1659 115.361 92.5939 115.174 91.6149H119.783ZM117.077 89.1839C117.957 89.1839 118.683 89.7339 118.848 90.7789H115.174C115.339 89.8109 116.054 89.1839 117.077 89.1839Z" fill="white"/>
<path d="M125.97 92.6159L124.672 88.4249H123.748L122.45 92.6049L121.24 88.4249H120.239L121.944 93.9249H122.923L124.21 89.8549L125.497 93.9249H126.476L128.181 88.4249H127.18L125.97 92.6159Z" fill="white"/>
<path d="M129.647 89.9099C129.647 89.4369 130.087 89.1729 130.626 89.1729C131.209 89.1729 131.605 89.4039 131.803 89.8769L132.606 89.4259C132.254 88.7109 131.517 88.2819 130.626 88.2819C130.065 88.2819 129.603 88.4359 129.229 88.7439C128.866 89.0519 128.679 89.4479 128.679 89.9209C128.679 91.0869 129.801 91.3729 130.67 91.6039C131.275 91.7469 131.759 91.9889 131.759 92.4179C131.759 92.9349 131.297 93.1659 130.67 93.1659C129.999 93.1659 129.482 92.8359 129.306 92.3079L128.481 92.7809C128.8 93.5619 129.603 94.0679 130.67 94.0679C131.275 94.0679 131.759 93.9139 132.144 93.6169C132.529 93.3199 132.727 92.9129 132.727 92.4179C132.738 91.2409 131.594 90.9219 130.736 90.7349C130.131 90.5699 129.647 90.3389 129.647 89.9099Z" fill="white"/>
<path d="M134.764 93.9249V85.8949H133.807V93.9249H134.764Z" fill="white"/>
<path d="M141.504 91.6149C141.526 91.4719 141.537 91.3289 141.537 91.1859C141.537 90.3829 141.284 89.7009 140.767 89.1399C140.261 88.5679 139.601 88.2819 138.798 88.2819C137.951 88.2819 137.258 88.5569 136.719 89.1069C136.18 89.6569 135.916 90.3499 135.916 91.1749C135.916 92.0109 136.191 92.7039 136.73 93.2539C137.28 93.7929 137.995 94.0679 138.864 94.0679C139.942 94.0679 140.745 93.6499 141.284 92.8249L140.47 92.3629C140.14 92.9019 139.612 93.1659 138.886 93.1659C137.841 93.1659 137.082 92.5939 136.895 91.6149H141.504ZM138.798 89.1839C139.678 89.1839 140.404 89.7339 140.569 90.7789H136.895C137.06 89.8109 137.775 89.1839 138.798 89.1839Z" fill="white"/>
<path d="M145.468 88.4249H144.005V86.8849L143.048 87.1709V88.4249H141.959V89.3489H143.048V92.3299C143.048 93.6939 143.796 94.1449 145.468 93.9249V93.0669C144.489 93.1109 144.005 93.1769 144.005 92.3299V89.3489H145.468V88.4249Z" fill="white"/>
<path d="M149.303 88.4249H147.84V86.8849L146.883 87.1709V88.4249H145.794V89.3489H146.883V92.3299C146.883 93.6939 147.631 94.1449 149.303 93.9249V93.0669C148.324 93.1109 147.84 93.1769 147.84 92.3299V89.3489H149.303V88.4249Z" fill="white"/>
<path d="M155.436 91.6149C155.458 91.4719 155.469 91.3289 155.469 91.1859C155.469 90.3829 155.216 89.7009 154.699 89.1399C154.193 88.5679 153.533 88.2819 152.73 88.2819C151.883 88.2819 151.19 88.5569 150.651 89.1069C150.112 89.6569 149.848 90.3499 149.848 91.1749C149.848 92.0109 150.123 92.7039 150.662 93.2539C151.212 93.7929 151.927 94.0679 152.796 94.0679C153.874 94.0679 154.677 93.6499 155.216 92.8249L154.402 92.3629C154.072 92.9019 153.544 93.1659 152.818 93.1659C151.773 93.1659 151.014 92.5939 150.827 91.6149H155.436ZM152.73 89.1839C153.61 89.1839 154.336 89.7339 154.501 90.7789H150.827C150.992 89.8109 151.707 89.1839 152.73 89.1839Z" fill="white"/>
<path d="M157.526 88.4249H156.569V93.9249H157.526V91.0099C157.526 90.4049 157.691 89.9759 158.032 89.7009C158.373 89.4259 158.769 89.3049 159.242 89.3269V88.3259C158.417 88.3259 157.845 88.6669 157.526 89.3489V88.4249Z" fill="white"/>
<path d="M84.5858 102.01V101.086H80.5708V102.01H84.5858Z" fill="white"/>
<path d="M90.9839 105.068C91.7319 105.068 92.3479 104.859 92.8319 104.452C93.3269 104.034 93.5689 103.44 93.5689 102.67V97.2249H92.5569V102.67C92.5569 103.594 91.9629 104.067 90.9839 104.067C90.1809 104.067 89.6749 103.77 89.4439 103.187L88.5749 103.693C88.9709 104.584 89.8729 105.068 90.9839 105.068Z" fill="white"/>
<path d="M99.605 104.232C100.166 103.671 100.452 102.989 100.452 102.175C100.452 101.361 100.166 100.679 99.605 100.118C99.044 99.5569 98.351 99.2819 97.548 99.2819C96.745 99.2819 96.052 99.5569 95.491 100.118C94.93 100.679 94.655 101.361 94.655 102.175C94.655 102.989 94.93 103.671 95.491 104.232C96.052 104.793 96.745 105.068 97.548 105.068C98.351 105.068 99.044 104.793 99.605 104.232ZM97.548 104.133C97.009 104.133 96.547 103.946 96.173 103.572C95.799 103.198 95.612 102.736 95.612 102.175C95.612 101.614 95.799 101.152 96.173 100.778C96.547 100.404 97.009 100.217 97.548 100.217C98.098 100.217 98.56 100.404 98.934 100.778C99.308 101.152 99.495 101.614 99.495 102.175C99.495 102.736 99.308 103.198 98.934 103.572C98.56 103.946 98.098 104.133 97.548 104.133Z" fill="white"/>
<path d="M102.537 99.4249H101.58V104.925H102.537V102.01C102.537 101.405 102.702 100.976 103.043 100.701C103.384 100.426 103.78 100.305 104.253 100.327V99.3259C103.428 99.3259 102.856 99.6669 102.537 100.349V99.4249Z" fill="white"/>
<path d="M106.147 99.4249H105.19V104.925H106.147V102.01C106.147 101.405 106.312 100.976 106.653 100.701C106.994 100.426 107.39 100.305 107.863 100.327V99.3259C107.038 99.3259 106.466 99.6669 106.147 100.349V99.4249Z" fill="white"/>
<path d="M112.066 104.925L114.827 97.2249H113.716L111.494 103.649L109.261 97.2249H108.161L110.911 104.925H112.066Z" fill="white"/>
<path d="M115.9 98.4239C116.252 98.4239 116.538 98.1379 116.538 97.7859C116.538 97.4339 116.252 97.1369 115.9 97.1369C115.537 97.1369 115.251 97.4339 115.251 97.7859C115.251 98.1379 115.537 98.4239 115.9 98.4239ZM116.373 104.925V99.4249H115.416V104.925H116.373Z" fill="white"/>
<path d="M120.418 105.068C121.485 105.068 122.42 104.507 122.893 103.638L122.079 103.165C121.771 103.748 121.155 104.122 120.418 104.122C119.868 104.122 119.406 103.935 119.032 103.561C118.669 103.187 118.482 102.725 118.482 102.175C118.482 101.614 118.669 101.152 119.032 100.778C119.406 100.404 119.868 100.217 120.418 100.217C121.155 100.217 121.771 100.602 122.046 101.185L122.849 100.723C122.42 99.8429 121.507 99.2819 120.418 99.2819C119.593 99.2819 118.9 99.5569 118.35 100.118C117.8 100.668 117.525 101.35 117.525 102.175C117.525 103 117.8 103.682 118.35 104.243C118.9 104.793 119.593 105.068 120.418 105.068Z" fill="white"/>
<path d="M126.577 99.2819C125.774 99.2819 125.18 99.5899 124.795 100.217V97.2249H123.838V104.925H124.795V102.01C124.795 100.778 125.433 100.195 126.39 100.195C127.237 100.195 127.754 100.712 127.754 101.603V104.925H128.711V101.548C128.711 100.151 127.864 99.2819 126.577 99.2819Z" fill="white"/>
<path d="M134.601 100.371C134.128 99.6449 133.435 99.2819 132.522 99.2819C131.752 99.2819 131.092 99.5679 130.553 100.129C130.014 100.69 129.739 101.372 129.739 102.175C129.739 102.978 130.014 103.671 130.553 104.232C131.092 104.793 131.752 105.068 132.522 105.068C133.435 105.068 134.128 104.705 134.601 103.979V104.925H135.558V99.4249H134.601V100.371ZM132.643 104.144C132.093 104.144 131.631 103.957 131.257 103.583C130.883 103.198 130.696 102.736 130.696 102.175C130.696 101.614 130.883 101.152 131.257 100.778C131.631 100.393 132.093 100.206 132.643 100.206C133.204 100.206 133.666 100.393 134.04 100.778C134.414 101.152 134.601 101.614 134.601 102.175C134.601 102.736 134.414 103.198 134.04 103.583C133.666 103.957 133.204 104.144 132.643 104.144Z" fill="white"/>
<path d="M137.965 99.4249H137.008V104.925H137.965V102.01C137.965 101.405 138.13 100.976 138.471 100.701C138.812 100.426 139.208 100.305 139.681 100.327V99.3259C138.856 99.3259 138.284 99.6669 137.965 100.349V99.4249Z" fill="white"/>
<path d="M121.696 21.7795H100.248C99.2313 21.7795 98.3643 22.4316 98.0424 23.3394H95.9585C95.3123 23.3394 94.7886 23.8631 94.7886 24.5093V37.7678C94.7886 39.2754 96.0107 40.4976 97.5183 40.4976H121.696C122.342 40.4976 122.866 39.9738 122.866 39.3277V22.9494C122.866 22.3033 122.342 21.7795 121.696 21.7795ZM97.1283 37.7678V25.6791H97.9082V37.7678C97.9082 37.9829 97.7333 38.1578 97.5183 38.1578C97.3033 38.1578 97.1283 37.9829 97.1283 37.7678ZM120.526 38.1578H100.22C100.238 38.0304 100.248 37.9003 100.248 37.7678V24.1193H120.526V38.1578ZM103.173 32.3084H109.802C110.125 32.3084 110.387 32.0465 110.387 31.7235V27.044C110.387 26.721 110.125 26.459 109.802 26.459H103.173C102.85 26.459 102.588 26.721 102.588 27.044V31.7235C102.588 32.0465 102.85 32.3084 103.173 32.3084ZM104.538 28.4088H108.437V30.3586H104.538V28.4088ZM102.588 35.2331V34.0632C102.588 33.7402 102.85 33.4783 103.173 33.4783H109.802C110.125 33.4783 110.387 33.7402 110.387 34.0632V35.2331C110.387 35.5561 110.125 35.8181 109.802 35.8181H103.173C102.85 35.8181 102.588 35.5561 102.588 35.2331ZM111.947 35.2331V34.0632C111.947 33.7402 112.209 33.4783 112.532 33.4783H117.601C117.924 33.4783 118.186 33.7402 118.186 34.0632V35.2331C118.186 35.5561 117.924 35.8181 117.601 35.8181H112.532C112.209 35.8181 111.947 35.5561 111.947 35.2331ZM111.947 28.2139V27.044C111.947 26.721 112.209 26.459 112.532 26.459H117.601C117.924 26.459 118.186 26.721 118.186 27.044V28.2139C118.186 28.5369 117.924 28.7988 117.601 28.7988H112.532C112.209 28.7988 111.947 28.5369 111.947 28.2139ZM111.947 31.7235V30.5536C111.947 30.2306 112.209 29.9687 112.532 29.9687H117.601C117.924 29.9687 118.186 30.2306 118.186 30.5536V31.7235C118.186 32.0465 117.924 32.3084 117.601 32.3084H112.532C112.209 32.3084 111.947 32.0465 111.947 31.7235Z" fill="white"/>
<defs>
<linearGradient id="paint0_linear" x1="94.27" y1="37.1916" x2="188.545" y2="117.545" gradientUnits="userSpaceOnUse">
<stop stop-color="#FCBB03"/>
<stop offset="1" stop-color="#DF871B"/>
</linearGradient>
<linearGradient id="paint1_linear" x1="94.27" y1="37.1916" x2="188.545" y2="117.545" gradientUnits="userSpaceOnUse">
<stop stop-color="#FCBB03"/>
<stop offset="1" stop-color="#DF871B"/>
</linearGradient>
<linearGradient id="paint2_linear" x1="94.27" y1="37.1916" x2="188.545" y2="117.545" gradientUnits="userSpaceOnUse">
<stop stop-color="#FCBB03"/>
<stop offset="1" stop-color="#DF871B"/>
</linearGradient>
<linearGradient id="paint3_linear" x1="94.27" y1="37.1916" x2="188.545" y2="117.545" gradientUnits="userSpaceOnUse">
<stop stop-color="#FCBB03"/>
<stop offset="1" stop-color="#DF871B"/>
</linearGradient>
<linearGradient id="paint4_linear" x1="94.27" y1="37.1916" x2="188.545" y2="117.545" gradientUnits="userSpaceOnUse">
<stop stop-color="#FCBB03"/>
<stop offset="1" stop-color="#DF871B"/>
</linearGradient>
<linearGradient id="paint5_linear" x1="94.27" y1="37.1916" x2="188.545" y2="117.545" gradientUnits="userSpaceOnUse">
<stop stop-color="#FCBB03"/>
<stop offset="1" stop-color="#DF871B"/>
</linearGradient>
<linearGradient id="paint6_linear" x1="94.27" y1="37.1916" x2="188.545" y2="117.545" gradientUnits="userSpaceOnUse">
<stop stop-color="#FCBB03"/>
<stop offset="1" stop-color="#DF871B"/>
</linearGradient>
<linearGradient id="paint7_linear" x1="94.27" y1="37.1916" x2="188.545" y2="117.545" gradientUnits="userSpaceOnUse">
<stop stop-color="#FCBB03"/>
<stop offset="1" stop-color="#DF871B"/>
</linearGradient>
<linearGradient id="paint8_linear" x1="94.27" y1="37.1916" x2="188.545" y2="117.545" gradientUnits="userSpaceOnUse">
<stop stop-color="#FCBB03"/>
<stop offset="1" stop-color="#DF871B"/>
</linearGradient>
<linearGradient id="paint9_linear" x1="94.27" y1="37.1916" x2="188.545" y2="117.545" gradientUnits="userSpaceOnUse">
<stop stop-color="#FCBB03"/>
<stop offset="1" stop-color="#DF871B"/>
</linearGradient>
<linearGradient id="paint10_linear" x1="94.27" y1="37.1916" x2="188.545" y2="117.545" gradientUnits="userSpaceOnUse">
<stop stop-color="#FCBB03"/>
<stop offset="1" stop-color="#DF871B"/>
</linearGradient>
<linearGradient id="paint11_linear" x1="94.27" y1="37.1916" x2="188.545" y2="117.545" gradientUnits="userSpaceOnUse">
<stop stop-color="#FCBB03"/>
<stop offset="1" stop-color="#DF871B"/>
</linearGradient>
</defs>
</svg>
