<svg width="220" height="130" viewBox="0 0 220 130" fill="none" xmlns="http://www.w3.org/2000/svg">
<path d="M0.698608 20.7279C0.698608 9.6822 9.65291 0.727905 20.6986 0.727905H199.412C210.458 0.727905 219.412 9.68221 219.412 20.7279V109.837C219.412 120.883 210.458 129.837 199.412 129.837H20.6986C9.65289 129.837 0.698608 120.883 0.698608 109.837V20.7279Z" fill="#222222"/>
<path d="M64.9401 84.9249V80.2699H55.7351L60.5301 75.4749C63.2251 72.7799 64.5551 70.1899 64.5551 67.6349C64.5551 65.2899 63.7501 63.3999 62.1751 62.0349C60.6001 60.6349 58.6751 59.9349 56.4701 59.9349C53.0051 59.9349 49.9251 61.7549 48.3851 65.1149L52.4451 67.4949C53.3201 65.5699 54.6851 64.6249 56.5401 64.6249C58.3951 64.6249 59.7251 65.8849 59.7251 67.8099C59.7251 69.1049 58.7801 70.7499 56.9251 72.7099L48.5601 81.3199V84.9249H64.9401Z" fill="url(#paint0_linear)"/>
<path d="M92.0389 72.2199C93.5789 70.9949 94.3489 69.3499 94.3489 67.3199C94.3489 65.3249 93.6139 63.6799 92.1789 62.3849C90.7439 61.0899 88.9939 60.4249 86.8939 60.4249H77.2339V84.9249H87.6289C89.7639 84.9249 91.5839 84.2599 93.0539 82.9299C94.5239 81.5999 95.2589 79.8849 95.2589 77.8199C95.2589 75.3349 94.1739 73.4449 92.0389 72.2199ZM86.8939 64.9399C88.4339 64.9399 89.5189 66.0949 89.5189 67.6349C89.5189 69.1749 88.3989 70.3299 86.8939 70.3299H82.0639V64.9399H86.8939ZM82.0639 80.4099V74.6349H87.6289C89.2739 74.6349 90.4639 75.8599 90.4639 77.5049C90.4639 79.1849 89.2739 80.4099 87.6289 80.4099H82.0639Z" fill="url(#paint1_linear)"/>
<path d="M100.455 65.3249C101.995 65.3249 103.255 64.0649 103.255 62.5599C103.255 61.0549 101.995 59.7599 100.455 59.7599C98.9503 59.7599 97.6903 61.0549 97.6903 62.5599C97.6903 64.0649 98.9503 65.3249 100.455 65.3249ZM102.73 84.9249V67.4249H98.2153V84.9249H102.73Z" fill="url(#paint2_linear)"/>
<path d="M111.378 84.9249V59.3749H106.863V84.9249H111.378Z" fill="url(#paint3_linear)"/>
<path d="M120.025 84.9249V59.3749H115.51V84.9249H120.025Z" fill="url(#paint4_linear)"/>
<path d="M126.398 65.3249C127.938 65.3249 129.198 64.0649 129.198 62.5599C129.198 61.0549 127.938 59.7599 126.398 59.7599C124.893 59.7599 123.633 61.0549 123.633 62.5599C123.633 64.0649 124.893 65.3249 126.398 65.3249ZM128.673 84.9249V67.4249H124.158V84.9249H128.673Z" fill="url(#paint5_linear)"/>
<path d="M147.715 82.7549C149.5 80.9699 150.41 78.7649 150.41 76.1749C150.41 73.5849 149.5 71.4149 147.715 69.6299C145.93 67.8449 143.725 66.9349 141.135 66.9349C138.545 66.9349 136.34 67.8449 134.555 69.6299C132.77 71.4149 131.895 73.5849 131.895 76.1749C131.895 78.7649 132.77 80.9699 134.555 82.7549C136.34 84.5399 138.545 85.4149 141.135 85.4149C143.725 85.4149 145.93 84.5399 147.715 82.7549ZM137.74 79.6399C136.865 78.7299 136.41 77.5749 136.41 76.1749C136.41 74.7749 136.865 73.6199 137.74 72.7099C138.65 71.7999 139.77 71.3449 141.135 71.3449C142.5 71.3449 143.62 71.7999 144.53 72.7099C145.44 73.6199 145.895 74.7749 145.895 76.1749C145.895 77.5749 145.44 78.7299 144.53 79.6399C143.62 80.5499 142.5 81.0049 141.135 81.0049C139.77 81.0049 138.65 80.5499 137.74 79.6399Z" fill="url(#paint6_linear)"/>
<path d="M163.316 66.9349C160.936 66.9349 159.186 67.7399 158.101 69.3849V67.4249H153.586V84.9249H158.101V75.4749C158.101 72.5699 159.606 71.1349 161.951 71.1349C164.051 71.1349 165.416 72.3949 165.416 74.7399V84.9249H169.931V74.1799C169.931 71.9049 169.301 70.1549 168.041 68.8599C166.816 67.5649 165.241 66.9349 163.316 66.9349Z" fill="url(#paint7_linear)"/>
<path d="M76.8753 102.067V103.243H80.4733C80.2073 104.769 78.9473 105.833 76.9873 105.833C75.8393 105.833 74.9013 105.469 74.1733 104.741C73.4593 104.013 73.0953 103.103 73.0953 102.025C73.0953 100.947 73.4593 100.037 74.1733 99.3089C74.8873 98.5669 75.8113 98.2029 76.9313 98.2029C78.2893 98.2029 79.5073 98.9029 80.0673 99.9669L81.1873 99.3089C80.7813 98.5949 80.1933 98.0349 79.4373 97.6009C78.6813 97.1669 77.8553 96.9429 76.9453 96.9429C75.4753 96.9429 74.2433 97.4329 73.2633 98.4269C72.2973 99.4069 71.8073 100.611 71.8073 102.025C71.8073 103.439 72.2973 104.643 73.2633 105.637C74.2433 106.617 75.4753 107.107 76.9733 107.107C78.4153 107.107 79.5773 106.687 80.4593 105.847C81.3413 104.993 81.7753 103.929 81.7753 102.655V102.067H76.8753Z" fill="white"/>
<path d="M83.8485 98.6509C84.2965 98.6509 84.6605 98.2869 84.6605 97.8389C84.6605 97.3909 84.2965 97.0129 83.8485 97.0129C83.3865 97.0129 83.0225 97.3909 83.0225 97.8389C83.0225 98.2869 83.3865 98.6509 83.8485 98.6509ZM84.4505 106.925V99.9249H83.2325V106.925H84.4505Z" fill="white"/>
<path d="M90.1726 99.7429C89.0106 99.7429 88.1286 100.205 87.5266 101.129V99.9249H86.3086V109.725H87.5266V105.721C88.1286 106.645 89.0106 107.107 90.1726 107.107C91.1526 107.107 91.9926 106.757 92.6786 106.043C93.3646 105.329 93.7146 104.447 93.7146 103.425C93.7146 102.403 93.3646 101.535 92.6786 100.821C91.9926 100.107 91.1526 99.7429 90.1726 99.7429ZM90.0186 105.931C89.3046 105.931 88.7166 105.693 88.2406 105.217C87.7646 104.727 87.5266 104.139 87.5266 103.425C87.5266 102.711 87.7646 102.123 88.2406 101.647C88.7166 101.157 89.3046 100.919 90.0186 100.919C90.7186 100.919 91.3066 101.157 91.7826 101.647C92.2586 102.123 92.4966 102.711 92.4966 103.425C92.4966 104.139 92.2586 104.727 91.7826 105.217C91.3066 105.693 90.7186 105.931 90.0186 105.931Z" fill="white"/>
<path d="M98.654 99.7429C97.632 99.7429 96.876 100.135 96.386 100.933V97.1249H95.168V106.925H96.386V103.215C96.386 101.647 97.198 100.905 98.416 100.905C99.494 100.905 100.152 101.563 100.152 102.697V106.925H101.37V102.627C101.37 100.849 100.292 99.7429 98.654 99.7429Z" fill="white"/>
<path d="M105.79 105.413L103.41 99.9249H102.108L105.16 106.897L105.034 107.163C104.628 108.185 103.998 108.661 103.144 108.591V109.725C104.544 109.823 105.65 108.941 106.252 107.359L109.108 99.9249H107.806L105.79 105.413Z" fill="white"/>
<path d="M117.783 106.925L121.297 97.1249H119.883L117.055 105.301L114.213 97.1249H112.813L116.313 106.925H117.783Z" fill="white"/>
<path d="M122.663 98.6509C123.111 98.6509 123.475 98.2869 123.475 97.8389C123.475 97.3909 123.111 97.0129 122.663 97.0129C122.201 97.0129 121.837 97.3909 121.837 97.8389C121.837 98.2869 122.201 98.6509 122.663 98.6509ZM123.265 106.925V99.9249H122.047V106.925H123.265Z" fill="white"/>
<path d="M131.843 103.985C131.871 103.803 131.885 103.621 131.885 103.439C131.885 102.417 131.563 101.549 130.905 100.835C130.261 100.107 129.421 99.7429 128.399 99.7429C127.321 99.7429 126.439 100.093 125.753 100.793C125.067 101.493 124.731 102.375 124.731 103.425C124.731 104.489 125.081 105.371 125.767 106.071C126.467 106.757 127.377 107.107 128.483 107.107C129.855 107.107 130.877 106.575 131.563 105.525L130.527 104.937C130.107 105.623 129.435 105.959 128.511 105.959C127.181 105.959 126.215 105.231 125.977 103.985H131.843ZM128.399 100.891C129.519 100.891 130.443 101.591 130.653 102.921H125.977C126.187 101.689 127.097 100.891 128.399 100.891Z" fill="white"/>
<path d="M139.718 105.259L138.066 99.9249H136.89L135.238 105.245L133.698 99.9249H132.424L134.594 106.925H135.84L137.478 101.745L139.116 106.925H140.362L142.532 99.9249H141.258L139.718 105.259Z" fill="white"/>
<path d="M144.398 101.815C144.398 101.213 144.958 100.877 145.644 100.877C146.386 100.877 146.89 101.171 147.142 101.773L148.164 101.199C147.716 100.289 146.778 99.7429 145.644 99.7429C144.93 99.7429 144.342 99.9389 143.866 100.331C143.404 100.723 143.166 101.227 143.166 101.829C143.166 103.313 144.594 103.677 145.7 103.971C146.47 104.153 147.086 104.461 147.086 105.007C147.086 105.665 146.498 105.959 145.7 105.959C144.846 105.959 144.188 105.539 143.964 104.867L142.914 105.469C143.32 106.463 144.342 107.107 145.7 107.107C146.47 107.107 147.086 106.911 147.576 106.533C148.066 106.155 148.318 105.637 148.318 105.007C148.332 103.509 146.876 103.103 145.784 102.865C145.014 102.655 144.398 102.361 144.398 101.815Z" fill="white"/>
<path fill-rule="evenodd" clip-rule="evenodd" d="M101.965 21.4901H113.967V23.5659H116.309V25.5885H118.146V41.462H101.965V21.4901ZM104.169 23.6709V39.2812H115.942V27.4434H112.234V23.6709H104.169Z" fill="white"/>
<defs>
<linearGradient id="paint0_linear" x1="97.7658" y1="20.0822" x2="205.803" y2="62.3757" gradientUnits="userSpaceOnUse">
<stop stop-color="#FCBB03"/>
<stop offset="1" stop-color="#DF871B"/>
</linearGradient>
<linearGradient id="paint1_linear" x1="97.7658" y1="20.0822" x2="205.803" y2="62.3757" gradientUnits="userSpaceOnUse">
<stop stop-color="#FCBB03"/>
<stop offset="1" stop-color="#DF871B"/>
</linearGradient>
<linearGradient id="paint2_linear" x1="97.7658" y1="20.0822" x2="205.803" y2="62.3757" gradientUnits="userSpaceOnUse">
<stop stop-color="#FCBB03"/>
<stop offset="1" stop-color="#DF871B"/>
</linearGradient>
<linearGradient id="paint3_linear" x1="97.7658" y1="20.0822" x2="205.803" y2="62.3757" gradientUnits="userSpaceOnUse">
<stop stop-color="#FCBB03"/>
<stop offset="1" stop-color="#DF871B"/>
</linearGradient>
<linearGradient id="paint4_linear" x1="97.7658" y1="20.0822" x2="205.803" y2="62.3757" gradientUnits="userSpaceOnUse">
<stop stop-color="#FCBB03"/>
<stop offset="1" stop-color="#DF871B"/>
</linearGradient>
<linearGradient id="paint5_linear" x1="97.7658" y1="20.0822" x2="205.803" y2="62.3757" gradientUnits="userSpaceOnUse">
<stop stop-color="#FCBB03"/>
<stop offset="1" stop-color="#DF871B"/>
</linearGradient>
<linearGradient id="paint6_linear" x1="97.7658" y1="20.0822" x2="205.803" y2="62.3757" gradientUnits="userSpaceOnUse">
<stop stop-color="#FCBB03"/>
<stop offset="1" stop-color="#DF871B"/>
</linearGradient>
<linearGradient id="paint7_linear" x1="97.7658" y1="20.0822" x2="205.803" y2="62.3757" gradientUnits="userSpaceOnUse">
<stop stop-color="#FCBB03"/>
<stop offset="1" stop-color="#DF871B"/>
</linearGradient>
</defs>
</svg>
