<svg width="220" height="130" viewBox="0 0 220 130" fill="none" xmlns="http://www.w3.org/2000/svg">
<path d="M0.37793 20.7279C0.37793 9.6822 9.33224 0.727905 20.3779 0.727905H199.092C210.137 0.727905 219.092 9.68221 219.092 20.7279V109.837C219.092 120.883 210.137 129.837 199.092 129.837H20.3779C9.33221 129.837 0.37793 120.883 0.37793 109.837V20.7279Z" fill="#222222"/>
<path d="M123.107 24.615C122.78 23.385 121.818 22.4163 120.596 22.0875C118.38 21.4901 109.498 21.4901 109.498 21.4901C109.498 21.4901 100.616 21.4901 98.4007 22.0875C97.1786 22.4163 96.2161 23.385 95.8894 24.615C95.2959 26.8446 95.2959 31.4962 95.2959 31.4962C95.2959 31.4962 95.2959 36.1479 95.8894 38.3774C96.2161 39.6075 97.1786 40.5359 98.4007 40.8646C100.616 41.462 109.498 41.462 109.498 41.462C109.498 41.462 118.38 41.462 120.596 40.8646C121.818 40.5359 122.78 39.6075 123.107 38.3774C123.7 36.1479 123.7 31.4962 123.7 31.4962C123.7 31.4962 123.7 26.8446 123.107 24.615V24.615ZM106.593 35.7196V27.2729L114.017 31.4963L106.593 35.7196V35.7196Z" fill="white"/>
<path d="M74.4951 65.0448H84.9601L76.9101 84.9248H82.0201L90.3151 64.5198V60.4248H74.4951V65.0448Z" fill="url(#paint0_linear)"/>
<path d="M96.3592 69.3498L96.6742 64.9398H106.089V60.4248H92.1942L91.2142 74.0398H98.6342C100.979 74.0398 102.414 75.3698 102.414 77.3648C102.414 79.4298 100.979 80.6898 98.4942 80.6898C96.1492 80.6898 94.6792 79.7098 94.0842 77.7498L89.9542 80.1648C91.3192 83.6298 94.5392 85.4148 98.4942 85.4148C100.944 85.4148 103.009 84.7148 104.689 83.2798C106.404 81.8448 107.244 79.8848 107.244 77.3648C107.244 74.8448 106.439 72.8848 104.829 71.4848C103.219 70.0498 101.224 69.3498 98.8792 69.3498H96.3592Z" fill="url(#paint1_linear)"/>
<path d="M119.209 76.0698L126.244 67.4248H120.854L114.834 75.1248V60.4248H110.319V84.9248H114.834V76.9798L121.204 84.9248H126.454L119.209 76.0698Z" fill="url(#paint2_linear)"/>
<path d="M137.071 70.5398V64.7998H132.836V70.5398H127.096V74.7748H132.836V80.5498H137.071V74.7748H142.846V70.5398H137.071Z" fill="url(#paint3_linear)"/>
<path d="M89.826 97.1249L87.166 101.717L84.506 97.1249H83.05L86.508 102.949V106.925H87.81V102.963L91.282 97.1249H89.826Z" fill="white"/>
<path d="M96.8247 106.043C97.5387 105.329 97.9027 104.461 97.9027 103.425C97.9027 102.389 97.5387 101.521 96.8247 100.807C96.1107 100.093 95.2287 99.7429 94.2067 99.7429C93.1847 99.7429 92.3027 100.093 91.5887 100.807C90.8747 101.521 90.5247 102.389 90.5247 103.425C90.5247 104.461 90.8747 105.329 91.5887 106.043C92.3027 106.757 93.1847 107.107 94.2067 107.107C95.2287 107.107 96.1107 106.757 96.8247 106.043ZM94.2067 105.917C93.5207 105.917 92.9327 105.679 92.4567 105.203C91.9807 104.727 91.7427 104.139 91.7427 103.425C91.7427 102.711 91.9807 102.123 92.4567 101.647C92.9327 101.171 93.5207 100.933 94.2067 100.933C94.9067 100.933 95.4947 101.171 95.9707 101.647C96.4467 102.123 96.6847 102.711 96.6847 103.425C96.6847 104.139 96.4467 104.727 95.9707 105.203C95.4947 105.679 94.9067 105.917 94.2067 105.917Z" fill="white"/>
<path d="M104.169 103.635C104.169 105.203 103.357 105.945 102.139 105.945C101.061 105.945 100.403 105.287 100.403 104.153V99.9249H99.1846V104.223C99.1846 106.001 100.263 107.107 101.901 107.107C102.923 107.107 103.679 106.715 104.169 105.917V106.925H105.387V99.9249H104.169V103.635Z" fill="white"/>
<path d="M111.049 99.9249H109.187V97.9649L107.969 98.3289V99.9249H106.583V101.101H107.969V104.895C107.969 106.631 108.921 107.205 111.049 106.925V105.833C109.803 105.889 109.187 105.973 109.187 104.895V101.101H111.049V99.9249Z" fill="white"/>
<path d="M117.362 103.635C117.362 105.203 116.55 105.945 115.332 105.945C114.254 105.945 113.596 105.287 113.596 104.153V99.9249H112.378V104.223C112.378 106.001 113.456 107.107 115.094 107.107C116.116 107.107 116.872 106.715 117.362 105.917V106.925H118.58V99.9249H117.362V103.635Z" fill="white"/>
<path d="M124.298 99.7429C123.136 99.7429 122.254 100.205 121.652 101.129V97.1249H120.434V106.925H121.652V105.721C122.254 106.645 123.136 107.107 124.298 107.107C125.278 107.107 126.118 106.757 126.804 106.043C127.49 105.329 127.84 104.447 127.84 103.425C127.84 102.403 127.49 101.535 126.804 100.821C126.118 100.107 125.278 99.7429 124.298 99.7429ZM124.144 105.931C123.43 105.931 122.842 105.693 122.366 105.217C121.89 104.727 121.652 104.139 121.652 103.425C121.652 102.711 121.89 102.123 122.366 101.647C122.842 101.157 123.43 100.919 124.144 100.919C124.844 100.919 125.432 101.157 125.908 101.647C126.384 102.123 126.622 102.711 126.622 103.425C126.622 104.139 126.384 104.727 125.908 105.217C125.432 105.693 124.844 105.931 124.144 105.931Z" fill="white"/>
<path d="M136.014 103.985C136.042 103.803 136.056 103.621 136.056 103.439C136.056 102.417 135.734 101.549 135.076 100.835C134.432 100.107 133.592 99.7429 132.57 99.7429C131.492 99.7429 130.61 100.093 129.924 100.793C129.238 101.493 128.902 102.375 128.902 103.425C128.902 104.489 129.252 105.371 129.938 106.071C130.638 106.757 131.548 107.107 132.654 107.107C134.026 107.107 135.048 106.575 135.734 105.525L134.698 104.937C134.278 105.623 133.606 105.959 132.682 105.959C131.352 105.959 130.386 105.231 130.148 103.985H136.014ZM132.57 100.891C133.69 100.891 134.614 101.591 134.824 102.921H130.148C130.358 101.689 131.268 100.891 132.57 100.891Z" fill="white"/>
<defs>
<linearGradient id="paint0_linear" x1="102.587" y1="20.0821" x2="170.022" y2="35.0768" gradientUnits="userSpaceOnUse">
<stop stop-color="#FCBB03"/>
<stop offset="1" stop-color="#DF871B"/>
</linearGradient>
<linearGradient id="paint1_linear" x1="102.587" y1="20.0821" x2="170.022" y2="35.0768" gradientUnits="userSpaceOnUse">
<stop stop-color="#FCBB03"/>
<stop offset="1" stop-color="#DF871B"/>
</linearGradient>
<linearGradient id="paint2_linear" x1="102.587" y1="20.0821" x2="170.022" y2="35.0768" gradientUnits="userSpaceOnUse">
<stop stop-color="#FCBB03"/>
<stop offset="1" stop-color="#DF871B"/>
</linearGradient>
<linearGradient id="paint3_linear" x1="102.587" y1="20.0821" x2="170.022" y2="35.0768" gradientUnits="userSpaceOnUse">
<stop stop-color="#FCBB03"/>
<stop offset="1" stop-color="#DF871B"/>
</linearGradient>
</defs>
</svg>
