<svg width="220" height="130" viewBox="0 0 220 130" fill="none" xmlns="http://www.w3.org/2000/svg">
<path d="M0.996216 20.7279C0.996216 9.6822 9.95052 0.727905 20.9962 0.727905H199.71C210.756 0.727905 219.71 9.68221 219.71 20.7279V109.837C219.71 120.883 210.756 129.837 199.71 129.837H20.9962C9.9505 129.837 0.996216 120.883 0.996216 109.837V20.7279Z" fill="#222222"/>
<path d="M112.047 40.5478C111.847 41.2893 111.089 41.462 110.353 41.462C109.617 41.462 108.86 41.2893 108.659 40.5478C108.361 39.4388 107.857 36.6601 107.857 35.3671C107.857 33.9957 109.071 33.6605 110.353 33.6605C111.635 33.6605 112.85 33.9957 112.85 35.3671C112.85 36.6523 112.347 39.4308 112.047 40.5478ZM107.734 32.7459C107.005 32.0318 106.566 31.0228 106.612 29.914C106.692 27.9744 108.265 26.405 110.205 26.3299C112.337 26.2474 114.098 27.9578 114.098 30.0718C114.098 31.1182 113.666 32.0657 112.972 32.7458C112.867 32.848 112.878 33.0183 112.996 33.1042C113.36 33.3681 113.638 33.7027 113.825 34.0935C113.892 34.2361 114.078 34.2753 114.193 34.1673C115.318 33.1124 116.009 31.6013 115.968 29.9324C115.896 26.9598 113.488 24.5413 110.515 24.457C107.344 24.367 104.736 26.9206 104.736 30.0718C104.736 31.6852 105.42 33.1417 106.513 34.1672C106.628 34.2752 106.814 34.2362 106.881 34.0935C107.068 33.7026 107.347 33.3681 107.71 33.1042C107.828 33.0184 107.839 32.8481 107.734 32.7459V32.7459ZM110.353 21.4901C105.524 21.4901 101.615 25.3981 101.615 30.2278C101.615 33.7382 103.667 36.6893 106.52 38.0843C106.689 38.1669 106.882 38.024 106.853 37.8381C106.76 37.233 106.684 36.631 106.642 36.1086C106.636 36.0369 106.597 35.9726 106.538 35.9326C104.689 34.6919 103.473 32.5773 103.488 30.1849C103.511 26.4309 106.581 23.3723 110.335 23.3625C114.129 23.3526 117.218 26.4362 117.218 30.2278C117.218 32.6436 115.964 34.7718 114.072 35.9957C114.033 36.5433 113.953 37.1889 113.853 37.8381C113.824 38.024 114.017 38.1669 114.186 38.0842C117.032 36.6924 119.091 33.7458 119.091 30.2278C119.091 25.3989 115.183 21.4901 110.353 21.4901ZM110.353 27.7313C108.974 27.7313 107.857 28.849 107.857 30.2278C107.857 31.6066 108.974 32.7243 110.353 32.7243C111.732 32.7243 112.85 31.6066 112.85 30.2278C112.85 28.849 111.732 27.7313 110.353 27.7313Z" fill="white"/>
<path d="M59.2822 54.7826H56.9122L53.6422 59.7176C53.2372 60.3326 53.0272 61.0376 53.0272 61.8326C53.0272 62.9126 53.3722 63.7976 54.0772 64.4726C54.7822 65.1476 55.6972 65.4926 56.8222 65.4926C57.9472 65.4926 58.8622 65.1476 59.5672 64.4726C60.2722 63.7826 60.6322 62.8976 60.6322 61.8326C60.6322 60.7826 60.2872 59.9276 59.6122 59.2526C58.9372 58.5776 58.0522 58.2176 56.9572 58.1876L59.2822 54.7826ZM58.5772 61.8326C58.5772 62.8676 57.8272 63.5426 56.8222 63.5426C55.8172 63.5426 55.0822 62.8676 55.0822 61.8326C55.0822 60.7976 55.8172 60.1376 56.8222 60.1376C57.8272 60.1376 58.5772 60.8126 58.5772 61.8326Z" fill="url(#paint0_linear)"/>
<path d="M65.6982 65.4926C67.0182 65.4926 68.0532 64.9976 68.7882 64.0076C69.5232 63.0026 69.8982 61.6826 69.8982 60.0326C69.8982 58.3826 69.5232 57.0626 68.7882 56.0726C68.0532 55.0676 67.0182 54.5726 65.6982 54.5726C64.3932 54.5726 63.3582 55.0676 62.6082 56.0726C61.8732 57.0626 61.4982 58.3826 61.4982 60.0326C61.4982 61.6826 61.8732 63.0026 62.6082 64.0076C63.3582 64.9976 64.3932 65.4926 65.6982 65.4926ZM67.8432 60.0326C67.8432 62.2526 67.0932 63.4676 65.6982 63.4676C64.3032 63.4676 63.5682 62.2676 63.5682 60.0326C63.5682 57.7976 64.3032 56.5826 65.6982 56.5826C67.0932 56.5826 67.8432 57.7976 67.8432 60.0326Z" fill="url(#paint1_linear)"/>
<path d="M75.1465 65.4926C76.4665 65.4926 77.5015 64.9976 78.2365 64.0076C78.9715 63.0026 79.3465 61.6826 79.3465 60.0326C79.3465 58.3826 78.9715 57.0626 78.2365 56.0726C77.5015 55.0676 76.4665 54.5726 75.1465 54.5726C73.8415 54.5726 72.8064 55.0676 72.0564 56.0726C71.3214 57.0626 70.9465 58.3826 70.9465 60.0326C70.9465 61.6826 71.3214 63.0026 72.0564 64.0076C72.8064 64.9976 73.8415 65.4926 75.1465 65.4926ZM77.2915 60.0326C77.2915 62.2526 76.5415 63.4676 75.1465 63.4676C73.7515 63.4676 73.0165 62.2676 73.0165 60.0326C73.0165 57.7976 73.7515 56.5826 75.1465 56.5826C76.5415 56.5826 77.2915 57.7976 77.2915 60.0326Z" fill="url(#paint2_linear)"/>
<path d="M84.9397 59.1176V56.6576H83.1247V59.1176H80.6647V60.9326H83.1247V63.4076H84.9397V60.9326H87.4147V59.1176H84.9397Z" fill="url(#paint3_linear)"/>
<path d="M100.115 62.3276C100.16 62.0426 100.19 61.7876 100.19 61.5326C100.19 60.4076 99.83 59.4776 99.11 58.7126C98.405 57.9476 97.49 57.5726 96.395 57.5726C95.24 57.5726 94.28 57.9476 93.545 58.7126C92.81 59.4626 92.435 60.4076 92.435 61.5326C92.435 62.6726 92.81 63.6176 93.56 64.3676C94.31 65.1176 95.3 65.4926 96.545 65.4926C97.985 65.4926 99.08 64.9526 99.815 63.8876L98.255 62.9876C97.88 63.4826 97.31 63.7376 96.575 63.7376C95.42 63.7376 94.715 63.2726 94.46 62.3276H100.115ZM94.43 60.8276C94.655 59.8676 95.36 59.3126 96.395 59.3126C97.28 59.3126 98.03 59.8076 98.255 60.8276H94.43Z" fill="url(#paint4_linear)"/>
<path d="M105.906 57.5726C104.856 57.5726 104.046 57.9326 103.476 58.6676V57.7826H101.541V68.2826H103.476V64.3976C104.046 65.1326 104.856 65.4926 105.906 65.4926C106.911 65.4926 107.781 65.1176 108.486 64.3526C109.206 63.5876 109.566 62.6426 109.566 61.5326C109.566 60.4226 109.206 59.4926 108.486 58.7276C107.781 57.9626 106.911 57.5726 105.906 57.5726ZM104.061 63.0626C103.671 62.6576 103.476 62.1476 103.476 61.5326C103.476 60.9176 103.671 60.4076 104.061 60.0176C104.451 59.6126 104.946 59.4176 105.546 59.4176C106.146 59.4176 106.641 59.6126 107.031 60.0176C107.436 60.4076 107.631 60.9176 107.631 61.5326C107.631 62.1476 107.436 62.6576 107.031 63.0626C106.641 63.4526 106.146 63.6476 105.546 63.6476C104.946 63.6476 104.451 63.4526 104.061 63.0626Z" fill="url(#paint5_linear)"/>
<path d="M111.89 56.8826C112.55 56.8826 113.09 56.3426 113.09 55.6976C113.09 55.0526 112.55 54.4976 111.89 54.4976C111.245 54.4976 110.705 55.0526 110.705 55.6976C110.705 56.3426 111.245 56.8826 111.89 56.8826ZM112.865 65.2826V57.7826H110.93V65.2826H112.865Z" fill="url(#paint6_linear)"/>
<path d="M116.363 59.9126C116.363 59.5376 116.738 59.2976 117.233 59.2976C117.788 59.2976 118.193 59.5526 118.433 60.0626L120.083 59.1626C119.498 58.1426 118.448 57.5726 117.233 57.5726C116.423 57.5726 115.748 57.7826 115.193 58.2176C114.653 58.6376 114.383 59.2226 114.383 59.9576C114.383 61.5176 115.778 61.9826 116.888 62.2676C117.653 62.4626 118.253 62.6876 118.253 63.0926C118.253 63.5276 117.908 63.7376 117.218 63.7376C116.453 63.7376 115.973 63.4076 115.748 62.7626L114.068 63.7076C114.623 64.8926 115.673 65.4926 117.218 65.4926C118.073 65.4926 118.793 65.2826 119.363 64.8776C119.948 64.4576 120.233 63.8576 120.233 63.0926C120.248 61.4876 118.823 60.9626 117.728 60.7376C116.963 60.5426 116.363 60.3176 116.363 59.9126Z" fill="url(#paint7_linear)"/>
<path d="M127.765 64.3526C128.53 63.5876 128.92 62.6426 128.92 61.5326C128.92 60.4226 128.53 59.4926 127.765 58.7276C127 57.9626 126.055 57.5726 124.945 57.5726C123.835 57.5726 122.89 57.9626 122.125 58.7276C121.36 59.4926 120.985 60.4226 120.985 61.5326C120.985 62.6426 121.36 63.5876 122.125 64.3526C122.89 65.1176 123.835 65.4926 124.945 65.4926C126.055 65.4926 127 65.1176 127.765 64.3526ZM123.49 63.0176C123.115 62.6276 122.92 62.1326 122.92 61.5326C122.92 60.9326 123.115 60.4376 123.49 60.0476C123.88 59.6576 124.36 59.4626 124.945 59.4626C125.53 59.4626 126.01 59.6576 126.4 60.0476C126.79 60.4376 126.985 60.9326 126.985 61.5326C126.985 62.1326 126.79 62.6276 126.4 63.0176C126.01 63.4076 125.53 63.6026 124.945 63.6026C124.36 63.6026 123.88 63.4076 123.49 63.0176Z" fill="url(#paint8_linear)"/>
<path d="M135.966 58.6676C135.396 57.9326 134.586 57.5726 133.536 57.5726C132.531 57.5726 131.661 57.9626 130.941 58.7276C130.236 59.4926 129.876 60.4226 129.876 61.5326C129.876 62.6426 130.236 63.5876 130.941 64.3526C131.661 65.1176 132.531 65.4926 133.536 65.4926C134.586 65.4926 135.396 65.1326 135.966 64.3976V65.2826H137.901V54.7826H135.966V58.6676ZM132.396 63.0626C132.006 62.6576 131.811 62.1476 131.811 61.5326C131.811 60.9176 132.006 60.4076 132.396 60.0176C132.801 59.6126 133.296 59.4176 133.896 59.4176C134.496 59.4176 134.991 59.6126 135.381 60.0176C135.771 60.4076 135.966 60.9176 135.966 61.5326C135.966 62.1476 135.771 62.6576 135.381 63.0626C134.991 63.4526 134.496 63.6476 133.896 63.6476C133.296 63.6476 132.801 63.4526 132.396 63.0626Z" fill="url(#paint9_linear)"/>
<path d="M146.961 62.3276C147.006 62.0426 147.036 61.7876 147.036 61.5326C147.036 60.4076 146.676 59.4776 145.956 58.7126C145.251 57.9476 144.336 57.5726 143.241 57.5726C142.086 57.5726 141.126 57.9476 140.391 58.7126C139.656 59.4626 139.281 60.4076 139.281 61.5326C139.281 62.6726 139.656 63.6176 140.406 64.3676C141.156 65.1176 142.146 65.4926 143.391 65.4926C144.831 65.4926 145.926 64.9526 146.661 63.8876L145.101 62.9876C144.726 63.4826 144.156 63.7376 143.421 63.7376C142.266 63.7376 141.561 63.2726 141.306 62.3276H146.961ZM141.276 60.8276C141.501 59.8676 142.206 59.3126 143.241 59.3126C144.126 59.3126 144.876 59.8076 145.101 60.8276H141.276Z" fill="url(#paint10_linear)"/>
<path d="M149.879 59.9126C149.879 59.5376 150.254 59.2976 150.749 59.2976C151.304 59.2976 151.709 59.5526 151.949 60.0626L153.599 59.1626C153.014 58.1426 151.964 57.5726 150.749 57.5726C149.939 57.5726 149.264 57.7826 148.709 58.2176C148.169 58.6376 147.899 59.2226 147.899 59.9576C147.899 61.5176 149.294 61.9826 150.404 62.2676C151.169 62.4626 151.769 62.6876 151.769 63.0926C151.769 63.5276 151.424 63.7376 150.734 63.7376C149.969 63.7376 149.489 63.4076 149.264 62.7626L147.584 63.7076C148.139 64.8926 149.189 65.4926 150.734 65.4926C151.589 65.4926 152.309 65.2826 152.879 64.8776C153.464 64.4576 153.749 63.8576 153.749 63.0926C153.764 61.4876 152.339 60.9626 151.244 60.7376C150.479 60.5426 149.879 60.3176 149.879 59.9126Z" fill="url(#paint11_linear)"/>
<path d="M166.361 63.1976C166.781 62.5376 167.081 61.8026 167.276 60.9926L165.536 60.0026C165.416 60.6926 165.251 61.2776 165.026 61.7426L162.776 59.2826C162.176 58.6376 161.921 58.2476 161.921 57.6926C161.921 57.0476 162.446 56.5826 163.166 56.5826C163.901 56.5826 164.426 57.0026 164.711 57.8426L166.481 56.8226C165.896 55.3676 164.636 54.5726 163.136 54.5726C162.191 54.5726 161.396 54.8576 160.781 55.4276C160.166 55.9826 159.851 56.7176 159.851 57.6026C159.851 58.2326 160.016 58.8176 160.361 59.3576C159.221 60.0176 158.606 61.1276 158.606 62.3726C158.606 63.3176 158.951 64.0826 159.626 64.6526C160.316 65.2076 161.201 65.4926 162.281 65.4926C163.346 65.4926 164.291 65.1926 165.101 64.5926L166.061 65.6276L167.711 64.6826L166.361 63.1976ZM162.416 63.5876C161.291 63.5876 160.691 63.0176 160.691 62.1626C160.691 61.5326 160.961 61.0526 161.516 60.7076C161.516 60.7226 161.531 60.7376 161.546 60.7526L163.811 63.2126C163.406 63.4676 162.941 63.5876 162.416 63.5876Z" fill="url(#paint12_linear)"/>
<path d="M46.8343 76.5776V74.0876H44.7493V76.5776H42.0193L45.4993 69.7826H43.2793L39.7843 76.5776V78.4976H44.7493V80.2826H46.8343V78.4976H47.9593V76.5776H46.8343Z" fill="url(#paint13_linear)"/>
<path d="M55.6687 80.2826V78.2876H51.7237L53.7787 76.2326C54.9337 75.0776 55.5037 73.9676 55.5037 72.8726C55.5037 71.8676 55.1587 71.0576 54.4837 70.4726C53.8087 69.8726 52.9837 69.5726 52.0387 69.5726C50.5537 69.5726 49.2337 70.3526 48.5737 71.7926L50.3137 72.8126C50.6887 71.9876 51.2737 71.5826 52.0687 71.5826C52.8637 71.5826 53.4337 72.1226 53.4337 72.9476C53.4337 73.5026 53.0287 74.2076 52.2337 75.0476L48.6487 78.7376V80.2826H55.6687Z" fill="url(#paint14_linear)"/>
<path d="M60.791 80.4926C62.111 80.4926 63.146 79.9976 63.881 79.0076C64.616 78.0026 64.991 76.6826 64.991 75.0326C64.991 73.3826 64.616 72.0626 63.881 71.0726C63.146 70.0676 62.111 69.5726 60.791 69.5726C59.486 69.5726 58.451 70.0676 57.701 71.0726C56.966 72.0626 56.591 73.3826 56.591 75.0326C56.591 76.6826 56.966 78.0026 57.701 79.0076C58.451 79.9976 59.486 80.4926 60.791 80.4926ZM62.936 75.0326C62.936 77.2526 62.186 78.4676 60.791 78.4676C59.396 78.4676 58.661 77.2676 58.661 75.0326C58.661 72.7976 59.396 71.5826 60.791 71.5826C62.186 71.5826 62.936 72.7976 62.936 75.0326Z" fill="url(#paint15_linear)"/>
<path d="M66.3951 78.2126L65.7951 82.3826H67.3701L68.4951 78.2126H66.3951Z" fill="url(#paint16_linear)"/>
<path d="M73.5058 80.4926C74.8258 80.4926 75.8608 79.9976 76.5958 79.0076C77.3308 78.0026 77.7058 76.6826 77.7058 75.0326C77.7058 73.3826 77.3308 72.0626 76.5958 71.0726C75.8608 70.0676 74.8258 69.5726 73.5058 69.5726C72.2008 69.5726 71.1658 70.0676 70.4158 71.0726C69.6808 72.0626 69.3058 73.3826 69.3058 75.0326C69.3058 76.6826 69.6808 78.0026 70.4158 79.0076C71.1658 79.9976 72.2008 80.4926 73.5058 80.4926ZM75.6508 75.0326C75.6508 77.2526 74.9008 78.4676 73.5058 78.4676C72.1108 78.4676 71.3758 77.2676 71.3758 75.0326C71.3758 72.7976 72.1108 71.5826 73.5058 71.5826C74.9008 71.5826 75.6508 72.7976 75.6508 75.0326Z" fill="url(#paint17_linear)"/>
<path d="M82.9541 80.4926C84.2741 80.4926 85.3091 79.9976 86.0441 79.0076C86.7791 78.0026 87.1541 76.6826 87.1541 75.0326C87.1541 73.3826 86.7791 72.0626 86.0441 71.0726C85.3091 70.0676 84.2741 69.5726 82.9541 69.5726C81.6491 69.5726 80.6141 70.0676 79.8641 71.0726C79.1291 72.0626 78.7541 73.3826 78.7541 75.0326C78.7541 76.6826 79.1291 78.0026 79.8641 79.0076C80.6141 79.9976 81.6491 80.4926 82.9541 80.4926ZM85.0991 75.0326C85.0991 77.2526 84.3491 78.4676 82.9541 78.4676C81.5591 78.4676 80.8241 77.2676 80.8241 75.0326C80.8241 72.7976 81.5591 71.5826 82.9541 71.5826C84.3491 71.5826 85.0991 72.7976 85.0991 75.0326Z" fill="url(#paint18_linear)"/>
<path d="M92.4023 80.4926C93.7223 80.4926 94.7573 79.9976 95.4923 79.0076C96.2273 78.0026 96.6023 76.6826 96.6023 75.0326C96.6023 73.3826 96.2273 72.0626 95.4923 71.0726C94.7573 70.0676 93.7223 69.5726 92.4023 69.5726C91.0973 69.5726 90.0623 70.0676 89.3123 71.0726C88.5773 72.0626 88.2023 73.3826 88.2023 75.0326C88.2023 76.6826 88.5773 78.0026 89.3123 79.0076C90.0623 79.9976 91.0973 80.4926 92.4023 80.4926ZM94.5473 75.0326C94.5473 77.2526 93.7973 78.4676 92.4023 78.4676C91.0073 78.4676 90.2723 77.2676 90.2723 75.0326C90.2723 72.7976 91.0073 71.5826 92.4023 71.5826C93.7973 71.5826 94.5473 72.7976 94.5473 75.0326Z" fill="url(#paint19_linear)"/>
<path d="M107.446 73.6676C106.876 72.9326 106.066 72.5726 105.016 72.5726C104.011 72.5726 103.141 72.9626 102.421 73.7276C101.716 74.4926 101.356 75.4226 101.356 76.5326C101.356 77.6426 101.716 78.5876 102.421 79.3526C103.141 80.1176 104.011 80.4926 105.016 80.4926C106.066 80.4926 106.876 80.1326 107.446 79.3976V80.2826H109.381V69.7826H107.446V73.6676ZM103.876 78.0626C103.486 77.6576 103.291 77.1476 103.291 76.5326C103.291 75.9176 103.486 75.4076 103.876 75.0176C104.281 74.6126 104.776 74.4176 105.376 74.4176C105.976 74.4176 106.471 74.6126 106.861 75.0176C107.251 75.4076 107.446 75.9176 107.446 76.5326C107.446 77.1476 107.251 77.6576 106.861 78.0626C106.471 78.4526 105.976 78.6476 105.376 78.6476C104.776 78.6476 104.281 78.4526 103.876 78.0626Z" fill="url(#paint20_linear)"/>
<path d="M117.54 79.3526C118.305 78.5876 118.695 77.6426 118.695 76.5326C118.695 75.4226 118.305 74.4926 117.54 73.7276C116.775 72.9626 115.83 72.5726 114.72 72.5726C113.61 72.5726 112.665 72.9626 111.9 73.7276C111.135 74.4926 110.76 75.4226 110.76 76.5326C110.76 77.6426 111.135 78.5876 111.9 79.3526C112.665 80.1176 113.61 80.4926 114.72 80.4926C115.83 80.4926 116.775 80.1176 117.54 79.3526ZM113.265 78.0176C112.89 77.6276 112.695 77.1326 112.695 76.5326C112.695 75.9326 112.89 75.4376 113.265 75.0476C113.655 74.6576 114.135 74.4626 114.72 74.4626C115.305 74.4626 115.785 74.6576 116.175 75.0476C116.565 75.4376 116.76 75.9326 116.76 76.5326C116.76 77.1326 116.565 77.6276 116.175 78.0176C115.785 78.4076 115.305 78.6026 114.72 78.6026C114.135 78.6026 113.655 78.4076 113.265 78.0176Z" fill="url(#paint21_linear)"/>
<path d="M126.933 77.4026L125.568 72.7826H123.738L122.373 77.3876L121.098 72.7826H119.043L121.428 80.2826H123.273L124.653 75.7376L126.033 80.2826H127.878L130.263 72.7826H128.208L126.933 77.4026Z" fill="url(#paint22_linear)"/>
<path d="M135.476 72.5726C134.456 72.5726 133.706 72.9176 133.241 73.6226V72.7826H131.306V80.2826H133.241V76.2326C133.241 74.9876 133.886 74.3726 134.891 74.3726C135.791 74.3726 136.376 74.9126 136.376 75.9176V80.2826H138.311V75.6776C138.311 74.7026 138.041 73.9526 137.501 73.3976C136.976 72.8426 136.301 72.5726 135.476 72.5726Z" fill="url(#paint23_linear)"/>
<path d="M141.899 80.2826V69.3326H139.964V80.2826H141.899Z" fill="url(#paint24_linear)"/>
<path d="M150.06 79.3526C150.825 78.5876 151.215 77.6426 151.215 76.5326C151.215 75.4226 150.825 74.4926 150.06 73.7276C149.295 72.9626 148.35 72.5726 147.24 72.5726C146.13 72.5726 145.185 72.9626 144.42 73.7276C143.655 74.4926 143.28 75.4226 143.28 76.5326C143.28 77.6426 143.655 78.5876 144.42 79.3526C145.185 80.1176 146.13 80.4926 147.24 80.4926C148.35 80.4926 149.295 80.1176 150.06 79.3526ZM145.785 78.0176C145.41 77.6276 145.215 77.1326 145.215 76.5326C145.215 75.9326 145.41 75.4376 145.785 75.0476C146.175 74.6576 146.655 74.4626 147.24 74.4626C147.825 74.4626 148.305 74.6576 148.695 75.0476C149.085 75.4376 149.28 75.9326 149.28 76.5326C149.28 77.1326 149.085 77.6276 148.695 78.0176C148.305 78.4076 147.825 78.6026 147.24 78.6026C146.655 78.6026 146.175 78.4076 145.785 78.0176Z" fill="url(#paint25_linear)"/>
<path d="M158.276 73.6676C157.691 72.9326 156.881 72.5726 155.831 72.5726C154.826 72.5726 153.971 72.9626 153.251 73.7276C152.546 74.4926 152.186 75.4226 152.186 76.5326C152.186 77.6426 152.546 78.5876 153.251 79.3526C153.971 80.1176 154.826 80.4926 155.831 80.4926C156.881 80.4926 157.691 80.1326 158.276 79.3976V80.2826H160.211V72.7826H158.276V73.6676ZM154.706 78.0626C154.316 77.6576 154.121 77.1476 154.121 76.5326C154.121 75.9176 154.316 75.4076 154.706 75.0176C155.096 74.6126 155.591 74.4176 156.191 74.4176C156.791 74.4176 157.286 74.6126 157.676 75.0176C158.081 75.4076 158.276 75.9176 158.276 76.5326C158.276 77.1476 158.081 77.6576 157.676 78.0626C157.286 78.4526 156.791 78.6476 156.191 78.6476C155.591 78.6476 155.096 78.4526 154.706 78.0626Z" fill="url(#paint26_linear)"/>
<path d="M167.651 73.6676C167.081 72.9326 166.271 72.5726 165.221 72.5726C164.216 72.5726 163.346 72.9626 162.626 73.7276C161.921 74.4926 161.561 75.4226 161.561 76.5326C161.561 77.6426 161.921 78.5876 162.626 79.3526C163.346 80.1176 164.216 80.4926 165.221 80.4926C166.271 80.4926 167.081 80.1326 167.651 79.3976V80.2826H169.586V69.7826H167.651V73.6676ZM164.081 78.0626C163.691 77.6576 163.496 77.1476 163.496 76.5326C163.496 75.9176 163.691 75.4076 164.081 75.0176C164.486 74.6126 164.981 74.4176 165.581 74.4176C166.181 74.4176 166.676 74.6126 167.066 75.0176C167.456 75.4076 167.651 75.9176 167.651 76.5326C167.651 77.1476 167.456 77.6576 167.066 78.0626C166.676 78.4526 166.181 78.6476 165.581 78.6476C164.981 78.6476 164.486 78.4526 164.081 78.0626Z" fill="url(#paint27_linear)"/>
<path d="M173.082 74.9126C173.082 74.5376 173.457 74.2976 173.952 74.2976C174.507 74.2976 174.912 74.5526 175.152 75.0626L176.802 74.1626C176.217 73.1426 175.167 72.5726 173.952 72.5726C173.142 72.5726 172.467 72.7826 171.912 73.2176C171.372 73.6376 171.102 74.2226 171.102 74.9576C171.102 76.5176 172.497 76.9826 173.607 77.2676C174.372 77.4626 174.972 77.6876 174.972 78.0926C174.972 78.5276 174.627 78.7376 173.937 78.7376C173.172 78.7376 172.692 78.4076 172.467 77.7626L170.787 78.7076C171.342 79.8926 172.392 80.4926 173.937 80.4926C174.792 80.4926 175.512 80.2826 176.082 79.8776C176.667 79.4576 176.952 78.8576 176.952 78.0926C176.967 76.4876 175.542 75.9626 174.447 75.7376C173.682 75.5426 173.082 75.3176 173.082 74.9126Z" fill="url(#paint28_linear)"/>
<path d="M180.133 80.1026C180.628 79.6076 180.628 78.7976 180.133 78.3026C179.638 77.8076 178.828 77.8076 178.333 78.3026C177.838 78.7976 177.838 79.6076 178.333 80.1026C178.828 80.5976 179.638 80.5976 180.133 80.1026Z" fill="url(#paint29_linear)"/>
<path d="M36.2007 87.9249V94.9249H38.9307C39.8807 94.9249 40.6707 94.5849 41.3007 93.9149C41.9307 93.2349 42.2507 92.4049 42.2507 91.4249C42.2507 90.4449 41.9307 89.6149 41.3007 88.9449C40.6707 88.2649 39.8807 87.9249 38.9307 87.9249H36.2007ZM37.1307 94.0449V88.8049H38.9307C39.6407 88.8049 40.2307 89.0549 40.6807 89.5549C41.1307 90.0549 41.3607 90.6749 41.3607 91.4249C41.3607 92.1749 41.1307 92.7949 40.6807 93.2949C40.2307 93.7949 39.6407 94.0449 38.9307 94.0449H37.1307Z" fill="white"/>
<path d="M43.7284 89.0149C44.0484 89.0149 44.3084 88.7549 44.3084 88.4349C44.3084 88.1149 44.0484 87.8449 43.7284 87.8449C43.3984 87.8449 43.1384 88.1149 43.1384 88.4349C43.1384 88.7549 43.3984 89.0149 43.7284 89.0149ZM44.1584 94.9249V89.9249H43.2884V94.9249H44.1584Z" fill="white"/>
<path d="M49.6357 90.7849C49.2057 90.1249 48.5757 89.7949 47.7557 89.7949C47.0457 89.7949 46.4357 90.0449 45.9457 90.5549C45.4557 91.0549 45.2057 91.6649 45.2057 92.3949C45.2057 93.1249 45.4557 93.7349 45.9457 94.2449C46.4357 94.7549 47.0457 95.0049 47.7557 95.0049C48.5657 95.0049 49.1957 94.6749 49.6357 94.0049V94.7149C49.6357 95.6649 49.0057 96.2449 47.9657 96.2449C47.1557 96.2449 46.6057 95.9649 46.3357 95.4049L45.5757 95.8349C45.9857 96.6249 46.8257 97.0549 47.9457 97.0549C48.6457 97.0549 49.2457 96.8449 49.7457 96.4349C50.2457 96.0249 50.4957 95.4549 50.4957 94.7149V89.9249H49.6357V90.7849ZM49.6357 92.3949C49.6357 92.9049 49.4657 93.3249 49.1257 93.6649C48.7857 94.0049 48.3657 94.1749 47.8557 94.1749C47.3457 94.1749 46.9257 94.0049 46.5857 93.6649C46.2457 93.3249 46.0757 92.9049 46.0757 92.3949C46.0757 91.8949 46.2457 91.4749 46.5857 91.1349C46.9257 90.7949 47.3457 90.6249 47.8557 90.6249C48.3657 90.6249 48.7857 90.7949 49.1257 91.1349C49.4657 91.4749 49.6357 91.8949 49.6357 92.3949Z" fill="white"/>
<path d="M52.2538 89.0149C52.5738 89.0149 52.8338 88.7549 52.8338 88.4349C52.8338 88.1149 52.5738 87.8449 52.2538 87.8449C51.9238 87.8449 51.6638 88.1149 51.6638 88.4349C51.6638 88.7549 51.9238 89.0149 52.2538 89.0149ZM52.6838 94.9249V89.9249H51.8138V94.9249H52.6838Z" fill="white"/>
<path d="M56.7311 89.9249H55.4011V88.5249L54.5311 88.7849V89.9249H53.5411V90.7649H54.5311V93.4749C54.5311 94.7149 55.2111 95.1249 56.7311 94.9249V94.1449C55.8411 94.1849 55.4011 94.2449 55.4011 93.4749V90.7649H56.7311V89.9249Z" fill="white"/>
<path d="M61.6472 90.7849C61.2172 90.1249 60.5872 89.7949 59.7572 89.7949C59.0572 89.7949 58.4572 90.0549 57.9672 90.5649C57.4772 91.0749 57.2272 91.6949 57.2272 92.4249C57.2272 93.1549 57.4772 93.7849 57.9672 94.2949C58.4572 94.8049 59.0572 95.0549 59.7572 95.0549C60.5872 95.0549 61.2172 94.7249 61.6472 94.0649V94.9249H62.5172V89.9249H61.6472V90.7849ZM59.8672 94.2149C59.3672 94.2149 58.9472 94.0449 58.6072 93.7049C58.2672 93.3549 58.0972 92.9349 58.0972 92.4249C58.0972 91.9149 58.2672 91.4949 58.6072 91.1549C58.9472 90.8049 59.3672 90.6349 59.8672 90.6349C60.3772 90.6349 60.7972 90.8049 61.1372 91.1549C61.4772 91.4949 61.6472 91.9149 61.6472 92.4249C61.6472 92.9349 61.4772 93.3549 61.1372 93.7049C60.7972 94.0449 60.3772 94.2149 59.8672 94.2149Z" fill="white"/>
<path d="M64.7053 94.9249V87.6249H63.8353V94.9249H64.7053Z" fill="white"/>
<path d="M68.6226 87.9249V94.9249H69.5526V92.4249H71.1626C71.8126 92.4249 72.3426 92.2049 72.7726 91.7749C73.2026 91.3449 73.4226 90.8049 73.4226 90.1749C73.4226 89.5349 73.2026 89.0049 72.7726 88.5749C72.3426 88.1449 71.8126 87.9249 71.1626 87.9249H68.6226ZM69.5526 91.5549V88.7949H71.1626C71.9326 88.7949 72.5026 89.3749 72.5026 90.1749C72.5026 90.5649 72.3726 90.8949 72.1226 91.1649C71.8726 91.4249 71.5526 91.5549 71.1626 91.5549H69.5526Z" fill="white"/>
<path d="M75.1936 89.9249H74.3236V94.9249H75.1936V92.2749C75.1936 91.7249 75.3436 91.3349 75.6536 91.0849C75.9636 90.8349 76.3236 90.7249 76.7536 90.7449V89.8349C76.0036 89.8349 75.4836 90.1449 75.1936 90.7649V89.9249Z" fill="white"/>
<path d="M81.4714 90.7849C81.0414 90.1249 80.4114 89.7949 79.5814 89.7949C78.8814 89.7949 78.2814 90.0549 77.7914 90.5649C77.3014 91.0749 77.0514 91.6949 77.0514 92.4249C77.0514 93.1549 77.3014 93.7849 77.7914 94.2949C78.2814 94.8049 78.8814 95.0549 79.5814 95.0549C80.4114 95.0549 81.0414 94.7249 81.4714 94.0649V94.9249H82.3414V89.9249H81.4714V90.7849ZM79.6914 94.2149C79.1914 94.2149 78.7714 94.0449 78.4314 93.7049C78.0914 93.3549 77.9214 92.9349 77.9214 92.4249C77.9214 91.9149 78.0914 91.4949 78.4314 91.1549C78.7714 90.8049 79.1914 90.6349 79.6914 90.6349C80.2014 90.6349 80.6214 90.8049 80.9614 91.1549C81.3014 91.4949 81.4714 91.9149 81.4714 92.4249C81.4714 92.9349 81.3014 93.3549 80.9614 93.7049C80.6214 94.0449 80.2014 94.2149 79.6914 94.2149Z" fill="white"/>
<path d="M86.3795 89.9249H85.0495V88.5249L84.1795 88.7849V89.9249H83.1895V90.7649H84.1795V93.4749C84.1795 94.7149 84.8595 95.1249 86.3795 94.9249V94.1449C85.4895 94.1849 85.0495 94.2449 85.0495 93.4749V90.7649H86.3795V89.9249Z" fill="white"/>
<path d="M87.8495 89.0149C88.1695 89.0149 88.4295 88.7549 88.4295 88.4349C88.4295 88.1149 88.1695 87.8449 87.8495 87.8449C87.5195 87.8449 87.2595 88.1149 87.2595 88.4349C87.2595 88.7549 87.5195 89.0149 87.8495 89.0149ZM88.2795 94.9249V89.9249H87.4095V94.9249H88.2795Z" fill="white"/>
<path d="M91.3668 92.3449L93.7568 89.9249H92.6368L90.4768 92.1349V87.9249H89.6068V94.9249H90.4768V92.5549L92.7568 94.9249H93.8368L91.3668 92.3449Z" fill="white"/>
<path d="M99.4958 95.0549C100.216 95.0549 100.796 94.8749 101.246 94.5149C101.696 94.1449 101.916 93.6549 101.916 93.0449C101.916 92.6049 101.816 92.2449 101.566 91.9949C101.396 91.7949 101.306 91.6849 101.026 91.5349C100.756 91.3849 100.676 91.3349 100.326 91.2049C100.156 91.1349 100.036 91.0949 99.9558 91.0649L99.5458 90.9349C99.0058 90.7649 98.6258 90.5949 98.4058 90.4349C98.1858 90.2749 98.0758 90.0449 98.0758 89.7349C98.0758 89.0949 98.5858 88.6949 99.3458 88.6949C100.106 88.6949 100.636 89.0549 100.936 89.7749L101.716 89.3249C101.306 88.4049 100.456 87.7949 99.3458 87.7949C98.7358 87.7949 98.2158 87.9749 97.7858 88.3349C97.3558 88.6849 97.1458 89.1649 97.1458 89.7749C97.1458 90.2849 97.3558 90.6949 97.5858 90.9449C97.6958 91.0649 97.8658 91.1849 98.0958 91.3049C98.3258 91.4149 98.5258 91.5049 98.6758 91.5649L99.3458 91.7849C99.9358 91.9749 100.366 92.1449 100.616 92.3149C100.866 92.4849 100.996 92.7349 100.996 93.0649C100.996 93.7149 100.476 94.1449 99.5158 94.1449C98.5458 94.1449 97.9158 93.7249 97.6458 92.8749L96.8458 93.3349C97.2158 94.4049 98.1858 95.0549 99.4958 95.0549Z" fill="white"/>
<path d="M105.417 89.7949C104.687 89.7949 104.147 90.0749 103.797 90.6449V87.9249H102.927V94.9249H103.797V92.2749C103.797 91.1549 104.377 90.6249 105.247 90.6249C106.017 90.6249 106.487 91.0949 106.487 91.9049V94.9249H107.357V91.8549C107.357 90.5849 106.587 89.7949 105.417 89.7949Z" fill="white"/>
<path d="M112.792 94.2949C113.302 93.7849 113.562 93.1649 113.562 92.4249C113.562 91.6849 113.302 91.0649 112.792 90.5549C112.282 90.0449 111.652 89.7949 110.922 89.7949C110.192 89.7949 109.562 90.0449 109.052 90.5549C108.542 91.0649 108.292 91.6849 108.292 92.4249C108.292 93.1649 108.542 93.7849 109.052 94.2949C109.562 94.8049 110.192 95.0549 110.922 95.0549C111.652 95.0549 112.282 94.8049 112.792 94.2949ZM110.922 94.2049C110.432 94.2049 110.012 94.0349 109.672 93.6949C109.332 93.3549 109.162 92.9349 109.162 92.4249C109.162 91.9149 109.332 91.4949 109.672 91.1549C110.012 90.8149 110.432 90.6449 110.922 90.6449C111.422 90.6449 111.842 90.8149 112.182 91.1549C112.522 91.4949 112.692 91.9149 112.692 92.4249C112.692 92.9349 112.522 93.3549 112.182 93.6949C111.842 94.0349 111.422 94.2049 110.922 94.2049Z" fill="white"/>
<path d="M119.182 93.7349L118.002 89.9249H117.162L115.982 93.7249L114.882 89.9249H113.972L115.522 94.9249H116.412L117.582 91.2249L118.752 94.9249H119.642L121.192 89.9249H120.282L119.182 93.7349Z" fill="white"/>
<path d="M129.387 93.6449C129.657 93.2049 129.837 92.7049 129.927 92.1549L129.127 91.6949C129.057 92.1949 128.937 92.6149 128.767 92.9649L126.857 90.9249C126.447 90.4849 126.237 90.1749 126.237 89.7349C126.237 89.1249 126.747 88.6949 127.387 88.6949C127.987 88.6949 128.477 89.0649 128.677 89.6749L129.457 89.2249C129.127 88.3349 128.297 87.7949 127.367 87.7949C126.797 87.7949 126.317 87.9749 125.907 88.3349C125.507 88.6949 125.307 89.1649 125.307 89.7449C125.307 90.2149 125.457 90.6349 125.757 91.0149C124.917 91.4249 124.477 92.1849 124.477 93.0349C124.477 93.6549 124.697 94.1449 125.127 94.5149C125.557 94.8749 126.127 95.0549 126.827 95.0549C127.637 95.0549 128.307 94.8149 128.827 94.3249L129.537 95.0849L130.317 94.6349L129.387 93.6449ZM126.847 94.1749C125.937 94.1749 125.407 93.7249 125.407 92.9749C125.407 92.4449 125.697 91.9249 126.337 91.6549L128.227 93.6849C127.857 94.0149 127.397 94.1749 126.847 94.1749Z" fill="white"/>
<path d="M137.798 91.2949C138.308 90.9449 138.558 90.4549 138.558 89.8349C138.558 89.2949 138.368 88.8449 137.988 88.4749C137.608 88.1049 137.148 87.9249 136.598 87.9249H133.798V94.9249H136.818C137.388 94.9249 137.868 94.7349 138.258 94.3549C138.648 93.9749 138.848 93.5049 138.848 92.9449C138.848 92.1949 138.438 91.6049 137.798 91.2949ZM136.598 88.7949C136.888 88.7949 137.128 88.9049 137.328 89.1149C137.538 89.3249 137.638 89.5749 137.638 89.8649C137.638 90.4649 137.188 90.9349 136.598 90.9349H134.728V88.7949H136.598ZM134.728 94.0549V91.7849H136.818C137.128 91.7849 137.388 91.8949 137.598 92.1149C137.818 92.3349 137.928 92.6049 137.928 92.9149C137.928 93.5549 137.448 94.0549 136.818 94.0549H134.728Z" fill="white"/>
<path d="M140.731 94.9249V87.6249H139.861V94.9249H140.731Z" fill="white"/>
<path d="M146.278 94.2949C146.788 93.7849 147.048 93.1649 147.048 92.4249C147.048 91.6849 146.788 91.0649 146.278 90.5549C145.768 90.0449 145.138 89.7949 144.408 89.7949C143.678 89.7949 143.048 90.0449 142.538 90.5549C142.028 91.0649 141.778 91.6849 141.778 92.4249C141.778 93.1649 142.028 93.7849 142.538 94.2949C143.048 94.8049 143.678 95.0549 144.408 95.0549C145.138 95.0549 145.768 94.8049 146.278 94.2949ZM144.408 94.2049C143.918 94.2049 143.498 94.0349 143.158 93.6949C142.818 93.3549 142.648 92.9349 142.648 92.4249C142.648 91.9149 142.818 91.4949 143.158 91.1549C143.498 90.8149 143.918 90.6449 144.408 90.6449C144.908 90.6449 145.328 90.8149 145.668 91.1549C146.008 91.4949 146.178 91.9149 146.178 92.4249C146.178 92.9349 146.008 93.3549 145.668 93.6949C145.328 94.0349 144.908 94.2049 144.408 94.2049Z" fill="white"/>
<path d="M150.424 95.0549C151.394 95.0549 152.244 94.5449 152.674 93.7549L151.934 93.3249C151.654 93.8549 151.094 94.1949 150.424 94.1949C149.924 94.1949 149.504 94.0249 149.164 93.6849C148.834 93.3449 148.664 92.9249 148.664 92.4249C148.664 91.9149 148.834 91.4949 149.164 91.1549C149.504 90.8149 149.924 90.6449 150.424 90.6449C151.094 90.6449 151.654 90.9949 151.904 91.5249L152.634 91.1049C152.244 90.3049 151.414 89.7949 150.424 89.7949C149.674 89.7949 149.044 90.0449 148.544 90.5549C148.044 91.0549 147.794 91.6749 147.794 92.4249C147.794 93.1749 148.044 93.7949 148.544 94.3049C149.044 94.8049 149.674 95.0549 150.424 95.0549Z" fill="white"/>
<path d="M155.293 92.3449L157.683 89.9249H156.563L154.403 92.1349V87.9249H153.533V94.9249H154.403V92.5549L156.683 94.9249H157.763L155.293 92.3449Z" fill="white"/>
<path d="M160.463 95.0549C161.433 95.0549 162.283 94.5449 162.713 93.7549L161.973 93.3249C161.693 93.8549 161.133 94.1949 160.463 94.1949C159.963 94.1949 159.543 94.0249 159.203 93.6849C158.873 93.3449 158.703 92.9249 158.703 92.4249C158.703 91.9149 158.873 91.4949 159.203 91.1549C159.543 90.8149 159.963 90.6449 160.463 90.6449C161.133 90.6449 161.693 90.9949 161.943 91.5249L162.673 91.1049C162.283 90.3049 161.453 89.7949 160.463 89.7949C159.713 89.7949 159.083 90.0449 158.583 90.5549C158.083 91.0549 157.833 91.6749 157.833 92.4249C157.833 93.1749 158.083 93.7949 158.583 94.3049C159.083 94.8049 159.713 95.0549 160.463 95.0549Z" fill="white"/>
<path d="M166.062 89.7949C165.332 89.7949 164.792 90.0749 164.442 90.6449V87.9249H163.572V94.9249H164.442V92.2749C164.442 91.1549 165.022 90.6249 165.892 90.6249C166.662 90.6249 167.132 91.0949 167.132 91.9049V94.9249H168.002V91.8549C168.002 90.5849 167.232 89.7949 166.062 89.7949Z" fill="white"/>
<path d="M173.356 90.7849C172.926 90.1249 172.296 89.7949 171.466 89.7949C170.766 89.7949 170.166 90.0549 169.676 90.5649C169.186 91.0749 168.936 91.6949 168.936 92.4249C168.936 93.1549 169.186 93.7849 169.676 94.2949C170.166 94.8049 170.766 95.0549 171.466 95.0549C172.296 95.0549 172.926 94.7249 173.356 94.0649V94.9249H174.226V89.9249H173.356V90.7849ZM171.576 94.2149C171.076 94.2149 170.656 94.0449 170.316 93.7049C169.976 93.3549 169.806 92.9349 169.806 92.4249C169.806 91.9149 169.976 91.4949 170.316 91.1549C170.656 90.8049 171.076 90.6349 171.576 90.6349C172.086 90.6349 172.506 90.8049 172.846 91.1549C173.186 91.4949 173.356 91.9149 173.356 92.4249C173.356 92.9349 173.186 93.3549 172.846 93.7049C172.506 94.0449 172.086 94.2149 171.576 94.2149Z" fill="white"/>
<path d="M175.984 89.0149C176.304 89.0149 176.564 88.7549 176.564 88.4349C176.564 88.1149 176.304 87.8449 175.984 87.8449C175.654 87.8449 175.394 88.1149 175.394 88.4349C175.394 88.7549 175.654 89.0149 175.984 89.0149ZM176.414 94.9249V89.9249H175.544V94.9249H176.414Z" fill="white"/>
<path d="M180.232 89.7949C179.502 89.7949 178.962 90.0749 178.612 90.6449V89.9249H177.742V94.9249H178.612V92.2749C178.612 91.1549 179.192 90.6249 180.062 90.6249C180.832 90.6249 181.302 91.0949 181.302 91.9049V94.9249H182.172V91.8549C182.172 90.5849 181.402 89.7949 180.232 89.7949Z" fill="white"/>
<path d="M183.686 93.8949L183.286 96.3249H184.036L184.686 93.8949H183.686Z" fill="white"/>
<path d="M42.7085 107.055C43.3485 107.055 43.9385 106.905 44.4785 106.595C45.0185 106.285 45.4385 105.865 45.7285 105.345L44.9185 104.885C44.5185 105.645 43.6685 106.145 42.7085 106.145C41.8985 106.145 41.2385 105.885 40.7285 105.365C40.2185 104.845 39.9685 104.195 39.9685 103.425C39.9685 102.645 40.2185 101.995 40.7285 101.475C41.2385 100.955 41.8985 100.695 42.7085 100.695C43.6685 100.695 44.5185 101.195 44.9185 101.965L45.7285 101.495C45.1285 100.455 43.9885 99.7949 42.7085 99.7949C41.6485 99.7949 40.7685 100.145 40.0785 100.845C39.3885 101.545 39.0485 102.405 39.0485 103.425C39.0485 104.445 39.3885 105.305 40.0785 106.005C40.7685 106.705 41.6485 107.055 42.7085 107.055Z" fill="white"/>
<path d="M47.591 101.925H46.721V106.925H47.591V104.275C47.591 103.725 47.741 103.335 48.051 103.085C48.361 102.835 48.721 102.725 49.151 102.745V101.835C48.401 101.835 47.881 102.145 47.591 102.765V101.925Z" fill="white"/>
<path d="M52.1597 105.845L50.4597 101.925H49.5297L51.7097 106.905L51.6197 107.095C51.3297 107.825 50.8797 108.165 50.2697 108.115V108.925C51.2697 108.995 52.0597 108.365 52.4897 107.235L54.5297 101.925H53.5997L52.1597 105.845Z" fill="white"/>
<path d="M58.0162 101.795C57.1862 101.795 56.5562 102.125 56.1262 102.785V101.925H55.2562V108.925H56.1262V106.065C56.5562 106.725 57.1862 107.055 58.0162 107.055C58.7162 107.055 59.3162 106.805 59.8062 106.295C60.2962 105.785 60.5462 105.155 60.5462 104.425C60.5462 103.695 60.2962 103.075 59.8062 102.565C59.3162 102.055 58.7162 101.795 58.0162 101.795ZM57.9062 106.215C57.3962 106.215 56.9762 106.045 56.6362 105.705C56.2962 105.355 56.1262 104.935 56.1262 104.425C56.1262 103.915 56.2962 103.495 56.6362 103.155C56.9762 102.805 57.3962 102.635 57.9062 102.635C58.4062 102.635 58.8262 102.805 59.1662 103.155C59.5062 103.495 59.6762 103.915 59.6762 104.425C59.6762 104.935 59.5062 105.355 59.1662 105.705C58.8262 106.045 58.4062 106.215 57.9062 106.215Z" fill="white"/>
<path d="M64.1969 101.925H62.8669V100.525L61.9969 100.785V101.925H61.0069V102.765H61.9969V105.475C61.9969 106.715 62.6769 107.125 64.1969 106.925V106.145C63.3069 106.185 62.8669 106.245 62.8669 105.475V102.765H64.1969V101.925Z" fill="white"/>
<path d="M69.193 106.295C69.703 105.785 69.963 105.165 69.963 104.425C69.963 103.685 69.703 103.065 69.193 102.555C68.683 102.045 68.053 101.795 67.323 101.795C66.593 101.795 65.963 102.045 65.453 102.555C64.943 103.065 64.693 103.685 64.693 104.425C64.693 105.165 64.943 105.785 65.453 106.295C65.963 106.805 66.593 107.055 67.323 107.055C68.053 107.055 68.683 106.805 69.193 106.295ZM67.323 106.205C66.833 106.205 66.413 106.035 66.073 105.695C65.733 105.355 65.563 104.935 65.563 104.425C65.563 103.915 65.733 103.495 66.073 103.155C66.413 102.815 66.833 102.645 67.323 102.645C67.823 102.645 68.243 102.815 68.583 103.155C68.923 103.495 69.093 103.915 69.093 104.425C69.093 104.935 68.923 105.355 68.583 105.695C68.243 106.035 67.823 106.205 67.323 106.205Z" fill="white"/>
<path d="M73.3386 107.055C74.3086 107.055 75.1586 106.545 75.5886 105.755L74.8486 105.325C74.5686 105.855 74.0086 106.195 73.3386 106.195C72.8386 106.195 72.4186 106.025 72.0786 105.685C71.7486 105.345 71.5786 104.925 71.5786 104.425C71.5786 103.915 71.7486 103.495 72.0786 103.155C72.4186 102.815 72.8386 102.645 73.3386 102.645C74.0086 102.645 74.5686 102.995 74.8186 103.525L75.5486 103.105C75.1586 102.305 74.3286 101.795 73.3386 101.795C72.5886 101.795 71.9586 102.045 71.4586 102.555C70.9586 103.055 70.7086 103.675 70.7086 104.425C70.7086 105.175 70.9586 105.795 71.4586 106.305C71.9586 106.805 72.5886 107.055 73.3386 107.055Z" fill="white"/>
<path d="M79.9074 104.575C79.9074 105.695 79.3274 106.225 78.4574 106.225C77.6874 106.225 77.2174 105.755 77.2174 104.945V101.925H76.3474V104.995C76.3474 106.265 77.1174 107.055 78.2874 107.055C79.0174 107.055 79.5574 106.775 79.9074 106.205V106.925H80.7774V101.925H79.9074V104.575Z" fill="white"/>
<path d="M82.9719 101.925H82.1019V106.925H82.9719V104.275C82.9719 103.725 83.1219 103.335 83.4319 103.085C83.7419 102.835 84.1019 102.725 84.5319 102.745V101.835C83.7819 101.835 83.2619 102.145 82.9719 102.765V101.925Z" fill="white"/>
<path d="M86.2531 101.925H85.3831V106.925H86.2531V104.275C86.2531 103.725 86.4031 103.335 86.7131 103.085C87.0231 102.835 87.3831 102.725 87.8131 102.745V101.835C87.0631 101.835 86.5431 102.145 86.2531 102.765V101.925Z" fill="white"/>
<path d="M93.191 104.825C93.211 104.695 93.221 104.565 93.221 104.435C93.221 103.705 92.991 103.085 92.521 102.575C92.061 102.055 91.461 101.795 90.731 101.795C89.961 101.795 89.331 102.045 88.841 102.545C88.351 103.045 88.111 103.675 88.111 104.425C88.111 105.185 88.361 105.815 88.851 106.315C89.351 106.805 90.001 107.055 90.791 107.055C91.771 107.055 92.501 106.675 92.991 105.925L92.251 105.505C91.951 105.995 91.471 106.235 90.811 106.235C89.861 106.235 89.171 105.715 89.001 104.825H93.191ZM90.731 102.615C91.531 102.615 92.191 103.115 92.341 104.065H89.001C89.151 103.185 89.801 102.615 90.731 102.615Z" fill="white"/>
<path d="M96.711 101.795C95.981 101.795 95.441 102.075 95.091 102.645V101.925H94.221V106.925H95.091V104.275C95.091 103.155 95.671 102.625 96.541 102.625C97.311 102.625 97.781 103.095 97.781 103.905V106.925H98.651V103.855C98.651 102.585 97.881 101.795 96.711 101.795Z" fill="white"/>
<path d="M102.216 107.055C103.186 107.055 104.036 106.545 104.466 105.755L103.726 105.325C103.446 105.855 102.886 106.195 102.216 106.195C101.716 106.195 101.296 106.025 100.956 105.685C100.626 105.345 100.456 104.925 100.456 104.425C100.456 103.915 100.626 103.495 100.956 103.155C101.296 102.815 101.716 102.645 102.216 102.645C102.886 102.645 103.446 102.995 103.696 103.525L104.426 103.105C104.036 102.305 103.206 101.795 102.216 101.795C101.466 101.795 100.836 102.045 100.336 102.555C99.8356 103.055 99.5856 103.675 99.5856 104.425C99.5856 105.175 99.8356 105.795 100.336 106.305C100.836 106.805 101.466 107.055 102.216 107.055Z" fill="white"/>
<path d="M107.384 105.845L105.684 101.925H104.754L106.934 106.905L106.844 107.095C106.554 107.825 106.104 108.165 105.494 108.115V108.925C106.494 108.995 107.284 108.365 107.714 107.235L109.754 101.925H108.824L107.384 105.845Z" fill="white"/>
<path d="M117.781 105.645C118.051 105.205 118.231 104.705 118.321 104.155L117.521 103.695C117.451 104.195 117.331 104.615 117.161 104.965L115.251 102.925C114.841 102.485 114.631 102.175 114.631 101.735C114.631 101.125 115.141 100.695 115.781 100.695C116.381 100.695 116.871 101.065 117.071 101.675L117.851 101.225C117.521 100.335 116.691 99.7949 115.761 99.7949C115.191 99.7949 114.711 99.9749 114.301 100.335C113.901 100.695 113.701 101.165 113.701 101.745C113.701 102.215 113.851 102.635 114.151 103.015C113.311 103.425 112.871 104.185 112.871 105.035C112.871 105.655 113.091 106.145 113.521 106.515C113.951 106.875 114.521 107.055 115.221 107.055C116.031 107.055 116.701 106.815 117.221 106.325L117.931 107.085L118.711 106.635L117.781 105.645ZM115.241 106.175C114.331 106.175 113.801 105.725 113.801 104.975C113.801 104.445 114.091 103.925 114.731 103.655L116.621 105.685C116.251 106.015 115.791 106.175 115.241 106.175Z" fill="white"/>
<path d="M122.192 99.9249V106.925H124.922C125.872 106.925 126.662 106.585 127.292 105.915C127.922 105.235 128.242 104.405 128.242 103.425C128.242 102.445 127.922 101.615 127.292 100.945C126.662 100.265 125.872 99.9249 124.922 99.9249H122.192ZM123.122 106.045V100.805H124.922C125.632 100.805 126.222 101.055 126.672 101.555C127.122 102.055 127.352 102.675 127.352 103.425C127.352 104.175 127.122 104.795 126.672 105.295C126.222 105.795 125.632 106.045 124.922 106.045H123.122Z" fill="white"/>
<path d="M134.08 104.825C134.1 104.695 134.11 104.565 134.11 104.435C134.11 103.705 133.88 103.085 133.41 102.575C132.95 102.055 132.35 101.795 131.62 101.795C130.85 101.795 130.22 102.045 129.73 102.545C129.24 103.045 129 103.675 129 104.425C129 105.185 129.25 105.815 129.74 106.315C130.24 106.805 130.89 107.055 131.68 107.055C132.66 107.055 133.39 106.675 133.88 105.925L133.14 105.505C132.84 105.995 132.36 106.235 131.7 106.235C130.75 106.235 130.06 105.715 129.89 104.825H134.08ZM131.62 102.615C132.42 102.615 133.08 103.115 133.23 104.065H129.89C130.04 103.185 130.69 102.615 131.62 102.615Z" fill="white"/>
<path d="M139.23 99.9249H135.2V106.925H136.13V103.955H139.1V103.075H136.13V100.805H139.23V99.9249Z" fill="white"/>
<path d="M140.706 101.015C141.026 101.015 141.286 100.755 141.286 100.435C141.286 100.115 141.026 99.8449 140.706 99.8449C140.376 99.8449 140.116 100.115 140.116 100.435C140.116 100.755 140.376 101.015 140.706 101.015ZM141.136 106.925V101.925H140.266V106.925H141.136Z" fill="white"/>
<path d="M145.053 99.9249V106.925H145.983V104.425H147.593C148.243 104.425 148.773 104.205 149.203 103.775C149.633 103.345 149.853 102.805 149.853 102.175C149.853 101.535 149.633 101.005 149.203 100.575C148.773 100.145 148.243 99.9249 147.593 99.9249H145.053ZM145.983 103.555V100.795H147.593C148.363 100.795 148.933 101.375 148.933 102.175C148.933 102.565 148.803 102.895 148.553 103.165C148.303 103.425 147.983 103.555 147.593 103.555H145.983Z" fill="white"/>
<path d="M154.701 106.295C155.211 105.785 155.471 105.165 155.471 104.425C155.471 103.685 155.211 103.065 154.701 102.555C154.191 102.045 153.561 101.795 152.831 101.795C152.101 101.795 151.471 102.045 150.961 102.555C150.451 103.065 150.201 103.685 150.201 104.425C150.201 105.165 150.451 105.785 150.961 106.295C151.471 106.805 152.101 107.055 152.831 107.055C153.561 107.055 154.191 106.805 154.701 106.295ZM152.831 106.205C152.341 106.205 151.921 106.035 151.581 105.695C151.241 105.355 151.071 104.935 151.071 104.425C151.071 103.915 151.241 103.495 151.581 103.155C151.921 102.815 152.341 102.645 152.831 102.645C153.331 102.645 153.751 102.815 154.091 103.155C154.431 103.495 154.601 103.915 154.601 104.425C154.601 104.935 154.431 105.355 154.091 105.695C153.751 106.035 153.331 106.205 152.831 106.205Z" fill="white"/>
<path d="M160.636 102.785C160.206 102.125 159.576 101.795 158.746 101.795C158.046 101.795 157.446 102.055 156.956 102.565C156.466 103.075 156.216 103.695 156.216 104.425C156.216 105.155 156.466 105.785 156.956 106.295C157.446 106.805 158.046 107.055 158.746 107.055C159.576 107.055 160.206 106.725 160.636 106.065V106.925H161.506V99.9249H160.636V102.785ZM158.856 106.215C158.356 106.215 157.936 106.045 157.596 105.705C157.256 105.355 157.086 104.935 157.086 104.425C157.086 103.915 157.256 103.495 157.596 103.155C157.936 102.805 158.356 102.635 158.856 102.635C159.366 102.635 159.786 102.805 160.126 103.155C160.466 103.495 160.636 103.915 160.636 104.425C160.636 104.935 160.466 105.355 160.126 105.705C159.786 106.045 159.366 106.215 158.856 106.215Z" fill="white"/>
<path d="M165.175 107.055C166.145 107.055 166.995 106.545 167.425 105.755L166.685 105.325C166.405 105.855 165.845 106.195 165.175 106.195C164.675 106.195 164.255 106.025 163.915 105.685C163.585 105.345 163.415 104.925 163.415 104.425C163.415 103.915 163.585 103.495 163.915 103.155C164.255 102.815 164.675 102.645 165.175 102.645C165.845 102.645 166.405 102.995 166.655 103.525L167.385 103.105C166.995 102.305 166.165 101.795 165.175 101.795C164.425 101.795 163.795 102.045 163.295 102.555C162.795 103.055 162.545 103.675 162.545 104.425C162.545 105.175 162.795 105.795 163.295 106.305C163.795 106.805 164.425 107.055 165.175 107.055Z" fill="white"/>
<path d="M172.355 102.785C171.925 102.125 171.295 101.795 170.465 101.795C169.765 101.795 169.165 102.055 168.675 102.565C168.185 103.075 167.935 103.695 167.935 104.425C167.935 105.155 168.185 105.785 168.675 106.295C169.165 106.805 169.765 107.055 170.465 107.055C171.295 107.055 171.925 106.725 172.355 106.065V106.925H173.225V101.925H172.355V102.785ZM170.575 106.215C170.075 106.215 169.655 106.045 169.315 105.705C168.975 105.355 168.805 104.935 168.805 104.425C168.805 103.915 168.975 103.495 169.315 103.155C169.655 102.805 170.075 102.635 170.575 102.635C171.085 102.635 171.505 102.805 171.845 103.155C172.185 103.495 172.355 103.915 172.355 104.425C172.355 104.935 172.185 105.355 171.845 105.705C171.505 106.045 171.085 106.215 170.575 106.215Z" fill="white"/>
<path d="M175.284 103.275C175.284 102.845 175.684 102.605 176.174 102.605C176.704 102.605 177.064 102.815 177.244 103.245L177.974 102.835C177.654 102.185 176.984 101.795 176.174 101.795C175.664 101.795 175.244 101.935 174.904 102.215C174.574 102.495 174.404 102.855 174.404 103.285C174.404 104.345 175.424 104.605 176.214 104.815C176.764 104.945 177.204 105.165 177.204 105.555C177.204 106.025 176.784 106.235 176.214 106.235C175.604 106.235 175.134 105.935 174.974 105.455L174.224 105.885C174.514 106.595 175.244 107.055 176.214 107.055C176.764 107.055 177.204 106.915 177.554 106.645C177.904 106.375 178.084 106.005 178.084 105.555C178.094 104.485 177.054 104.195 176.274 104.025C175.724 103.875 175.284 103.665 175.284 103.275Z" fill="white"/>
<path d="M181.638 101.925H180.308V100.525L179.438 100.785V101.925H178.448V102.765H179.438V105.475C179.438 106.715 180.118 107.125 181.638 106.925V106.145C180.748 106.185 180.308 106.245 180.308 105.475V102.765H181.638V101.925Z" fill="white"/>
<defs>
<linearGradient id="paint0_linear" x1="96.7015" y1="20.8459" x2="208.835" y2="79.5852" gradientUnits="userSpaceOnUse">
<stop stop-color="#FCBB03"/>
<stop offset="1" stop-color="#DF871B"/>
</linearGradient>
<linearGradient id="paint1_linear" x1="96.7015" y1="20.8459" x2="208.835" y2="79.5852" gradientUnits="userSpaceOnUse">
<stop stop-color="#FCBB03"/>
<stop offset="1" stop-color="#DF871B"/>
</linearGradient>
<linearGradient id="paint2_linear" x1="96.7015" y1="20.8459" x2="208.835" y2="79.5852" gradientUnits="userSpaceOnUse">
<stop stop-color="#FCBB03"/>
<stop offset="1" stop-color="#DF871B"/>
</linearGradient>
<linearGradient id="paint3_linear" x1="96.7015" y1="20.8459" x2="208.835" y2="79.5852" gradientUnits="userSpaceOnUse">
<stop stop-color="#FCBB03"/>
<stop offset="1" stop-color="#DF871B"/>
</linearGradient>
<linearGradient id="paint4_linear" x1="96.7015" y1="20.8459" x2="208.835" y2="79.5852" gradientUnits="userSpaceOnUse">
<stop stop-color="#FCBB03"/>
<stop offset="1" stop-color="#DF871B"/>
</linearGradient>
<linearGradient id="paint5_linear" x1="96.7015" y1="20.8459" x2="208.835" y2="79.5852" gradientUnits="userSpaceOnUse">
<stop stop-color="#FCBB03"/>
<stop offset="1" stop-color="#DF871B"/>
</linearGradient>
<linearGradient id="paint6_linear" x1="96.7015" y1="20.8459" x2="208.835" y2="79.5852" gradientUnits="userSpaceOnUse">
<stop stop-color="#FCBB03"/>
<stop offset="1" stop-color="#DF871B"/>
</linearGradient>
<linearGradient id="paint7_linear" x1="96.7015" y1="20.8459" x2="208.835" y2="79.5852" gradientUnits="userSpaceOnUse">
<stop stop-color="#FCBB03"/>
<stop offset="1" stop-color="#DF871B"/>
</linearGradient>
<linearGradient id="paint8_linear" x1="96.7015" y1="20.8459" x2="208.835" y2="79.5852" gradientUnits="userSpaceOnUse">
<stop stop-color="#FCBB03"/>
<stop offset="1" stop-color="#DF871B"/>
</linearGradient>
<linearGradient id="paint9_linear" x1="96.7015" y1="20.8459" x2="208.835" y2="79.5852" gradientUnits="userSpaceOnUse">
<stop stop-color="#FCBB03"/>
<stop offset="1" stop-color="#DF871B"/>
</linearGradient>
<linearGradient id="paint10_linear" x1="96.7015" y1="20.8459" x2="208.835" y2="79.5852" gradientUnits="userSpaceOnUse">
<stop stop-color="#FCBB03"/>
<stop offset="1" stop-color="#DF871B"/>
</linearGradient>
<linearGradient id="paint11_linear" x1="96.7015" y1="20.8459" x2="208.835" y2="79.5852" gradientUnits="userSpaceOnUse">
<stop stop-color="#FCBB03"/>
<stop offset="1" stop-color="#DF871B"/>
</linearGradient>
<linearGradient id="paint12_linear" x1="96.7015" y1="20.8459" x2="208.835" y2="79.5852" gradientUnits="userSpaceOnUse">
<stop stop-color="#FCBB03"/>
<stop offset="1" stop-color="#DF871B"/>
</linearGradient>
<linearGradient id="paint13_linear" x1="96.7015" y1="20.8459" x2="208.835" y2="79.5852" gradientUnits="userSpaceOnUse">
<stop stop-color="#FCBB03"/>
<stop offset="1" stop-color="#DF871B"/>
</linearGradient>
<linearGradient id="paint14_linear" x1="96.7015" y1="20.8459" x2="208.835" y2="79.5852" gradientUnits="userSpaceOnUse">
<stop stop-color="#FCBB03"/>
<stop offset="1" stop-color="#DF871B"/>
</linearGradient>
<linearGradient id="paint15_linear" x1="96.7015" y1="20.8459" x2="208.835" y2="79.5852" gradientUnits="userSpaceOnUse">
<stop stop-color="#FCBB03"/>
<stop offset="1" stop-color="#DF871B"/>
</linearGradient>
<linearGradient id="paint16_linear" x1="96.7015" y1="20.8459" x2="208.835" y2="79.5852" gradientUnits="userSpaceOnUse">
<stop stop-color="#FCBB03"/>
<stop offset="1" stop-color="#DF871B"/>
</linearGradient>
<linearGradient id="paint17_linear" x1="96.7015" y1="20.8459" x2="208.835" y2="79.5852" gradientUnits="userSpaceOnUse">
<stop stop-color="#FCBB03"/>
<stop offset="1" stop-color="#DF871B"/>
</linearGradient>
<linearGradient id="paint18_linear" x1="96.7015" y1="20.8459" x2="208.835" y2="79.5852" gradientUnits="userSpaceOnUse">
<stop stop-color="#FCBB03"/>
<stop offset="1" stop-color="#DF871B"/>
</linearGradient>
<linearGradient id="paint19_linear" x1="96.7015" y1="20.8459" x2="208.835" y2="79.5852" gradientUnits="userSpaceOnUse">
<stop stop-color="#FCBB03"/>
<stop offset="1" stop-color="#DF871B"/>
</linearGradient>
<linearGradient id="paint20_linear" x1="96.7015" y1="20.8459" x2="208.835" y2="79.5852" gradientUnits="userSpaceOnUse">
<stop stop-color="#FCBB03"/>
<stop offset="1" stop-color="#DF871B"/>
</linearGradient>
<linearGradient id="paint21_linear" x1="96.7015" y1="20.8459" x2="208.835" y2="79.5852" gradientUnits="userSpaceOnUse">
<stop stop-color="#FCBB03"/>
<stop offset="1" stop-color="#DF871B"/>
</linearGradient>
<linearGradient id="paint22_linear" x1="96.7015" y1="20.8459" x2="208.835" y2="79.5852" gradientUnits="userSpaceOnUse">
<stop stop-color="#FCBB03"/>
<stop offset="1" stop-color="#DF871B"/>
</linearGradient>
<linearGradient id="paint23_linear" x1="96.7015" y1="20.8459" x2="208.835" y2="79.5852" gradientUnits="userSpaceOnUse">
<stop stop-color="#FCBB03"/>
<stop offset="1" stop-color="#DF871B"/>
</linearGradient>
<linearGradient id="paint24_linear" x1="96.7015" y1="20.8459" x2="208.835" y2="79.5852" gradientUnits="userSpaceOnUse">
<stop stop-color="#FCBB03"/>
<stop offset="1" stop-color="#DF871B"/>
</linearGradient>
<linearGradient id="paint25_linear" x1="96.7015" y1="20.8459" x2="208.835" y2="79.5852" gradientUnits="userSpaceOnUse">
<stop stop-color="#FCBB03"/>
<stop offset="1" stop-color="#DF871B"/>
</linearGradient>
<linearGradient id="paint26_linear" x1="96.7015" y1="20.8459" x2="208.835" y2="79.5852" gradientUnits="userSpaceOnUse">
<stop stop-color="#FCBB03"/>
<stop offset="1" stop-color="#DF871B"/>
</linearGradient>
<linearGradient id="paint27_linear" x1="96.7015" y1="20.8459" x2="208.835" y2="79.5852" gradientUnits="userSpaceOnUse">
<stop stop-color="#FCBB03"/>
<stop offset="1" stop-color="#DF871B"/>
</linearGradient>
<linearGradient id="paint28_linear" x1="96.7015" y1="20.8459" x2="208.835" y2="79.5852" gradientUnits="userSpaceOnUse">
<stop stop-color="#FCBB03"/>
<stop offset="1" stop-color="#DF871B"/>
</linearGradient>
<linearGradient id="paint29_linear" x1="96.7015" y1="20.8459" x2="208.835" y2="79.5852" gradientUnits="userSpaceOnUse">
<stop stop-color="#FCBB03"/>
<stop offset="1" stop-color="#DF871B"/>
</linearGradient>
</defs>
</svg>
